<svg width="90" height="56" viewBox="0 0 90 56" fill="none" xmlns="http://www.w3.org/2000/svg">
<rect width="90" height="56" fill="white"/>
<path d="M35.1978 35.48V44H34.1178V40.124H29.4258V44H28.3458V35.48H29.4258V39.164H34.1178V35.48H35.1978ZM40.1028 44.12C39.6308 44.12 39.1988 44.032 38.8068 43.856C38.4228 43.68 38.0908 43.444 37.8108 43.148C37.5388 42.852 37.3268 42.508 37.1748 42.116C37.0228 41.724 36.9468 41.312 36.9468 40.88C36.9468 40.44 37.0228 40.024 37.1748 39.632C37.3348 39.24 37.5508 38.896 37.8228 38.6C38.1028 38.304 38.4348 38.068 38.8188 37.892C39.2108 37.716 39.6388 37.628 40.1028 37.628C40.5668 37.628 40.9948 37.716 41.3868 37.892C41.7788 38.068 42.1108 38.304 42.3828 38.6C42.6628 38.896 42.8788 39.24 43.0308 39.632C43.1908 40.024 43.2708 40.44 43.2708 40.88C43.2708 41.312 43.1948 41.724 43.0428 42.116C42.8908 42.508 42.6748 42.852 42.3948 43.148C42.1148 43.444 41.7788 43.68 41.3868 43.856C41.0028 44.032 40.5748 44.12 40.1028 44.12ZM38.0268 40.892C38.0268 41.22 38.0788 41.524 38.1828 41.804C38.2948 42.084 38.4428 42.328 38.6268 42.536C38.8188 42.744 39.0388 42.908 39.2868 43.028C39.5428 43.148 39.8148 43.208 40.1028 43.208C40.3908 43.208 40.6588 43.148 40.9068 43.028C41.1628 42.908 41.3868 42.744 41.5788 42.536C41.7708 42.32 41.9188 42.072 42.0228 41.792C42.1348 41.504 42.1908 41.196 42.1908 40.868C42.1908 40.548 42.1348 40.248 42.0228 39.968C41.9188 39.68 41.7708 39.432 41.5788 39.224C41.3868 39.008 41.1628 38.84 40.9068 38.72C40.6588 38.6 40.3908 38.54 40.1028 38.54C39.8148 38.54 39.5428 38.604 39.2868 38.732C39.0388 38.852 38.8188 39.02 38.6268 39.236C38.4428 39.444 38.2948 39.692 38.1828 39.98C38.0788 40.26 38.0268 40.564 38.0268 40.892ZM54.3944 44H53.3384V40.496C53.3384 39.84 53.2304 39.356 53.0144 39.044C52.8064 38.732 52.4944 38.576 52.0784 38.576C51.6464 38.576 51.2584 38.732 50.9144 39.044C50.5784 39.348 50.3384 39.744 50.1944 40.232V44H49.1384V40.496C49.1384 39.824 49.0344 39.336 48.8264 39.032C48.6184 38.728 48.3064 38.576 47.8904 38.576C47.4664 38.576 47.0824 38.728 46.7384 39.032C46.3944 39.328 46.1504 39.724 46.0064 40.22V44H44.9504V37.736H45.9104V39.08C46.1664 38.616 46.4984 38.26 46.9064 38.012C47.3144 37.756 47.7744 37.628 48.2864 37.628C48.8144 37.628 49.2304 37.772 49.5344 38.06C49.8464 38.34 50.0384 38.704 50.1104 39.152C50.6704 38.136 51.4664 37.628 52.4984 37.628C52.8584 37.628 53.1584 37.696 53.3984 37.832C53.6464 37.96 53.8424 38.144 53.9864 38.384C54.1304 38.616 54.2344 38.892 54.2984 39.212C54.3624 39.532 54.3944 39.88 54.3944 40.256V44ZM59.2084 44.12C58.7364 44.12 58.3044 44.036 57.9124 43.868C57.5204 43.692 57.1844 43.456 56.9044 43.16C56.6244 42.864 56.4044 42.52 56.2444 42.128C56.0924 41.728 56.0164 41.308 56.0164 40.868C56.0164 40.428 56.0924 40.012 56.2444 39.62C56.4044 39.228 56.6244 38.884 56.9044 38.588C57.1924 38.292 57.5324 38.06 57.9244 37.892C58.3164 37.716 58.7484 37.628 59.2204 37.628C59.6924 37.628 60.1204 37.716 60.5044 37.892C60.8964 38.068 61.2284 38.304 61.5004 38.6C61.7724 38.888 61.9804 39.228 62.1244 39.62C62.2764 40.004 62.3524 40.404 62.3524 40.82C62.3524 40.908 62.3484 40.988 62.3404 41.06C62.3404 41.132 62.3364 41.188 62.3284 41.228H57.1324C57.1564 41.54 57.2284 41.824 57.3484 42.08C57.4684 42.336 57.6244 42.556 57.8164 42.74C58.0084 42.924 58.2244 43.068 58.4644 43.172C58.7124 43.276 58.9724 43.328 59.2444 43.328C59.4364 43.328 59.6244 43.304 59.8084 43.256C59.9924 43.2 60.1644 43.128 60.3244 43.04C60.4844 42.952 60.6244 42.844 60.7444 42.716C60.8724 42.588 60.9684 42.444 61.0324 42.284L61.9444 42.536C61.8404 42.768 61.6964 42.98 61.5124 43.172C61.3364 43.364 61.1284 43.532 60.8884 43.676C60.6564 43.812 60.3964 43.92 60.1084 44C59.8204 44.08 59.5204 44.12 59.2084 44.12ZM61.3564 40.448C61.3324 40.152 61.2564 39.88 61.1284 39.632C61.0084 39.376 60.8524 39.16 60.6604 38.984C60.4764 38.808 60.2604 38.672 60.0124 38.576C59.7644 38.472 59.5004 38.42 59.2204 38.42C58.9404 38.42 58.6764 38.472 58.4284 38.576C58.1804 38.672 57.9604 38.812 57.7684 38.996C57.5844 39.172 57.4324 39.384 57.3124 39.632C57.2004 39.88 57.1324 40.152 57.1084 40.448H61.3564Z" fill="#F8E3D3"/>
<path d="M45 13.69L50 18.19V26H48V20H42V26H40V18.19L45 13.69ZM45 11L35 20H38V28H44V22H46V28H52V20H55L45 11Z" fill="#F8E3D3"/>
</svg>
