<svg width="90" height="56" viewBox="0 0 90 56" fill="none" xmlns="http://www.w3.org/2000/svg">
<rect width="90" height="56" fill="white"/>
<path d="M35.1998 35.48V44H33.8437V40.244H29.5477V44H28.2037V35.48H29.5477V39.044H33.8437V35.48H35.1998ZM40.0917 44.12C39.5957 44.12 39.1477 44.032 38.7477 43.856C38.3557 43.68 38.0197 43.444 37.7397 43.148C37.4597 42.852 37.2437 42.508 37.0917 42.116C36.9397 41.716 36.8637 41.3 36.8637 40.868C36.8637 40.436 36.9397 40.024 37.0917 39.632C37.2437 39.232 37.4597 38.884 37.7397 38.588C38.0277 38.292 38.3677 38.056 38.7597 37.88C39.1597 37.704 39.6037 37.616 40.0917 37.616C40.5797 37.616 41.0197 37.704 41.4117 37.88C41.8117 38.056 42.1517 38.292 42.4317 38.588C42.7197 38.884 42.9397 39.232 43.0917 39.632C43.2437 40.024 43.3197 40.436 43.3197 40.868C43.3197 41.3 43.2437 41.716 43.0917 42.116C42.9397 42.508 42.7197 42.852 42.4317 43.148C42.1517 43.444 41.8117 43.68 41.4117 43.856C41.0197 44.032 40.5797 44.12 40.0917 44.12ZM38.2197 40.88C38.2197 41.184 38.2677 41.464 38.3637 41.72C38.4597 41.976 38.5917 42.2 38.7597 42.392C38.9277 42.576 39.1237 42.724 39.3477 42.836C39.5797 42.94 39.8277 42.992 40.0917 42.992C40.3557 42.992 40.5997 42.94 40.8237 42.836C41.0557 42.724 41.2557 42.572 41.4237 42.38C41.5917 42.188 41.7237 41.964 41.8197 41.708C41.9157 41.452 41.9637 41.172 41.9637 40.868C41.9637 40.572 41.9157 40.296 41.8197 40.04C41.7237 39.776 41.5917 39.548 41.4237 39.356C41.2557 39.164 41.0557 39.016 40.8237 38.912C40.5997 38.8 40.3557 38.744 40.0917 38.744C39.8357 38.744 39.5917 38.8 39.3597 38.912C39.1357 39.024 38.9397 39.176 38.7717 39.368C38.6037 39.56 38.4677 39.788 38.3637 40.052C38.2677 40.308 38.2197 40.584 38.2197 40.88ZM54.4904 44H53.1704V40.484C53.1704 39.9 53.0744 39.472 52.8824 39.2C52.6904 38.928 52.4104 38.792 52.0424 38.792C51.6664 38.792 51.3224 38.932 51.0104 39.212C50.7064 39.484 50.4864 39.84 50.3504 40.28V44H49.0304V40.484C49.0304 39.892 48.9344 39.464 48.7424 39.2C48.5504 38.928 48.2744 38.792 47.9144 38.792C47.5384 38.792 47.1944 38.928 46.8824 39.2C46.5704 39.472 46.3464 39.828 46.2104 40.268V44H44.8904V37.724H46.0904V38.984C46.3384 38.544 46.6624 38.208 47.0624 37.976C47.4704 37.736 47.9344 37.616 48.4544 37.616C48.9744 37.616 49.3824 37.752 49.6784 38.024C49.9824 38.296 50.1704 38.636 50.2424 39.044C50.5064 38.58 50.8384 38.228 51.2384 37.988C51.6384 37.74 52.0944 37.616 52.6064 37.616C52.9744 37.616 53.2784 37.688 53.5184 37.832C53.7664 37.968 53.9624 38.152 54.1064 38.384C54.2504 38.616 54.3504 38.888 54.4064 39.2C54.4624 39.504 54.4904 39.828 54.4904 40.172V44ZM59.2555 44.12C58.7675 44.12 58.3235 44.036 57.9235 43.868C57.5235 43.692 57.1795 43.456 56.8915 43.16C56.6115 42.864 56.3915 42.52 56.2315 42.128C56.0795 41.736 56.0035 41.32 56.0035 40.88C56.0035 40.44 56.0795 40.024 56.2315 39.632C56.3915 39.232 56.6115 38.884 56.8915 38.588C57.1795 38.284 57.5235 38.048 57.9235 37.88C58.3235 37.704 58.7715 37.616 59.2675 37.616C59.7555 37.616 60.1955 37.704 60.5875 37.88C60.9875 38.056 61.3275 38.292 61.6075 38.588C61.8875 38.876 62.0995 39.216 62.2435 39.608C62.3955 39.992 62.4715 40.396 62.4715 40.82C62.4715 40.916 62.4675 41.008 62.4595 41.096C62.4515 41.176 62.4435 41.244 62.4355 41.3H57.4075C57.4315 41.58 57.4955 41.832 57.5995 42.056C57.7115 42.28 57.8515 42.476 58.0195 42.644C58.1955 42.804 58.3915 42.928 58.6075 43.016C58.8315 43.104 59.0635 43.148 59.3035 43.148C59.4795 43.148 59.6515 43.128 59.8195 43.088C59.9955 43.04 60.1555 42.976 60.2995 42.896C60.4435 42.808 60.5715 42.704 60.6835 42.584C60.7955 42.464 60.8835 42.332 60.9475 42.188L62.0755 42.512C61.8595 42.984 61.4995 43.372 60.9955 43.676C60.4995 43.972 59.9195 44.12 59.2555 44.12ZM61.1635 40.388C61.1395 40.124 61.0715 39.88 60.9595 39.656C60.8555 39.432 60.7195 39.244 60.5515 39.092C60.3835 38.932 60.1875 38.808 59.9635 38.72C59.7395 38.632 59.5035 38.588 59.2555 38.588C59.0075 38.588 58.7715 38.632 58.5475 38.72C58.3315 38.808 58.1395 38.932 57.9715 39.092C57.8035 39.244 57.6675 39.432 57.5635 39.656C57.4595 39.88 57.3955 40.124 57.3715 40.388H61.1635Z" fill="#E9995E"/>
<path d="M45 13.69L50 18.19V26H48V20H42V26H40V18.19L45 13.69ZM45 11L35 20H38V28H44V22H46V28H52V20H55L45 11Z" fill="#E9995E"/>
</svg>
