<svg width="90" height="56" viewBox="0 0 90 56" fill="none" xmlns="http://www.w3.org/2000/svg">
<rect width="90" height="56" fill="white"/>
<path d="M10.0473 39.68C10.0473 39.168 10.1353 38.66 10.3113 38.156C10.4953 37.644 10.7593 37.188 11.1033 36.788C11.4553 36.38 11.8833 36.052 12.3873 35.804C12.8913 35.556 13.4633 35.432 14.1033 35.432C14.8633 35.432 15.5153 35.604 16.0593 35.948C16.6033 36.292 17.0073 36.74 17.2713 37.292L16.4193 37.844C16.2913 37.572 16.1353 37.344 15.9513 37.16C15.7753 36.976 15.5793 36.828 15.3633 36.716C15.1553 36.604 14.9393 36.524 14.7153 36.476C14.4913 36.428 14.2713 36.404 14.0553 36.404C13.5833 36.404 13.1633 36.504 12.7953 36.704C12.4353 36.896 12.1313 37.152 11.8833 37.472C11.6353 37.784 11.4473 38.14 11.3193 38.54C11.1993 38.932 11.1393 39.328 11.1393 39.728C11.1393 40.176 11.2113 40.604 11.3553 41.012C11.5073 41.412 11.7153 41.768 11.9793 42.08C12.2433 42.392 12.5553 42.64 12.9153 42.824C13.2753 43.008 13.6673 43.1 14.0913 43.1C14.3153 43.1 14.5433 43.072 14.7753 43.016C15.0153 42.96 15.2433 42.872 15.4593 42.752C15.6753 42.624 15.8753 42.468 16.0593 42.284C16.2513 42.092 16.4073 41.864 16.5273 41.6L17.4273 42.092C17.2913 42.412 17.0993 42.696 16.8513 42.944C16.6113 43.184 16.3353 43.388 16.0233 43.556C15.7193 43.724 15.3953 43.852 15.0513 43.94C14.7073 44.028 14.3713 44.072 14.0433 44.072C13.4593 44.072 12.9233 43.944 12.4353 43.688C11.9473 43.432 11.5233 43.1 11.1633 42.692C10.8113 42.276 10.5353 41.808 10.3353 41.288C10.1433 40.76 10.0473 40.224 10.0473 39.68ZM21.783 44.12C21.311 44.12 20.879 44.036 20.487 43.868C20.095 43.692 19.759 43.456 19.479 43.16C19.199 42.864 18.979 42.52 18.819 42.128C18.667 41.728 18.591 41.308 18.591 40.868C18.591 40.428 18.667 40.012 18.819 39.62C18.979 39.228 19.199 38.884 19.479 38.588C19.767 38.292 20.107 38.06 20.499 37.892C20.891 37.716 21.323 37.628 21.795 37.628C22.267 37.628 22.695 37.716 23.079 37.892C23.471 38.068 23.803 38.304 24.075 38.6C24.347 38.888 24.555 39.228 24.699 39.62C24.851 40.004 24.927 40.404 24.927 40.82C24.927 40.908 24.923 40.988 24.915 41.06C24.915 41.132 24.911 41.188 24.903 41.228H19.707C19.731 41.54 19.803 41.824 19.923 42.08C20.043 42.336 20.199 42.556 20.391 42.74C20.583 42.924 20.799 43.068 21.039 43.172C21.287 43.276 21.547 43.328 21.819 43.328C22.011 43.328 22.199 43.304 22.383 43.256C22.567 43.2 22.739 43.128 22.899 43.04C23.059 42.952 23.199 42.844 23.319 42.716C23.447 42.588 23.543 42.444 23.607 42.284L24.519 42.536C24.415 42.768 24.271 42.98 24.087 43.172C23.911 43.364 23.703 43.532 23.463 43.676C23.231 43.812 22.971 43.92 22.683 44C22.395 44.08 22.095 44.12 21.783 44.12ZM23.931 40.448C23.907 40.152 23.831 39.88 23.703 39.632C23.583 39.376 23.427 39.16 23.235 38.984C23.051 38.808 22.835 38.672 22.587 38.576C22.339 38.472 22.075 38.42 21.795 38.42C21.515 38.42 21.251 38.472 21.003 38.576C20.755 38.672 20.535 38.812 20.343 38.996C20.159 39.172 20.007 39.384 19.887 39.632C19.775 39.88 19.707 40.152 19.683 40.448H23.931ZM29.8128 38.66C29.2848 38.676 28.8168 38.812 28.4088 39.068C28.0088 39.324 27.7248 39.68 27.5568 40.136V44H26.5008V37.736H27.4848V39.188C27.7008 38.756 27.9848 38.408 28.3368 38.144C28.6888 37.872 29.0648 37.72 29.4648 37.688C29.5448 37.688 29.6128 37.688 29.6688 37.688C29.7248 37.688 29.7728 37.692 29.8128 37.7V38.66ZM34.5002 43.688C34.4362 43.72 34.3522 43.76 34.2482 43.808C34.1442 43.848 34.0242 43.892 33.8882 43.94C33.7602 43.98 33.6162 44.012 33.4562 44.036C33.3042 44.068 33.1442 44.084 32.9762 44.084C32.5922 44.084 32.2602 43.98 31.9802 43.772C31.7002 43.556 31.5602 43.224 31.5602 42.776V38.564H30.7082V37.736H31.5602V35.648H32.6162V37.736H34.0202V38.564H32.6162V42.452C32.6322 42.684 32.7082 42.852 32.8442 42.956C32.9802 43.06 33.1402 43.112 33.3242 43.112C33.5322 43.112 33.7202 43.08 33.8882 43.016C34.0642 42.944 34.1842 42.888 34.2482 42.848L34.5002 43.688ZM35.879 44V37.736H36.935V44H35.879ZM35.879 36.56V35.24H36.935V36.56H35.879ZM39.3806 44V38.564H38.5286V37.736H39.3806V37.604C39.3806 36.828 39.5526 36.22 39.8966 35.78C40.2406 35.34 40.7086 35.12 41.3006 35.12C41.5486 35.12 41.7926 35.156 42.0326 35.228C42.2726 35.292 42.4886 35.384 42.6806 35.504L42.4166 36.284C42.3046 36.204 42.1646 36.14 41.9966 36.092C41.8366 36.044 41.6766 36.02 41.5166 36.02C41.1646 36.02 40.8966 36.152 40.7126 36.416C40.5286 36.68 40.4366 37.064 40.4366 37.568V37.736H42.1046V38.564H40.4366V44H39.3806ZM43.5579 44V37.736H44.6139V44H43.5579ZM43.5579 36.56V35.24H44.6139V36.56H43.5579ZM46.3035 40.856C46.3035 40.416 46.3795 40 46.5315 39.608C46.6835 39.216 46.8995 38.876 47.1795 38.588C47.4595 38.292 47.7915 38.06 48.1755 37.892C48.5675 37.716 49.0035 37.628 49.4835 37.628C50.1075 37.628 50.6435 37.768 51.0915 38.048C51.5475 38.32 51.8915 38.688 52.1235 39.152L51.0915 39.476C50.9315 39.18 50.7075 38.952 50.4195 38.792C50.1315 38.624 49.8115 38.54 49.4595 38.54C49.1715 38.54 48.8995 38.6 48.6435 38.72C48.3875 38.832 48.1675 38.992 47.9835 39.2C47.7995 39.408 47.6515 39.652 47.5395 39.932C47.4355 40.212 47.3835 40.52 47.3835 40.856C47.3835 41.184 47.4395 41.492 47.5515 41.78C47.6635 42.068 47.8115 42.32 47.9955 42.536C48.1875 42.744 48.4075 42.908 48.6555 43.028C48.9115 43.148 49.1835 43.208 49.4715 43.208C49.6555 43.208 49.8355 43.184 50.0115 43.136C50.1955 43.08 50.3595 43.008 50.5035 42.92C50.6555 42.832 50.7875 42.732 50.8995 42.62C51.0115 42.5 51.0915 42.372 51.1395 42.236L52.1715 42.548C52.0755 42.78 51.9395 42.992 51.7635 43.184C51.5955 43.376 51.3955 43.54 51.1635 43.676C50.9315 43.812 50.6715 43.92 50.3835 44C50.1035 44.08 49.8075 44.12 49.4955 44.12C49.0235 44.12 48.5915 44.032 48.1995 43.856C47.8075 43.68 47.4715 43.444 47.1915 43.148C46.9115 42.852 46.6915 42.508 46.5315 42.116C46.3795 41.716 46.3035 41.296 46.3035 40.856ZM55.376 44.12C55.08 44.12 54.804 44.072 54.548 43.976C54.292 43.872 54.068 43.732 53.876 43.556C53.692 43.38 53.544 43.176 53.432 42.944C53.328 42.704 53.276 42.444 53.276 42.164C53.276 41.876 53.34 41.616 53.468 41.384C53.596 41.144 53.776 40.94 54.008 40.772C54.248 40.604 54.528 40.472 54.848 40.376C55.176 40.28 55.532 40.232 55.916 40.232C56.22 40.232 56.528 40.26 56.84 40.316C57.152 40.372 57.428 40.448 57.668 40.544V40.04C57.668 39.528 57.524 39.128 57.236 38.84C56.948 38.544 56.54 38.396 56.012 38.396C55.38 38.396 54.716 38.64 54.02 39.128L53.672 38.444C54.48 37.9 55.292 37.628 56.108 37.628C56.932 37.628 57.572 37.848 58.028 38.288C58.492 38.728 58.724 39.348 58.724 40.148V42.704C58.724 42.952 58.836 43.08 59.06 43.088V44C58.948 44.016 58.856 44.028 58.784 44.036C58.712 44.044 58.636 44.048 58.556 44.048C58.348 44.048 58.18 43.988 58.052 43.868C57.932 43.74 57.86 43.588 57.836 43.412L57.812 42.968C57.532 43.344 57.176 43.632 56.744 43.832C56.32 44.024 55.864 44.12 55.376 44.12ZM55.652 43.328C56.028 43.328 56.376 43.26 56.696 43.124C57.024 42.98 57.272 42.792 57.44 42.56C57.592 42.408 57.668 42.252 57.668 42.092V41.168C57.156 40.968 56.624 40.868 56.072 40.868C55.544 40.868 55.112 40.98 54.776 41.204C54.448 41.428 54.284 41.72 54.284 42.08C54.284 42.256 54.316 42.42 54.38 42.572C54.452 42.724 54.548 42.856 54.668 42.968C54.796 43.08 54.944 43.168 55.112 43.232C55.28 43.296 55.46 43.328 55.652 43.328ZM63.3925 44.12C62.9605 44.12 62.5605 44.032 62.1925 43.856C61.8245 43.68 61.5085 43.444 61.2445 43.148C60.9805 42.852 60.7725 42.508 60.6205 42.116C60.4765 41.724 60.4045 41.312 60.4045 40.88C60.4045 40.44 60.4725 40.024 60.6085 39.632C60.7525 39.232 60.9485 38.884 61.1965 38.588C61.4525 38.292 61.7525 38.06 62.0965 37.892C62.4485 37.716 62.8325 37.628 63.2485 37.628C63.7525 37.628 64.2005 37.76 64.5925 38.024C64.9925 38.288 65.3085 38.608 65.5405 38.984V35.24H66.5965V42.704C66.5965 42.952 66.7085 43.08 66.9325 43.088V44C66.8205 44.016 66.7285 44.028 66.6565 44.036C66.5925 44.044 66.5285 44.048 66.4645 44.048C66.2565 44.048 66.0725 43.98 65.9125 43.844C65.7605 43.7 65.6845 43.536 65.6845 43.352V42.824C65.4365 43.232 65.1045 43.552 64.6885 43.784C64.2805 44.008 63.8485 44.12 63.3925 44.12ZM63.6445 43.208C63.8365 43.208 64.0325 43.172 64.2325 43.1C64.4405 43.028 64.6325 42.928 64.8085 42.8C64.9925 42.672 65.1485 42.524 65.2765 42.356C65.4125 42.18 65.5005 41.996 65.5405 41.804V40.004C65.4685 39.804 65.3605 39.616 65.2165 39.44C65.0725 39.256 64.9085 39.1 64.7245 38.972C64.5485 38.836 64.3565 38.732 64.1485 38.66C63.9485 38.58 63.7485 38.54 63.5485 38.54C63.2365 38.54 62.9525 38.608 62.6965 38.744C62.4485 38.872 62.2325 39.048 62.0485 39.272C61.8725 39.488 61.7365 39.74 61.6405 40.028C61.5445 40.308 61.4965 40.596 61.4965 40.892C61.4965 41.204 61.5525 41.504 61.6645 41.792C61.7765 42.072 61.9285 42.316 62.1205 42.524C62.3125 42.732 62.5365 42.9 62.7925 43.028C63.0565 43.148 63.3405 43.208 63.6445 43.208ZM71.4954 44.12C71.0234 44.12 70.5914 44.032 70.1994 43.856C69.8154 43.68 69.4834 43.444 69.2034 43.148C68.9314 42.852 68.7194 42.508 68.5674 42.116C68.4154 41.724 68.3394 41.312 68.3394 40.88C68.3394 40.44 68.4154 40.024 68.5674 39.632C68.7274 39.24 68.9434 38.896 69.2154 38.6C69.4954 38.304 69.8274 38.068 70.2114 37.892C70.6034 37.716 71.0314 37.628 71.4954 37.628C71.9594 37.628 72.3874 37.716 72.7794 37.892C73.1714 38.068 73.5034 38.304 73.7754 38.6C74.0554 38.896 74.2714 39.24 74.4234 39.632C74.5834 40.024 74.6634 40.44 74.6634 40.88C74.6634 41.312 74.5874 41.724 74.4354 42.116C74.2834 42.508 74.0674 42.852 73.7874 43.148C73.5074 43.444 73.1714 43.68 72.7794 43.856C72.3954 44.032 71.9674 44.12 71.4954 44.12ZM69.4194 40.892C69.4194 41.22 69.4714 41.524 69.5754 41.804C69.6874 42.084 69.8354 42.328 70.0194 42.536C70.2114 42.744 70.4314 42.908 70.6794 43.028C70.9354 43.148 71.2074 43.208 71.4954 43.208C71.7834 43.208 72.0514 43.148 72.2994 43.028C72.5554 42.908 72.7794 42.744 72.9714 42.536C73.1634 42.32 73.3114 42.072 73.4154 41.792C73.5274 41.504 73.5834 41.196 73.5834 40.868C73.5834 40.548 73.5274 40.248 73.4154 39.968C73.3114 39.68 73.1634 39.432 72.9714 39.224C72.7794 39.008 72.5554 38.84 72.2994 38.72C72.0514 38.6 71.7834 38.54 71.4954 38.54C71.2074 38.54 70.9354 38.604 70.6794 38.732C70.4314 38.852 70.2114 39.02 70.0194 39.236C69.8354 39.444 69.6874 39.692 69.5754 39.98C69.4714 40.26 69.4194 40.564 69.4194 40.892ZM78.539 44.12C78.035 44.12 77.539 44.044 77.051 43.892C76.563 43.732 76.143 43.504 75.791 43.208L76.247 42.5C76.615 42.78 76.983 42.992 77.351 43.136C77.719 43.272 78.107 43.34 78.515 43.34C78.971 43.34 79.331 43.252 79.595 43.076C79.867 42.892 80.003 42.636 80.003 42.308C80.003 42.156 79.967 42.028 79.895 41.924C79.823 41.812 79.715 41.716 79.571 41.636C79.427 41.556 79.243 41.484 79.019 41.42C78.795 41.356 78.535 41.288 78.239 41.216C77.863 41.12 77.539 41.028 77.267 40.94C76.995 40.852 76.771 40.748 76.595 40.628C76.419 40.508 76.291 40.364 76.211 40.196C76.131 40.028 76.091 39.82 76.091 39.572C76.091 39.26 76.151 38.984 76.271 38.744C76.399 38.496 76.571 38.292 76.787 38.132C77.003 37.964 77.255 37.84 77.543 37.76C77.839 37.672 78.155 37.628 78.491 37.628C78.963 37.628 79.403 37.704 79.811 37.856C80.219 38.008 80.563 38.208 80.843 38.456L80.363 39.092C80.099 38.86 79.803 38.688 79.475 38.576C79.147 38.456 78.811 38.396 78.467 38.396C78.083 38.396 77.755 38.48 77.483 38.648C77.219 38.808 77.087 39.068 77.087 39.428C77.087 39.572 77.111 39.692 77.159 39.788C77.215 39.884 77.303 39.968 77.423 40.04C77.543 40.112 77.695 40.176 77.879 40.232C78.071 40.288 78.299 40.348 78.563 40.412C78.979 40.508 79.339 40.608 79.643 40.712C79.955 40.808 80.211 40.924 80.411 41.06C80.619 41.196 80.771 41.356 80.867 41.54C80.971 41.724 81.023 41.948 81.023 42.212C81.023 42.796 80.799 43.26 80.351 43.604C79.903 43.948 79.299 44.12 78.539 44.12Z" fill="#F8E3D3"/>
<path d="M41 12H49V10H41V12ZM38 25V15H36V25H38ZM52 15V19.5H54V15H52ZM47 28H41V30H47V28ZM36 25C36 27.7614 38.2386 30 41 30V28C39.3431 28 38 26.6569 38 25H36ZM49 12C50.6569 12 52 13.3431 52 15H54C54 12.2386 51.7614 10 49 10V12ZM41 10C38.2386 10 36 12.2386 36 15H38C38 13.3431 39.3431 12 41 12V10Z" fill="#F8E3D3"/>
<rect x="41.5" y="15.5" width="7" height="1" fill="#F8E3D3" stroke="#F8E3D3"/>
<rect x="41.5" y="19.5" width="4" height="1" fill="#F8E3D3" stroke="#F8E3D3"/>
<path d="M48.5 29.1169L48.5 26.059L49.1708 26.3944C49.3097 26.4639 49.4628 26.5 49.618 26.5H50.5H51.382C51.5372 26.5 51.6903 26.4639 51.8292 26.3944L52.5 26.059V29.1169L51.0145 28.2256C50.6978 28.0356 50.3022 28.0356 49.9855 28.2256L48.5 29.1169Z" stroke="#F8E3D3"/>
<circle cx="50.5" cy="23.5" r="3" stroke="#F8E3D3"/>
</svg>
