<svg width="90" height="56" viewBox="0 0 90 56" fill="none" xmlns="http://www.w3.org/2000/svg">
<rect width="90" height="56" fill="white"/>
<path d="M9.41336 39.68C9.41336 39.168 9.50536 38.66 9.68936 38.156C9.87336 37.644 10.1414 37.188 10.4934 36.788C10.8534 36.38 11.2894 36.052 11.8014 35.804C12.3134 35.556 12.8934 35.432 13.5414 35.432C14.3174 35.432 14.9814 35.604 15.5334 35.948C16.0854 36.292 16.5014 36.74 16.7814 37.292L15.7254 38C15.6054 37.744 15.4614 37.528 15.2934 37.352C15.1254 37.176 14.9414 37.036 14.7414 36.932C14.5414 36.828 14.3334 36.756 14.1174 36.716C13.9014 36.668 13.6934 36.644 13.4934 36.644C13.0454 36.644 12.6534 36.736 12.3174 36.92C11.9814 37.096 11.6974 37.332 11.4654 37.628C11.2414 37.924 11.0694 38.256 10.9494 38.624C10.8374 38.992 10.7814 39.36 10.7814 39.728C10.7814 40.144 10.8494 40.54 10.9854 40.916C11.1214 41.292 11.3094 41.624 11.5494 41.912C11.7974 42.2 12.0894 42.432 12.4254 42.608C12.7614 42.776 13.1294 42.86 13.5294 42.86C13.7374 42.86 13.9494 42.836 14.1654 42.788C14.3894 42.732 14.6014 42.648 14.8014 42.536C15.0094 42.416 15.1974 42.268 15.3654 42.092C15.5414 41.916 15.6854 41.704 15.7974 41.456L16.9134 42.092C16.7774 42.412 16.5854 42.696 16.3374 42.944C16.0894 43.184 15.8094 43.388 15.4974 43.556C15.1854 43.724 14.8534 43.852 14.5014 43.94C14.1574 44.028 13.8174 44.072 13.4814 44.072C12.8814 44.072 12.3334 43.944 11.8374 43.688C11.3414 43.432 10.9134 43.1 10.5534 42.692C10.1934 42.276 9.91336 41.808 9.71336 41.288C9.51336 40.76 9.41336 40.224 9.41336 39.68ZM21.2325 44.12C20.7445 44.12 20.3005 44.036 19.9005 43.868C19.5005 43.692 19.1565 43.456 18.8685 43.16C18.5885 42.864 18.3685 42.52 18.2085 42.128C18.0565 41.736 17.9805 41.32 17.9805 40.88C17.9805 40.44 18.0565 40.024 18.2085 39.632C18.3685 39.232 18.5885 38.884 18.8685 38.588C19.1565 38.284 19.5005 38.048 19.9005 37.88C20.3005 37.704 20.7485 37.616 21.2445 37.616C21.7325 37.616 22.1725 37.704 22.5645 37.88C22.9645 38.056 23.3045 38.292 23.5845 38.588C23.8645 38.876 24.0765 39.216 24.2205 39.608C24.3725 39.992 24.4485 40.396 24.4485 40.82C24.4485 40.916 24.4445 41.008 24.4365 41.096C24.4285 41.176 24.4205 41.244 24.4125 41.3H19.3845C19.4085 41.58 19.4725 41.832 19.5765 42.056C19.6885 42.28 19.8285 42.476 19.9965 42.644C20.1725 42.804 20.3685 42.928 20.5845 43.016C20.8085 43.104 21.0405 43.148 21.2805 43.148C21.4565 43.148 21.6285 43.128 21.7965 43.088C21.9725 43.04 22.1325 42.976 22.2765 42.896C22.4205 42.808 22.5485 42.704 22.6605 42.584C22.7725 42.464 22.8605 42.332 22.9245 42.188L24.0525 42.512C23.8365 42.984 23.4765 43.372 22.9725 43.676C22.4765 43.972 21.8965 44.12 21.2325 44.12ZM23.1405 40.388C23.1165 40.124 23.0485 39.88 22.9365 39.656C22.8325 39.432 22.6965 39.244 22.5285 39.092C22.3605 38.932 22.1645 38.808 21.9405 38.72C21.7165 38.632 21.4805 38.588 21.2325 38.588C20.9845 38.588 20.7485 38.632 20.5245 38.72C20.3085 38.808 20.1165 38.932 19.9485 39.092C19.7805 39.244 19.6445 39.432 19.5405 39.656C19.4365 39.88 19.3725 40.124 19.3485 40.388H23.1405ZM29.4532 38.864C28.9412 38.88 28.4852 39 28.0852 39.224C27.6932 39.44 27.4132 39.752 27.2452 40.16V44H25.9252V37.724H27.1492V39.128C27.3652 38.696 27.6452 38.352 27.9892 38.096C28.3412 37.832 28.7172 37.688 29.1172 37.664C29.1972 37.664 29.2612 37.664 29.3092 37.664C29.3652 37.664 29.4132 37.668 29.4532 37.676V38.864ZM34.3055 43.676C34.1375 43.756 33.9055 43.848 33.6095 43.952C33.3135 44.048 32.9975 44.096 32.6615 44.096C32.4535 44.096 32.2575 44.068 32.0735 44.012C31.8895 43.956 31.7255 43.872 31.5815 43.76C31.4455 43.648 31.3375 43.504 31.2575 43.328C31.1775 43.144 31.1375 42.924 31.1375 42.668V38.744H30.3095V37.724H31.1375V35.66H32.4575V37.724H33.8255V38.744H32.4575V42.248C32.4735 42.472 32.5415 42.636 32.6615 42.74C32.7895 42.836 32.9455 42.884 33.1295 42.884C33.3135 42.884 33.4895 42.852 33.6575 42.788C33.8255 42.724 33.9495 42.672 34.0295 42.632L34.3055 43.676ZM35.6197 44V37.724H36.9397V44H35.6197ZM35.6197 36.692V35.24H36.9397V36.692H35.6197ZM39.286 44V38.9H38.446V37.88H39.286V37.628C39.286 36.852 39.466 36.24 39.826 35.792C40.186 35.344 40.674 35.12 41.29 35.12C41.546 35.12 41.798 35.156 42.046 35.228C42.294 35.292 42.53 35.384 42.754 35.504L42.466 36.488C42.346 36.416 42.202 36.356 42.034 36.308C41.874 36.26 41.718 36.236 41.566 36.236C41.254 36.236 41.014 36.352 40.846 36.584C40.686 36.816 40.606 37.152 40.606 37.592V37.88H42.214V38.9H40.606V44H39.286ZM43.6033 44V37.724H44.9233V44H43.6033ZM43.6033 36.692V35.24H44.9233V36.692H43.6033ZM46.5016 40.856C46.5016 40.416 46.5776 40 46.7296 39.608C46.8816 39.216 47.0976 38.872 47.3776 38.576C47.6656 38.28 48.0096 38.048 48.4096 37.88C48.8096 37.704 49.2576 37.616 49.7536 37.616C50.4016 37.616 50.9576 37.76 51.4216 38.048C51.8936 38.328 52.2456 38.704 52.4776 39.176L51.1936 39.584C51.0416 39.32 50.8376 39.116 50.5816 38.972C50.3256 38.82 50.0416 38.744 49.7296 38.744C49.4656 38.744 49.2176 38.796 48.9856 38.9C48.7616 39.004 48.5656 39.152 48.3976 39.344C48.2296 39.528 48.0976 39.748 48.0016 40.004C47.9056 40.26 47.8576 40.544 47.8576 40.856C47.8576 41.16 47.9056 41.444 48.0016 41.708C48.1056 41.964 48.2416 42.188 48.4096 42.38C48.5856 42.572 48.7856 42.724 49.0096 42.836C49.2416 42.94 49.4856 42.992 49.7416 42.992C49.9016 42.992 50.0616 42.972 50.2216 42.932C50.3816 42.884 50.5256 42.82 50.6536 42.74C50.7896 42.66 50.9056 42.568 51.0016 42.464C51.1056 42.36 51.1816 42.248 51.2296 42.128L52.5256 42.512C52.3176 42.984 51.9696 43.372 51.4816 43.676C50.9936 43.972 50.4176 44.12 49.7536 44.12C49.2656 44.12 48.8216 44.032 48.4216 43.856C48.0216 43.68 47.6776 43.444 47.3896 43.148C47.1096 42.844 46.8896 42.496 46.7296 42.104C46.5776 41.712 46.5016 41.296 46.5016 40.856ZM55.6807 44.12C55.3767 44.12 55.0927 44.072 54.8287 43.976C54.5727 43.872 54.3487 43.732 54.1567 43.556C53.9727 43.38 53.8247 43.172 53.7127 42.932C53.6087 42.692 53.5567 42.432 53.5567 42.152C53.5567 41.856 53.6207 41.588 53.7487 41.348C53.8767 41.108 54.0567 40.9 54.2887 40.724C54.5287 40.548 54.8087 40.412 55.1287 40.316C55.4567 40.22 55.8167 40.172 56.2087 40.172C56.5047 40.172 56.7967 40.2 57.0847 40.256C57.3727 40.304 57.6327 40.372 57.8647 40.46V40.028C57.8647 39.564 57.7327 39.204 57.4687 38.948C57.2047 38.684 56.8247 38.552 56.3287 38.552C55.9927 38.552 55.6607 38.616 55.3327 38.744C55.0127 38.864 54.6807 39.04 54.3367 39.272L53.9287 38.432C54.7367 37.888 55.5767 37.616 56.4487 37.616C57.3127 37.616 57.9847 37.836 58.4647 38.276C58.9447 38.716 59.1847 39.348 59.1847 40.172V42.44C59.1847 42.72 59.3007 42.864 59.5327 42.872V44C59.4047 44.024 59.2927 44.04 59.1967 44.048C59.1087 44.056 59.0207 44.06 58.9327 44.06C58.6767 44.06 58.4767 43.996 58.3327 43.868C58.1967 43.74 58.1127 43.576 58.0807 43.376L58.0447 42.98C57.7647 43.348 57.4167 43.632 57.0007 43.832C56.5927 44.024 56.1527 44.12 55.6807 44.12ZM56.0407 43.148C56.3607 43.148 56.6607 43.092 56.9407 42.98C57.2287 42.86 57.4527 42.696 57.6127 42.488C57.7807 42.344 57.8647 42.192 57.8647 42.032V41.204C57.6407 41.116 57.4007 41.048 57.1447 41C56.8967 40.952 56.6527 40.928 56.4127 40.928C55.9407 40.928 55.5527 41.032 55.2487 41.24C54.9527 41.44 54.8047 41.708 54.8047 42.044C54.8047 42.356 54.9207 42.62 55.1527 42.836C55.3847 43.044 55.6807 43.148 56.0407 43.148ZM63.7421 44.12C63.3181 44.12 62.9261 44.036 62.5661 43.868C62.2061 43.692 61.8941 43.456 61.6301 43.16C61.3661 42.864 61.1581 42.52 61.0061 42.128C60.8621 41.728 60.7901 41.3 60.7901 40.844C60.7901 40.404 60.8581 39.992 60.9941 39.608C61.1381 39.216 61.3341 38.872 61.5821 38.576C61.8381 38.28 62.1341 38.048 62.4701 37.88C62.8141 37.704 63.1901 37.616 63.5981 37.616C64.1021 37.616 64.5461 37.74 64.9301 37.988C65.3141 38.228 65.6141 38.536 65.8301 38.912V35.24H67.1501V42.44C67.1501 42.592 67.1741 42.7 67.2221 42.764C67.2781 42.828 67.3741 42.864 67.5101 42.872V44C67.3741 44.024 67.2621 44.04 67.1741 44.048C67.0941 44.056 67.0261 44.06 66.9701 44.06C66.7061 44.06 66.4901 43.992 66.3221 43.856C66.1541 43.72 66.0621 43.544 66.0461 43.328L66.0221 42.86C65.7901 43.252 65.4741 43.56 65.0741 43.784C64.6741 44.008 64.2301 44.12 63.7421 44.12ZM64.0661 42.992C64.2581 42.992 64.4501 42.96 64.6421 42.896C64.8341 42.832 65.0101 42.744 65.1701 42.632C65.3301 42.52 65.4661 42.388 65.5781 42.236C65.6981 42.084 65.7821 41.92 65.8301 41.744V40.1C65.7581 39.9 65.6541 39.716 65.5181 39.548C65.3901 39.38 65.2421 39.236 65.0741 39.116C64.9061 38.996 64.7261 38.904 64.5341 38.84C64.3501 38.776 64.1621 38.744 63.9701 38.744C63.7061 38.744 63.4621 38.804 63.2381 38.924C63.0221 39.044 62.8341 39.204 62.6741 39.404C62.5141 39.604 62.3861 39.832 62.2901 40.088C62.2021 40.344 62.1581 40.608 62.1581 40.88C62.1581 41.168 62.2061 41.44 62.3021 41.696C62.4061 41.952 62.5461 42.176 62.7221 42.368C62.8981 42.56 63.0981 42.712 63.3221 42.824C63.5541 42.936 63.8021 42.992 64.0661 42.992ZM72.0468 44.12C71.5508 44.12 71.1028 44.032 70.7028 43.856C70.3108 43.68 69.9748 43.444 69.6948 43.148C69.4148 42.852 69.1988 42.508 69.0468 42.116C68.8948 41.716 68.8188 41.3 68.8188 40.868C68.8188 40.436 68.8948 40.024 69.0468 39.632C69.1988 39.232 69.4148 38.884 69.6948 38.588C69.9828 38.292 70.3228 38.056 70.7148 37.88C71.1148 37.704 71.5588 37.616 72.0468 37.616C72.5348 37.616 72.9748 37.704 73.3668 37.88C73.7668 38.056 74.1068 38.292 74.3868 38.588C74.6748 38.884 74.8948 39.232 75.0468 39.632C75.1988 40.024 75.2748 40.436 75.2748 40.868C75.2748 41.3 75.1988 41.716 75.0468 42.116C74.8948 42.508 74.6748 42.852 74.3868 43.148C74.1068 43.444 73.7668 43.68 73.3668 43.856C72.9748 44.032 72.5348 44.12 72.0468 44.12ZM70.1748 40.88C70.1748 41.184 70.2228 41.464 70.3188 41.72C70.4148 41.976 70.5468 42.2 70.7148 42.392C70.8828 42.576 71.0788 42.724 71.3028 42.836C71.5348 42.94 71.7828 42.992 72.0468 42.992C72.3108 42.992 72.5548 42.94 72.7788 42.836C73.0108 42.724 73.2108 42.572 73.3788 42.38C73.5468 42.188 73.6788 41.964 73.7748 41.708C73.8708 41.452 73.9188 41.172 73.9188 40.868C73.9188 40.572 73.8708 40.296 73.7748 40.04C73.6788 39.776 73.5468 39.548 73.3788 39.356C73.2108 39.164 73.0108 39.016 72.7788 38.912C72.5548 38.8 72.3108 38.744 72.0468 38.744C71.7908 38.744 71.5468 38.8 71.3148 38.912C71.0908 39.024 70.8948 39.176 70.7268 39.368C70.5588 39.56 70.4228 39.788 70.3188 40.052C70.2228 40.308 70.1748 40.584 70.1748 40.88ZM79.1255 44.12C78.6215 44.12 78.1175 44.04 77.6135 43.88C77.1175 43.712 76.6895 43.476 76.3295 43.172L76.8575 42.332C77.2335 42.604 77.6055 42.812 77.9735 42.956C78.3415 43.092 78.7175 43.16 79.1015 43.16C79.4935 43.16 79.8015 43.084 80.0255 42.932C80.2575 42.78 80.3735 42.564 80.3735 42.284C80.3735 42.02 80.2455 41.828 79.9895 41.708C79.7335 41.588 79.3335 41.456 78.7895 41.312C78.3975 41.208 78.0615 41.108 77.7815 41.012C77.5015 40.916 77.2735 40.804 77.0975 40.676C76.9215 40.548 76.7935 40.4 76.7135 40.232C76.6335 40.064 76.5935 39.86 76.5935 39.62C76.5935 39.3 76.6535 39.016 76.7735 38.768C76.9015 38.52 77.0735 38.312 77.2895 38.144C77.5135 37.968 77.7735 37.836 78.0695 37.748C78.3655 37.66 78.6855 37.616 79.0295 37.616C79.5015 37.616 79.9415 37.688 80.3495 37.832C80.7575 37.976 81.1215 38.184 81.4415 38.456L80.8775 39.248C80.2935 38.784 79.6735 38.552 79.0175 38.552C78.6815 38.552 78.3975 38.624 78.1655 38.768C77.9415 38.904 77.8295 39.124 77.8295 39.428C77.8295 39.556 77.8535 39.664 77.9015 39.752C77.9495 39.84 78.0255 39.916 78.1295 39.98C78.2415 40.044 78.3815 40.104 78.5495 40.16C78.7255 40.208 78.9415 40.264 79.1975 40.328C79.6215 40.432 79.9855 40.536 80.2895 40.64C80.6015 40.744 80.8575 40.868 81.0575 41.012C81.2575 41.148 81.4055 41.312 81.5015 41.504C81.5975 41.688 81.6455 41.912 81.6455 42.176C81.6455 42.776 81.4175 43.252 80.9615 43.604C80.5135 43.948 79.9015 44.12 79.1255 44.12Z" fill="#E9995E"/>
<path d="M41 12H49V10H41V12ZM38 25V15H36V25H38ZM52 15V19.5H54V15H52ZM47 28H41V30H47V28ZM36 25C36 27.7614 38.2386 30 41 30V28C39.3431 28 38 26.6569 38 25H36ZM49 12C50.6569 12 52 13.3431 52 15H54C54 12.2386 51.7614 10 49 10V12ZM41 10C38.2386 10 36 12.2386 36 15H38C38 13.3431 39.3431 12 41 12V10Z" fill="#E9995E"/>
<rect x="41.5" y="15.5" width="7" height="1" fill="#E9995E" stroke="#E9995E"/>
<rect x="41.5" y="19.5" width="4" height="1" fill="#E9995E" stroke="#E9995E"/>
<path d="M48.5 29.1169L48.5 26.059L49.1708 26.3944C49.3097 26.4639 49.4628 26.5 49.618 26.5H50.5H51.382C51.5372 26.5 51.6903 26.4639 51.8292 26.3944L52.5 26.059V29.1169L51.0145 28.2256C50.6978 28.0356 50.3022 28.0356 49.9855 28.2256L48.5 29.1169Z" stroke="#E9995E"/>
<circle cx="50.5" cy="23.5" r="3" stroke="#E9995E"/>
</svg>
