<svg width="90" height="56" viewBox="0 0 90 56" fill="none" xmlns="http://www.w3.org/2000/svg">
<rect width="90" height="56" fill="white"/>
<path d="M19.2936 44V35.48H24.9696V36.668H20.6376V39.212H24.2616V40.328H20.6376V44H19.2936ZM27.1233 44.12C26.8193 44.12 26.5353 44.072 26.2713 43.976C26.0153 43.872 25.7913 43.732 25.5993 43.556C25.4153 43.38 25.2673 43.172 25.1553 42.932C25.0513 42.692 24.9993 42.432 24.9993 42.152C24.9993 41.856 25.0633 41.588 25.1913 41.348C25.3193 41.108 25.4993 40.9 25.7313 40.724C25.9713 40.548 26.2513 40.412 26.5713 40.316C26.8993 40.22 27.2593 40.172 27.6513 40.172C27.9473 40.172 28.2393 40.2 28.5273 40.256C28.8153 40.304 29.0753 40.372 29.3073 40.46V40.028C29.3073 39.564 29.1753 39.204 28.9113 38.948C28.6473 38.684 28.2673 38.552 27.7713 38.552C27.4353 38.552 27.1033 38.616 26.7753 38.744C26.4553 38.864 26.1233 39.04 25.7793 39.272L25.3713 38.432C26.1793 37.888 27.0193 37.616 27.8913 37.616C28.7553 37.616 29.4273 37.836 29.9073 38.276C30.3873 38.716 30.6273 39.348 30.6273 40.172V42.44C30.6273 42.72 30.7433 42.864 30.9753 42.872V44C30.8473 44.024 30.7353 44.04 30.6393 44.048C30.5513 44.056 30.4633 44.06 30.3753 44.06C30.1193 44.06 29.9193 43.996 29.7753 43.868C29.6393 43.74 29.5553 43.576 29.5233 43.376L29.4873 42.98C29.2073 43.348 28.8593 43.632 28.4433 43.832C28.0353 44.024 27.5953 44.12 27.1233 44.12ZM27.4833 43.148C27.8033 43.148 28.1033 43.092 28.3833 42.98C28.6713 42.86 28.8953 42.696 29.0553 42.488C29.2233 42.344 29.3073 42.192 29.3073 42.032V41.204C29.0833 41.116 28.8433 41.048 28.5873 41C28.3393 40.952 28.0953 40.928 27.8553 40.928C27.3833 40.928 26.9953 41.032 26.6913 41.24C26.3953 41.44 26.2473 41.708 26.2473 42.044C26.2473 42.356 26.3633 42.62 26.5953 42.836C26.8273 43.044 27.1233 43.148 27.4833 43.148ZM34.2287 44L31.8287 37.724H33.1847L34.9847 42.884L36.7967 37.724H38.0447L35.6447 44H34.2287ZM41.9893 44.12C41.4933 44.12 41.0453 44.032 40.6453 43.856C40.2533 43.68 39.9173 43.444 39.6373 43.148C39.3573 42.852 39.1413 42.508 38.9893 42.116C38.8373 41.716 38.7613 41.3 38.7613 40.868C38.7613 40.436 38.8373 40.024 38.9893 39.632C39.1413 39.232 39.3573 38.884 39.6373 38.588C39.9253 38.292 40.2653 38.056 40.6573 37.88C41.0573 37.704 41.5013 37.616 41.9893 37.616C42.4773 37.616 42.9173 37.704 43.3093 37.88C43.7093 38.056 44.0493 38.292 44.3293 38.588C44.6173 38.884 44.8373 39.232 44.9893 39.632C45.1413 40.024 45.2173 40.436 45.2173 40.868C45.2173 41.3 45.1413 41.716 44.9893 42.116C44.8373 42.508 44.6173 42.852 44.3293 43.148C44.0493 43.444 43.7093 43.68 43.3093 43.856C42.9173 44.032 42.4773 44.12 41.9893 44.12ZM40.1173 40.88C40.1173 41.184 40.1653 41.464 40.2613 41.72C40.3573 41.976 40.4893 42.2 40.6573 42.392C40.8253 42.576 41.0213 42.724 41.2453 42.836C41.4773 42.94 41.7253 42.992 41.9893 42.992C42.2533 42.992 42.4973 42.94 42.7213 42.836C42.9533 42.724 43.1533 42.572 43.3213 42.38C43.4893 42.188 43.6213 41.964 43.7173 41.708C43.8133 41.452 43.8613 41.172 43.8613 40.868C43.8613 40.572 43.8133 40.296 43.7173 40.04C43.6213 39.776 43.4893 39.548 43.3213 39.356C43.1533 39.164 42.9533 39.016 42.7213 38.912C42.4973 38.8 42.2533 38.744 41.9893 38.744C41.7333 38.744 41.4893 38.8 41.2573 38.912C41.0333 39.024 40.8373 39.176 40.6693 39.368C40.5013 39.56 40.3653 39.788 40.2613 40.052C40.1653 40.308 40.1173 40.584 40.1173 40.88ZM50.3161 38.864C49.8041 38.88 49.3481 39 48.9481 39.224C48.5561 39.44 48.2761 39.752 48.1081 40.16V44H46.7881V37.724H48.0121V39.128C48.2281 38.696 48.5081 38.352 48.8521 38.096C49.2041 37.832 49.5801 37.688 49.9801 37.664C50.0601 37.664 50.1241 37.664 50.1721 37.664C50.2281 37.664 50.2761 37.668 50.3161 37.676V38.864ZM51.6764 44V37.724H52.9964V44H51.6764ZM51.6764 36.692V35.24H52.9964V36.692H51.6764ZM58.4746 43.676C58.3066 43.756 58.0746 43.848 57.7786 43.952C57.4826 44.048 57.1666 44.096 56.8306 44.096C56.6226 44.096 56.4266 44.068 56.2426 44.012C56.0586 43.956 55.8946 43.872 55.7506 43.76C55.6146 43.648 55.5066 43.504 55.4266 43.328C55.3466 43.144 55.3066 42.924 55.3066 42.668V38.744H54.4786V37.724H55.3066V35.66H56.6266V37.724H57.9946V38.744H56.6266V42.248C56.6426 42.472 56.7106 42.636 56.8306 42.74C56.9586 42.836 57.1146 42.884 57.2986 42.884C57.4826 42.884 57.6586 42.852 57.8266 42.788C57.9946 42.724 58.1186 42.672 58.1986 42.632L58.4746 43.676ZM62.4565 44.12C61.9605 44.12 61.5125 44.032 61.1125 43.856C60.7205 43.68 60.3845 43.444 60.1045 43.148C59.8245 42.852 59.6085 42.508 59.4565 42.116C59.3045 41.716 59.2285 41.3 59.2285 40.868C59.2285 40.436 59.3045 40.024 59.4565 39.632C59.6085 39.232 59.8245 38.884 60.1045 38.588C60.3925 38.292 60.7325 38.056 61.1245 37.88C61.5245 37.704 61.9685 37.616 62.4565 37.616C62.9445 37.616 63.3845 37.704 63.7765 37.88C64.1765 38.056 64.5165 38.292 64.7965 38.588C65.0845 38.884 65.3045 39.232 65.4565 39.632C65.6085 40.024 65.6845 40.436 65.6845 40.868C65.6845 41.3 65.6085 41.716 65.4565 42.116C65.3045 42.508 65.0845 42.852 64.7965 43.148C64.5165 43.444 64.1765 43.68 63.7765 43.856C63.3845 44.032 62.9445 44.12 62.4565 44.12ZM60.5845 40.88C60.5845 41.184 60.6325 41.464 60.7285 41.72C60.8245 41.976 60.9565 42.2 61.1245 42.392C61.2925 42.576 61.4885 42.724 61.7125 42.836C61.9445 42.94 62.1925 42.992 62.4565 42.992C62.7205 42.992 62.9645 42.94 63.1885 42.836C63.4205 42.724 63.6205 42.572 63.7885 42.38C63.9565 42.188 64.0885 41.964 64.1845 41.708C64.2805 41.452 64.3285 41.172 64.3285 40.868C64.3285 40.572 64.2805 40.296 64.1845 40.04C64.0885 39.776 63.9565 39.548 63.7885 39.356C63.6205 39.164 63.4205 39.016 63.1885 38.912C62.9645 38.8 62.7205 38.744 62.4565 38.744C62.2005 38.744 61.9565 38.8 61.7245 38.912C61.5005 39.024 61.3045 39.176 61.1365 39.368C60.9685 39.56 60.8325 39.788 60.7285 40.052C60.6325 40.308 60.5845 40.584 60.5845 40.88ZM69.5353 44.12C69.0313 44.12 68.5273 44.04 68.0233 43.88C67.5273 43.712 67.0993 43.476 66.7393 43.172L67.2673 42.332C67.6433 42.604 68.0153 42.812 68.3833 42.956C68.7513 43.092 69.1273 43.16 69.5113 43.16C69.9033 43.16 70.2113 43.084 70.4353 42.932C70.6673 42.78 70.7833 42.564 70.7833 42.284C70.7833 42.02 70.6553 41.828 70.3993 41.708C70.1433 41.588 69.7433 41.456 69.1993 41.312C68.8073 41.208 68.4713 41.108 68.1913 41.012C67.9113 40.916 67.6833 40.804 67.5073 40.676C67.3313 40.548 67.2033 40.4 67.1233 40.232C67.0433 40.064 67.0033 39.86 67.0033 39.62C67.0033 39.3 67.0633 39.016 67.1833 38.768C67.3113 38.52 67.4833 38.312 67.6993 38.144C67.9233 37.968 68.1833 37.836 68.4793 37.748C68.7753 37.66 69.0953 37.616 69.4393 37.616C69.9113 37.616 70.3513 37.688 70.7593 37.832C71.1673 37.976 71.5313 38.184 71.8513 38.456L71.2873 39.248C70.7033 38.784 70.0833 38.552 69.4273 38.552C69.0913 38.552 68.8073 38.624 68.5753 38.768C68.3513 38.904 68.2393 39.124 68.2393 39.428C68.2393 39.556 68.2633 39.664 68.3113 39.752C68.3593 39.84 68.4353 39.916 68.5393 39.98C68.6513 40.044 68.7913 40.104 68.9593 40.16C69.1353 40.208 69.3513 40.264 69.6073 40.328C70.0313 40.432 70.3953 40.536 70.6993 40.64C71.0113 40.744 71.2673 40.868 71.4673 41.012C71.6673 41.148 71.8153 41.312 71.9113 41.504C72.0073 41.688 72.0553 41.912 72.0553 42.176C72.0553 42.776 71.8273 43.252 71.3713 43.604C70.9233 43.948 70.3113 44.12 69.5353 44.12Z" fill="#E9995E"/>
<path d="M49.5 11C47.76 11 46.09 11.81 45 13.09C43.91 11.81 42.24 11 40.5 11C37.42 11 35 13.42 35 16.5C35 20.28 38.4 23.36 43.55 28.04L45 29.35L46.45 28.03C51.6 23.36 55 20.28 55 16.5C55 13.42 52.58 11 49.5 11ZM45.1 26.55L45 26.65L44.9 26.55C40.14 22.24 37 19.39 37 16.5C37 14.5 38.5 13 40.5 13C42.04 13 43.54 13.99 44.07 15.36H45.94C46.46 13.99 47.96 13 49.5 13C51.5 13 53 14.5 53 16.5C53 19.39 49.86 22.24 45.1 26.55Z" fill="#E9995E"/>
</svg>
