<svg width="20" height="16" viewBox="0 0 20 16" fill="none" xmlns="http://www.w3.org/2000/svg">
<path d="M17.7778 0.708313C18.3333 0.708313 18.804 0.892775 19.1898 1.2617C19.5756 1.63062 19.7685 2.08071 19.7685 2.61196V13.9453C19.7685 14.4765 19.5756 14.9266 19.1898 15.2956C18.804 15.6645 18.3333 15.8489 17.7778 15.8489H1.99074C1.43519 15.8489 0.964506 15.6645 0.578704 15.2956C0.192901 14.9266 0 14.4765 0 13.9453V2.61196C0 2.08071 0.192901 1.63062 0.578704 1.2617C0.964506 0.892775 1.43519 0.708313 1.99074 0.708313H17.7778ZM17.7778 4.5156V2.61196L9.86111 7.34894L1.99074 2.61196V4.5156L9.86111 9.20831L17.7778 4.5156Z" fill="white"/>
</svg>
