<svg width="19" height="19" viewBox="0 0 19 19" fill="none" xmlns="http://www.w3.org/2000/svg">
<path d="M9.50004 1.58334C6.43629 1.58334 3.95837 4.06126 3.95837 7.12501C3.95837 11.2813 9.50004 17.4167 9.50004 17.4167C9.50004 17.4167 15.0417 11.2813 15.0417 7.12501C15.0417 4.06126 12.5638 1.58334 9.50004 1.58334ZM5.54171 7.12501C5.54171 4.94001 7.31504 3.16668 9.50004 3.16668C11.685 3.16668 13.4584 4.94001 13.4584 7.12501C13.4584 9.40501 11.1784 12.8171 9.50004 14.9467C7.85337 12.8329 5.54171 9.38126 5.54171 7.12501Z" fill="#BDBDBD"/>
<path d="M9.50004 9.10418C10.5931 9.10418 11.4792 8.21807 11.4792 7.12501C11.4792 6.03195 10.5931 5.14584 9.50004 5.14584C8.40698 5.14584 7.52087 6.03195 7.52087 7.12501C7.52087 8.21807 8.40698 9.10418 9.50004 9.10418Z" fill="#BDBDBD"/>
</svg>
