<svg width="90" height="56" viewBox="0 0 90 56" fill="none" xmlns="http://www.w3.org/2000/svg">
<rect width="90" height="56" fill="white"/>
<path d="M30.0655 44V35.48H33.6415C34.0255 35.48 34.3775 35.56 34.6975 35.72C35.0255 35.88 35.3055 36.092 35.5375 36.356C35.7695 36.612 35.9495 36.908 36.0775 37.244C36.2135 37.572 36.2815 37.908 36.2815 38.252C36.2815 38.612 36.2175 38.96 36.0895 39.296C35.9695 39.624 35.7975 39.92 35.5735 40.184C35.3495 40.44 35.0775 40.648 34.7575 40.808C34.4455 40.96 34.0975 41.036 33.7135 41.036H31.4095V44H30.0655ZM31.4095 39.848H33.6295C33.8215 39.848 33.9935 39.808 34.1455 39.728C34.3055 39.648 34.4415 39.536 34.5535 39.392C34.6655 39.248 34.7535 39.08 34.8175 38.888C34.8815 38.696 34.9135 38.484 34.9135 38.252C34.9135 38.012 34.8775 37.796 34.8055 37.604C34.7335 37.412 34.6335 37.248 34.5055 37.112C34.3775 36.968 34.2295 36.86 34.0615 36.788C33.9015 36.708 33.7335 36.668 33.5575 36.668H31.4095V39.848ZM40.5126 44.12C40.0246 44.12 39.5806 44.036 39.1806 43.868C38.7806 43.692 38.4366 43.456 38.1486 43.16C37.8686 42.864 37.6486 42.52 37.4886 42.128C37.3366 41.736 37.2606 41.32 37.2606 40.88C37.2606 40.44 37.3366 40.024 37.4886 39.632C37.6486 39.232 37.8686 38.884 38.1486 38.588C38.4366 38.284 38.7806 38.048 39.1806 37.88C39.5806 37.704 40.0286 37.616 40.5246 37.616C41.0126 37.616 41.4526 37.704 41.8446 37.88C42.2446 38.056 42.5846 38.292 42.8646 38.588C43.1446 38.876 43.3566 39.216 43.5006 39.608C43.6526 39.992 43.7286 40.396 43.7286 40.82C43.7286 40.916 43.7246 41.008 43.7166 41.096C43.7086 41.176 43.7006 41.244 43.6926 41.3H38.6646C38.6886 41.58 38.7526 41.832 38.8566 42.056C38.9686 42.28 39.1086 42.476 39.2766 42.644C39.4526 42.804 39.6486 42.928 39.8646 43.016C40.0886 43.104 40.3206 43.148 40.5606 43.148C40.7366 43.148 40.9086 43.128 41.0766 43.088C41.2526 43.04 41.4126 42.976 41.5566 42.896C41.7006 42.808 41.8286 42.704 41.9406 42.584C42.0526 42.464 42.1406 42.332 42.2046 42.188L43.3326 42.512C43.1166 42.984 42.7566 43.372 42.2526 43.676C41.7566 43.972 41.1766 44.12 40.5126 44.12ZM42.4206 40.388C42.3966 40.124 42.3286 39.88 42.2166 39.656C42.1126 39.432 41.9766 39.244 41.8086 39.092C41.6406 38.932 41.4446 38.808 41.2206 38.72C40.9966 38.632 40.7606 38.588 40.5126 38.588C40.2646 38.588 40.0286 38.632 39.8046 38.72C39.5886 38.808 39.3966 38.932 39.2286 39.092C39.0606 39.244 38.9246 39.432 38.8206 39.656C38.7166 39.88 38.6526 40.124 38.6286 40.388H42.4206ZM48.7333 38.864C48.2213 38.88 47.7653 39 47.3653 39.224C46.9733 39.44 46.6933 39.752 46.5253 40.16V44H45.2053V37.724H46.4293V39.128C46.6453 38.696 46.9253 38.352 47.2693 38.096C47.6213 37.832 47.9973 37.688 48.3973 37.664C48.4773 37.664 48.5413 37.664 48.5893 37.664C48.6453 37.664 48.6933 37.668 48.7333 37.676V38.864ZM50.4536 44V38.9H49.6136V37.88H50.4536V37.628C50.4536 36.852 50.6336 36.24 50.9936 35.792C51.3536 35.344 51.8416 35.12 52.4576 35.12C52.7136 35.12 52.9656 35.156 53.2136 35.228C53.4616 35.292 53.6976 35.384 53.9216 35.504L53.6336 36.488C53.5136 36.416 53.3696 36.356 53.2016 36.308C53.0416 36.26 52.8856 36.236 52.7336 36.236C52.4216 36.236 52.1816 36.352 52.0136 36.584C51.8536 36.816 51.7736 37.152 51.7736 37.592V37.88H53.3816V38.9H51.7736V44H50.4536ZM54.7709 44V37.724H56.0909V44H54.7709ZM54.7709 36.692V35.24H56.0909V36.692H54.7709ZM58.0892 35.24H59.4092V42.188C59.4092 42.42 59.4692 42.604 59.5892 42.74C59.7092 42.868 59.8772 42.932 60.0932 42.932C60.1812 42.932 60.2812 42.916 60.3932 42.884C60.5132 42.852 60.6252 42.816 60.7292 42.776L60.9212 43.808C60.7292 43.896 60.5012 43.964 60.2372 44.012C59.9732 44.068 59.7372 44.096 59.5292 44.096C59.0732 44.096 58.7172 43.972 58.4612 43.724C58.2132 43.476 58.0892 43.124 58.0892 42.668V35.24Z" fill="#E9995E"/>
<path d="M43.25 21C43.25 21.3315 43.1183 21.6495 42.8839 21.8839C42.6495 22.1183 42.3315 22.25 42 22.25C41.6685 22.25 41.3505 22.1183 41.1161 21.8839C40.8817 21.6495 40.75 21.3315 40.75 21C40.75 20.6685 40.8817 20.3505 41.1161 20.1161C41.3505 19.8817 41.6685 19.75 42 19.75C42.3315 19.75 42.6495 19.8817 42.8839 20.1161C43.1183 20.3505 43.25 20.6685 43.25 21ZM48 19.75C47.6685 19.75 47.3505 19.8817 47.1161 20.1161C46.8817 20.3505 46.75 20.6685 46.75 21C46.75 21.3315 46.8817 21.6495 47.1161 21.8839C47.3505 22.1183 47.6685 22.25 48 22.25C48.3315 22.25 48.6495 22.1183 48.8839 21.8839C49.1183 21.6495 49.25 21.3315 49.25 21C49.25 20.6685 49.1183 20.3505 48.8839 20.1161C48.6495 19.8817 48.3315 19.75 48 19.75ZM55 20C55 25.52 50.52 30 45 30C39.48 30 35 25.52 35 20C35 14.48 39.48 10 45 10C50.52 10 55 14.48 55 20ZM43.66 12.12C45.06 14.44 47.6 16 50.5 16C50.96 16 51.41 15.95 51.84 15.88C50.44 13.56 47.9 12 45 12C44.54 12 44.09 12.05 43.66 12.12ZM37.42 17.47C39.1456 16.4918 40.449 14.9106 41.08 13.03C39.3544 14.0083 38.051 15.5894 37.42 17.47ZM53 20C53 19.22 52.88 18.47 52.67 17.76C51.97 17.91 51.25 18 50.5 18C49.0136 18.0003 47.5458 17.6693 46.2035 17.031C44.8611 16.3927 43.6779 15.4631 42.74 14.31C42.2149 15.5792 41.4344 16.7269 40.4469 17.6817C39.4595 18.6365 38.2862 19.3779 37 19.86C37.01 19.9 37 19.95 37 20C37 24.41 40.59 28 45 28C49.41 28 53 24.41 53 20Z" fill="#E9995E"/>
</svg>
