<svg width="220" height="160" viewBox="0 0 220 160" fill="none" xmlns="http://www.w3.org/2000/svg">
<path fill-rule="evenodd" clip-rule="evenodd" d="M219.653 60.5373C216.93 80.8136 213.855 91.5239 195.913 112.758C177.97 133.992 95.8636 147.961 65.5089 147.961C35.1542 147.961 -2.2546 124.588 0.10638 97.5057C2.46736 70.4237 14.7849 48.2889 44.2675 45.5641C74.3973 42.7794 100.864 55.6747 130.444 48.7587C156.017 42.7794 163.842 19.9886 181.407 12.7982C216.93 -1.74389 221.506 46.7433 219.653 60.5373Z" fill="#F8E3D3"/>
<path d="M201.377 70.4402C200.374 72.1388 187.669 80.7341 179.963 82.0062C178.472 82.2524 176.843 82.3369 175.548 81.5593C174.782 81.1 174.212 80.3836 173.67 79.6749C172.432 78.0545 171.251 76.3906 170.129 74.6874C169.54 73.7924 168.955 72.858 168.755 71.8056C168.224 69.0189 170.474 66.5158 172.697 64.75C177.808 60.6911 183.792 57.7341 190.123 56.139C191.244 55.8566 192.432 55.6175 193.543 55.9382C195.345 56.4588 196.422 58.2797 197.11 60.0227C197.797 61.7657 198.334 63.6722 199.708 64.9473C200.022 65.2385 202.381 68.7415 201.377 70.4402Z" fill="white"/>
<path fill-rule="evenodd" clip-rule="evenodd" d="M133.111 144.491C120.781 146.597 126.658 137.648 128.358 126.447C131.152 108.043 134.598 80.0734 134.598 80.0734C134.598 80.0734 136.845 122.692 136.845 133.069C136.845 143.446 134.597 144.238 133.111 144.491Z" fill="white"/>
<path d="M119.937 134.351C120.251 137.315 120.583 140.342 121.844 143.043C121.156 136.926 120.468 130.81 119.78 124.693C119.695 123.938 119.72 122.976 120.416 122.668C121.005 129.575 121.883 136.457 123.046 143.291C123.185 144.102 121.964 144.566 121.279 144.109C120.594 143.652 120.374 142.762 120.218 141.954C119.083 136.065 118.458 130.078 118.355 124.083C116.909 124.367 115.895 125.767 115.602 127.209C115.31 128.651 115.592 130.141 115.873 131.585C116.78 136.235 117.687 140.884 118.594 145.534C119.018 147.708 119.442 149.955 118.974 152.121C117.174 143.916 115.727 135.634 114.639 127.305C100.83 135.737 83.0364 137.305 67.9619 131.418C64.6696 130.133 61.4 128.429 59.2254 125.646C57.5124 123.453 56.5983 120.731 56.1194 117.992C54.4187 108.263 57.9039 98.3387 62.6343 89.6654C64.4292 86.3745 66.4734 82.9468 66.3285 79.2023C66.2787 77.913 66.0003 76.4856 66.7542 75.4378C66.8609 75.6318 61.8186 39.6146 63.8414 31.6477C68.711 12.468 84.5301 9.87053 94.6586 10.1071C101.454 10.2658 144.531 18.8143 150.754 30.4393C158.934 45.7178 157.197 58.5632 155.745 67.0331C155.312 69.5553 134.603 79.8876 134.598 79.9398C133.414 90.9301 125.469 114.878 118.806 123.705C119.183 127.254 119.56 130.803 119.937 134.351Z" fill="white"/>
<path fill-rule="evenodd" clip-rule="evenodd" d="M20.5059 89.6326C16.6223 88.0845 11.9942 88.5436 8.49283 90.8242C8.15386 91.045 7.66652 90.7989 7.49871 90.4316C7.33091 90.0643 7.39367 89.6369 7.47951 89.2425C8.59776 84.1037 13.0526 80.1717 18.0067 78.3648C22.9608 76.5578 28.3798 76.5527 33.646 76.8616C34.1686 76.8923 34.7148 76.933 35.1605 77.2066C35.6062 77.4801 35.9061 78.0651 35.684 78.5375C33.6123 82.9426 32.0518 87.5862 31.0434 92.3462C30.8799 93.1181 30.0789 93.6302 29.2901 93.6946C28.5013 93.7589 27.7284 93.4683 27.0125 93.1318C24.7815 92.0833 22.7961 90.5455 20.5059 89.6326Z" fill="white"/>
<path fill-rule="evenodd" clip-rule="evenodd" d="M139.877 12.0575C140.07 9.10967 139.847 6.13502 139.218 3.24851L139.204 3.18699C139.098 2.69892 138.988 2.19689 139.086 1.70842C139.304 0.628137 140.505 -0.0221046 141.609 0.000574423C142.712 0.0232535 143.734 0.549162 144.71 1.06275C149.392 3.52576 154.159 6.05093 157.845 9.84239C157.961 12.9119 157.237 15.941 156.521 18.9313L156.454 19.2122C153.469 31.7103 151.024 44.3372 149.129 57.0459C148.948 58.264 148.603 59.7009 147.446 60.1275C146.616 60.4335 145.651 60.0424 145.062 59.3838C144.472 58.7251 144.19 57.8505 143.994 56.9892C143.509 54.864 143.45 52.6426 143.823 50.495C144.051 49.1816 144.436 47.9041 144.822 46.6262C145.168 45.479 145.514 44.3315 145.746 43.1575C145.979 41.9836 146.096 40.7904 146.21 39.5992C146.814 33.2647 147.326 26.9215 147.747 20.5722C147.806 19.675 147.861 18.7496 147.566 17.8997C147.043 16.3883 145.518 15.433 143.978 14.995C143.712 14.9195 143.442 14.8553 143.173 14.7911L143.173 14.7911C142.545 14.6416 141.918 14.4923 141.345 14.2011C140.527 13.7847 139.817 12.9728 139.877 12.0575ZM142.738 11.8153C144.915 12.2741 147.043 12.9669 149.073 13.8778C149.481 14.0613 149.911 14.276 150.132 14.6653C150.312 14.9833 150.322 15.3662 150.328 15.7316C150.392 20.023 150.405 24.3257 149.95 28.5934C149.678 31.1488 149.238 33.6819 148.799 36.2148L148.798 36.2151L148.798 36.2166L148.798 36.218L148.798 36.2195L148.797 36.221L148.797 36.2224L148.797 36.2239L148.797 36.2254C148.658 37.0237 148.52 37.822 148.386 38.621C147.724 42.5917 147.191 46.5839 146.789 50.5891C146.496 53.4951 146.283 56.4988 147.188 59.2761C147.652 59.1913 147.831 58.6328 147.919 58.1695L156.285 14.137C156.488 13.0702 156.69 11.9672 156.451 10.9078C156.033 9.05307 154.385 7.76345 152.795 6.71704C149.735 4.70263 146.478 2.98699 143.086 1.60251C142.803 4.99841 142.687 8.40807 142.738 11.8153ZM147.04 40.7338C148.572 32.8812 149.264 24.8655 149.1 16.867C149.088 16.2628 149.056 15.6137 148.686 15.1356C148.414 14.7852 148 14.58 147.595 14.399C146.076 13.7193 144.478 13.2135 142.844 12.8947C142.371 12.8024 141.675 12.9024 141.696 13.3833L147.57 15.8072C147.915 15.9493 148.282 16.1101 148.477 16.4276C148.668 16.739 148.649 17.1301 148.624 17.4944L147.04 40.7338ZM141.574 0.825777C141.089 0.505197 140.39 0.835659 140.12 1.34952C139.85 1.86338 139.891 2.47855 139.952 3.05551C140.042 3.90164 140.16 4.7482 140.278 5.5949L140.278 5.59507L140.278 5.59525L140.278 5.59542L140.278 5.5956L140.278 5.59577L140.278 5.59594L140.278 5.5961V5.59616V5.59623V5.5963V5.59637V5.59644V5.59651V5.59657C140.606 7.94654 140.934 10.2975 140.655 12.6425C141.1 12.7948 141.595 12.4821 141.811 12.0654C142.026 11.6486 142.032 11.1591 142.033 10.6901L142.048 2.23283C142.049 1.71595 142.005 1.11138 141.574 0.825777ZM145.923 59.0853C145.656 56.9953 145.587 54.8802 145.715 52.7772C145.783 51.6527 145.908 50.5323 146.033 49.412L146.033 49.4117C146.198 47.93 146.364 46.4488 146.398 44.9593C145.178 48.5854 144.717 52.4643 145.054 56.2748C145.142 57.266 145.304 58.3054 145.923 59.0853ZM146.595 42.8172C146.791 42.7294 146.873 42.454 146.758 42.2729C146.558 42.3711 146.474 42.649 146.584 42.8414L146.595 42.8172ZM144.77 24.6563C135.061 18.677 124.083 15.0945 113.103 12.0033C109.594 11.0151 106.055 10.0682 102.431 9.66281C91.6933 8.4616 80.8078 12.1611 71.8796 18.2375C68.2989 20.6745 64.8441 23.6722 63.2971 27.7141C62.1492 30.7131 62.1571 34.0147 62.2678 37.2234C62.6496 48.2897 64.0716 59.2908 65.492 70.2725C66.6024 70.0724 66.7121 68.5388 66.5513 67.4236C65.0744 57.1824 64.2463 46.8479 64.0736 36.5025C64.0252 33.6016 64.0404 30.6274 65.0458 27.9053C66.8657 22.9776 71.5596 19.7549 76.1653 17.2187C81.9665 14.0243 88.2725 11.3391 94.8956 11.1965C102.918 11.0239 110.523 14.5775 117.531 18.4803C121.438 20.6562 125.4 23.0859 127.885 26.8003C130.142 30.1729 130.962 34.2833 131.555 38.2963C133.434 51.0331 133.503 63.9585 133.568 76.8327C133.571 77.3535 133.539 77.9504 133.13 78.2741C132.851 78.4954 132.47 78.5231 132.113 78.5416L119.025 79.222C125.124 80.9731 131.89 80.2824 137.508 77.3352L152.051 69.706C153.408 68.994 154.809 68.246 155.745 67.0331C157.032 65.3637 157.217 63.118 157.277 61.0117C157.502 53.2328 156.723 45.4256 154.966 37.8438C155.575 46.0455 155.659 54.286 155.219 62.4984C155.143 63.9009 155.031 65.3723 154.267 66.5516C153.451 67.8113 152.033 68.5247 150.682 69.1805L134.987 76.798C135.637 64.6205 135.133 52.382 133.484 40.299C132.93 36.2349 132.223 32.114 130.36 28.4584C125.959 19.8192 116.217 15.5457 107.213 11.9245C120.674 15.8572 134.289 19.8549 146.4 26.9198C146.557 25.9438 145.613 25.1752 144.77 24.6563ZM194.929 61.8282C195.627 63.6242 196.608 65.5385 198.411 66.223C198.838 66.2559 199.094 65.6903 198.953 65.286C198.836 64.9484 198.561 64.7025 198.291 64.4609C198.237 64.4133 198.184 64.3658 198.132 64.3178C196.985 63.2533 196.422 61.7486 195.867 60.2664L195.866 60.2655L195.866 60.2642L195.866 60.2633C195.756 59.9713 195.647 59.6801 195.534 59.3933C194.847 57.6503 193.769 55.8294 191.967 55.3088C190.856 54.988 189.668 55.2271 188.547 55.5095C182.216 57.1047 176.232 60.0616 171.121 64.1206C168.898 65.8863 166.649 68.3894 167.179 71.1762C167.379 72.2286 167.964 73.1629 168.553 74.058C169.675 75.7612 170.856 77.425 172.095 79.0455C172.636 79.7542 173.207 80.4706 173.972 80.9299C175.267 81.7075 176.896 81.623 178.387 81.3768C186.094 80.1047 192.69 75.3221 198.966 70.6789C199.293 70.4373 199.632 70.1799 199.802 69.8107C199.971 69.4416 199.899 68.9282 199.54 68.7376C199.128 68.5192 198.643 68.8208 198.276 69.1077C192.435 73.674 186.196 78.1361 178.954 79.7401C177.581 80.0442 176.068 80.2233 174.833 79.5521C173.909 79.0499 173.285 78.147 172.696 77.2765L169.042 71.8787C168.735 71.4241 168.416 70.9355 168.404 70.3868C168.393 69.8382 168.837 69.2448 169.382 69.3156C174.503 69.9806 179.648 70.4587 184.804 70.7484C185.214 70.7715 185.644 70.79 186.018 70.6195C186.499 70.3998 186.793 69.9133 187.05 69.4508C189.233 65.5215 190.9 61.3071 191.996 56.949C193.453 57.9922 194.133 59.7592 194.781 61.4452C194.831 61.5734 194.88 61.7012 194.929 61.8282ZM190.422 56.6042C189.447 60.2489 188.003 63.7685 186.139 67.0496C185.826 67.5996 185.479 68.1662 184.933 68.4857C184.237 68.8923 183.372 68.8157 182.571 68.7264L169.815 67.3051C171.932 64.5124 175.076 62.7 178.217 61.1427C181.191 59.6686 184.243 58.3536 187.357 57.2053C188.343 56.8418 189.377 56.4896 190.422 56.6042ZM119.937 134.352C120.252 137.315 120.583 140.342 121.845 143.043L119.78 124.693C119.695 123.938 119.72 122.976 120.416 122.668C121.005 129.575 121.883 136.457 123.047 143.291C123.185 144.102 121.964 144.566 121.279 144.109C120.594 143.652 120.374 142.762 120.219 141.954C119.083 136.065 118.458 130.078 118.355 124.083C116.909 124.367 115.895 125.767 115.602 127.209C115.31 128.651 115.592 130.141 115.873 131.585L118.594 145.534C119.018 147.708 119.442 149.955 118.974 152.121C117.174 143.916 115.727 135.634 114.639 127.305C100.83 135.737 83.0365 137.305 67.9621 131.418C64.6697 130.133 61.4001 128.429 59.2255 125.646C57.5125 123.453 56.5984 120.731 56.1196 117.992C54.4188 108.263 57.904 98.3387 62.6344 89.6655C62.7576 89.4396 62.882 89.2131 63.0067 88.9859L63.0068 88.9858L63.0068 88.9857L63.0068 88.9857L63.0069 88.9856C64.6997 85.9023 66.4635 82.6898 66.3286 79.2023C66.3197 78.9718 66.3035 78.7369 66.2872 78.5006C66.2122 77.4148 66.1351 76.2983 66.7543 75.4378C67.5848 76.9465 67.9011 78.7315 67.6394 80.4332C81.9354 79.8187 96.2525 79.695 110.557 80.0622C110.724 80.719 109.771 81.0241 109.093 81.0139C95.7434 80.8151 82.3878 81.0422 69.0531 81.6948C68.6308 81.7154 68.1875 81.7429 67.8295 81.9674C67.4529 82.2036 67.2335 82.618 67.0311 83.0134C63.2465 90.4079 59.4495 97.91 57.6202 106.011C56.6795 110.177 56.3192 114.736 58.2473 118.548C58.9787 119.994 60.0132 121.271 61.1683 122.409C67.3691 128.516 76.6544 130.389 85.3629 130.243C90.9209 130.149 96.4667 129.351 101.825 127.874C107.506 126.308 113.171 123.84 117.049 119.408C119.326 116.806 120.873 113.654 122.228 110.474C124.816 104.403 126.801 98.0755 128.145 91.6147C128.986 91.7915 128.998 92.9794 128.804 93.8157C126.402 104.163 123.61 115.191 115.699 122.291C108.554 128.703 98.4862 130.692 88.8948 131.228C83.3543 131.538 77.7266 131.441 72.3602 130.031C66.9939 128.621 61.8699 125.799 58.4631 121.425C59.4567 125.208 62.8225 127.909 66.3266 129.656C75.5271 134.243 86.3917 134.001 96.5507 132.406C103.318 131.344 110.264 129.601 115.531 125.226C120.032 121.487 122.901 116.146 125.061 110.711C127.451 104.695 129.109 98.3891 129.987 91.9763C130.534 91.6314 130.939 92.5961 130.87 93.2382C129.686 104.229 125.469 114.878 118.806 123.705L119.937 134.352ZM113.538 153.145C112.951 152.155 112.573 151.042 112.436 149.9L111.593 152.754L109.464 144.648C109.299 144.019 108.897 143.232 108.261 143.367C107.642 143.499 107.572 144.347 107.664 144.972C108.128 148.117 109.012 151.2 110.287 154.113L108.023 152.129C107.913 153.073 108.162 154.055 108.709 154.833C107.53 153.966 105.948 153.67 104.535 154.053C105.545 155.454 106.916 156.594 108.479 157.331L106.567 154.665C108.113 155.556 109.732 156.319 111.404 156.945L109.783 154.916L111.786 155.47C110.254 151.989 108.693 148.376 108.73 144.574C109.31 147.667 110.159 150.709 111.264 153.656C111.451 154.155 111.659 154.672 112.058 155.026C112.458 155.38 113.106 155.514 113.524 155.182C113.849 154.924 113.944 154.479 114.018 154.071L114.919 149.077L115.91 155.271C116.661 153.376 119.104 152.902 121.144 152.889C123.839 152.872 126.553 153.169 129.261 153.464L129.261 153.464H129.261C134.142 153.997 139 154.527 143.676 153.217C143.539 153.939 143.298 154.641 142.965 155.296C146.738 154.748 150.556 154.507 154.369 154.577C155.979 154.607 157.594 154.691 159.209 154.776H159.209H159.209H159.209H159.21H159.21H159.21H159.21H159.21C163.48 155 167.749 155.223 171.932 154.432L144.169 154.188C144.69 154.158 145.09 153.553 144.912 153.062C144.734 152.572 144.039 152.362 143.619 152.672C143.346 151.805 142.119 151.419 141.398 151.974C141.816 150.688 142.642 149.537 143.728 148.729C142.502 148.663 141.257 149.038 140.272 149.769L143.258 135.968C143.006 135.751 142.585 135.897 142.398 136.172C142.214 136.445 142.193 136.792 142.174 137.121L142.173 137.131C141.893 141.844 140.229 146.466 137.44 150.278L136.345 147.113L134.775 150.893C134.063 150.343 133.054 150.204 132.22 150.542C132.433 151.35 133.08 152.03 133.878 152.283L134.25 151.289L136.702 152.93C135.765 151.949 135.562 150.344 136.225 149.161L137.709 151.647L140.586 145.966C140.602 148.247 139.623 150.403 138.663 152.473C139.706 151.657 140.603 150.655 141.298 149.529C141.968 150.715 141.236 152.306 140.069 153.012C138.903 153.718 137.46 153.756 136.097 153.698C134.018 153.611 131.922 153.35 129.829 153.089C125.13 152.504 120.443 151.921 115.978 153.303L115.335 147.375C114.351 149.15 113.736 151.127 113.538 153.145ZM141.549 153.303C141.448 153.183 141.449 152.99 141.551 152.87L141.632 152.901C141.768 152.575 142.342 152.602 142.447 152.939C142.182 153.129 141.872 153.255 141.549 153.303ZM156.717 90.3264C153.484 88.6944 149.636 89.1349 146.047 89.6261C145.033 89.7649 143.998 89.9106 143.08 90.3616C142.161 90.8125 141.361 91.6292 141.203 92.6391C132.436 91.5462 124.036 87.6932 117.494 81.7648C116.074 80.4781 114.626 78.646 115.264 76.8407C115.465 76.2732 115.855 75.7944 116.261 75.3497C119.311 72.0105 123.517 70.0023 127.61 68.0746C122.971 68.4809 118.519 70.7343 115.448 74.2311C114.744 75.0324 114.095 75.9278 113.853 76.9659C113.255 79.5289 115.248 81.9335 117.244 83.6531C123.61 89.1398 131.618 92.7029 139.96 93.761C140.46 93.8244 140.486 94.5268 140.44 95.0284C140.237 97.2592 141.455 99.4362 143.143 100.912C144.831 102.387 146.945 103.273 149.042 104.067C155.539 106.524 162.28 108.333 169.135 109.46C169.588 109.534 170.21 109.499 170.305 109.051C168.723 108.006 166.82 107.608 164.958 107.219L164.657 107.156C159.937 106.163 155.28 104.871 150.725 103.289C148.856 102.64 146.982 101.931 145.353 100.811C143.723 99.6897 142.339 98.1064 141.818 96.2002C141.561 95.2589 141.91 93.8539 142.88 93.9723C146.829 94.4545 150.887 94.9307 154.743 93.9525C155.616 93.7312 156.525 93.3973 157.057 92.6719C157.589 91.9465 157.521 90.732 156.717 90.3264ZM146.756 92.9324C145.4 92.6994 144.015 92.637 142.644 92.7472C143.31 91.4834 144.938 91.1507 146.355 90.958C149.435 90.5392 152.643 90.1308 155.594 91.1059C155.789 91.1703 155.997 91.2525 156.102 91.4285C156.241 91.6601 156.14 91.9754 155.942 92.16C155.745 92.3446 155.476 92.4283 155.216 92.501C152.474 93.2662 149.562 93.4147 146.756 92.9324ZM101.897 156.688C104.165 156.625 106.448 157.126 108.481 158.133C107.937 158.913 106.845 159.022 105.894 159.058L81.0428 160C80.815 159.972 80.7722 159.621 80.9335 159.458C81.0948 159.295 81.347 159.274 81.5763 159.263L105.836 158.081C104.434 157.953 103.067 157.469 101.897 156.688ZM54.0707 74.616C53.7166 76.3073 55.1494 78.1117 56.875 78.2396C54.0533 82.4861 48.9704 84.5817 44.0867 86.061C41.0386 86.9843 37.6575 87.7425 34.7518 86.4397C34.3911 86.6597 34.7757 87.2016 35.1564 87.3848C37.9842 88.7455 41.3367 87.9873 44.3446 87.0909C48.7556 85.7764 53.3024 84.0774 56.3039 80.5922C56.4267 80.4496 56.5491 80.3028 56.6723 80.155L56.6726 80.1545C57.4451 79.2274 58.2507 78.2606 59.4122 78.0461C63.1517 77.3554 66.2661 75.0166 69.3436 72.7056C70.0417 72.1814 70.7378 71.6586 71.4389 71.1569C75.6999 68.1072 80.4259 65.7066 85.4034 64.0635C85.843 63.9184 86.3776 63.649 86.3385 63.1883C80.1674 63.754 74.7732 67.4288 69.7994 71.1202L69.6335 71.2433C66.2532 73.7528 62.7209 76.3751 58.5615 76.997C59.9202 75.927 59.6333 73.4544 58.1005 72.6528C56.5677 71.8512 54.4249 72.9248 54.0707 74.616ZM55.2223 75.6496C54.9449 74.8291 55.373 73.8532 56.1339 73.4376C56.3498 73.3197 56.5915 73.2411 56.8377 73.2409C57.6501 73.2401 58.2435 74.1078 58.2488 74.9191C58.2542 75.7304 57.8423 76.4787 57.442 77.1847C56.5057 77.0416 55.5253 76.5458 55.2223 75.6496ZM147.566 57.5712C147.336 57.3155 147.406 56.971 147.48 56.6142C147.531 56.362 147.584 56.1037 147.533 55.8662C147.489 55.6602 147.369 55.4848 147.248 55.3089C147.142 55.1532 147.034 54.9971 146.98 54.819C146.992 54.5836 147.307 54.4628 147.522 54.5604C147.737 54.6581 147.857 54.8884 147.932 55.1119C148.206 55.9276 148.065 56.8705 147.566 57.5712ZM126.762 39.6715C127.337 38.3101 128.477 37.1029 129.931 36.8266C130.401 36.7372 130.386 35.9628 129.974 35.7194C129.562 35.476 129.033 35.6199 128.6 35.8254C126.587 36.7825 125.315 38.8894 124.817 41.0602C124.319 43.231 124.484 45.4917 124.651 47.7125L125.542 59.5167C125.572 59.9181 125.609 60.3395 125.833 60.6743C126.288 61.3561 127.266 61.3775 128.085 61.3255L132.232 61.0624C131.311 60.3412 130.074 60.0376 128.922 60.25C128.25 60.374 127.574 59.9311 127.218 59.3482C126.862 58.7654 126.757 58.0679 126.669 57.3908C126.091 52.9607 125.879 48.483 126.036 44.0182C126.087 42.5416 126.187 41.0328 126.762 39.6715ZM137.351 144.45C137.115 144.62 136.879 144.232 136.845 143.943C135.242 130.491 135.001 116.918 134.761 103.374L134.599 94.2422C134.594 93.9822 134.598 93.6972 134.766 93.4979C135.054 93.1548 135.66 93.3121 135.912 93.6827C136.163 94.0533 136.164 94.5333 136.155 94.9811C135.908 108.31 136.071 121.665 137.349 134.935L137.396 135.419C137.689 138.434 137.986 141.494 137.351 144.45ZM124.027 59.6549C123.676 59.4623 123.243 59.5713 122.859 59.6848C105.092 64.9321 87.3653 70.3427 69.9 76.5182C69.573 76.6338 69.1991 76.8003 69.1241 77.1385C69.0447 77.4966 69.3823 77.8387 69.7435 77.9051C70.1047 77.9714 70.4701 77.8425 70.8148 77.7159C88.3179 71.2862 106.084 65.5717 124.055 60.5915C124.441 60.4845 124.378 59.8474 124.027 59.6549Z" fill="#404040"/>
<path fill-rule="evenodd" clip-rule="evenodd" d="M187.329 139.923C186.915 140.104 186.467 140.273 186.022 140.196C185.577 140.12 185.16 139.703 185.25 139.26C186.067 135.217 185.041 130.839 182.51 127.578C181.624 126.435 180.568 125.43 179.704 124.27C179.159 123.539 178.675 122.62 178.951 121.752C179.344 120.516 180.927 120.216 182.222 120.128C185.232 119.923 188.243 119.718 191.254 119.513C192.641 119.419 194.239 119.405 195.164 120.44C197.742 123.324 202.767 123.517 205.559 120.841C205.991 120.427 206.535 121.251 206.518 121.849C206.464 123.729 205.689 125.579 204.385 126.936C204.077 127.257 203.684 127.57 203.242 127.525C202.8 127.479 202.474 126.845 202.827 126.575C203.583 125.995 204.353 125.4 204.883 124.609C205.413 123.818 205.67 122.781 205.308 121.9C203.364 124.357 201.4 126.799 199.418 129.226C195.982 133.434 192.307 137.739 187.329 139.923ZM192.759 127.539C192.265 127.676 191.737 127.571 191.243 127.431C187.69 126.429 184.416 123.656 180.781 124.305C185.02 127.714 187.27 133.429 186.491 138.807C189.284 138.21 191.489 136.128 193.467 134.071C196.395 131.026 199.174 127.84 201.793 124.527C199.911 124.511 198.036 123.969 196.436 122.978C194.46 123.466 194.721 126.997 192.759 127.539ZM195.34 121.941C194.163 120.555 192.047 120.598 190.235 120.757C187.87 120.964 185.506 121.172 183.141 121.379C182.181 121.463 181.079 121.632 180.578 122.454C184.671 123.309 188.66 124.653 192.436 126.447C192.921 124.924 193.894 123.561 195.177 122.605C195.322 122.498 195.487 122.36 195.468 122.181C195.458 122.089 195.4 122.011 195.34 121.941V121.941Z" fill="#E9995E"/>
<path fill-rule="evenodd" clip-rule="evenodd" d="M20.0478 88.8961C16.4865 87.4739 12.2426 87.8956 9.03193 89.9908C8.7211 90.1937 8.27421 89.9676 8.12033 89.6301C7.96646 89.2927 8.02402 88.9001 8.10273 88.5377C9.12815 83.8169 13.2131 80.2047 17.756 78.5447C22.2989 76.8848 27.268 76.8801 32.0972 77.1639C32.5763 77.192 33.0772 77.2295 33.4859 77.4808C33.8946 77.7321 34.1696 78.2694 33.9659 78.7034C32.0662 82.7502 30.6352 87.0161 29.7105 91.389C29.5606 92.0981 28.8261 92.5686 28.1028 92.6277C27.3795 92.6868 26.6707 92.4198 26.0143 92.1107C23.9685 91.1474 22.1479 89.7347 20.0478 88.8961ZM20.4549 84.1194C20.1375 84.3769 19.6414 84.2409 19.3428 83.9619C19.0441 83.6829 18.8739 83.2969 18.6392 82.9625C17.38 81.1689 14.4905 81.3178 12.7777 82.6862C11.0649 84.0547 10.2361 86.2171 9.48139 88.2738C14.5063 86.0943 20.6952 86.8765 25.018 90.2373C25.6082 90.6961 26.1938 91.2131 26.9205 91.3898C27.6473 91.5664 28.5629 91.249 28.7469 90.525C29.7304 86.6575 30.9422 82.848 32.3741 79.1227C29.6267 82.5329 23.8567 81.3595 20.4549 84.1194ZM19.3614 82.0585C19.6436 82.4125 20.1559 82.5064 20.6019 82.4265C21.0479 82.3466 21.4531 82.1248 21.8686 81.9444C23.2993 81.3235 24.8839 81.1849 26.4178 80.9009C27.9517 80.617 29.5337 80.1364 30.6135 79.0121C28.1773 79.0048 25.741 78.9975 23.3047 78.9901C20.8564 78.9828 18.218 79.0346 16.2511 80.4905C17.4485 80.5342 18.6153 81.1224 19.3614 82.0585Z" fill="#E9995E"/>
<path fill-rule="evenodd" clip-rule="evenodd" d="M134.462 88.5699C134.456 86.43 134.45 84.2902 134.445 82.1503C134.443 81.5357 134.441 80.9212 134.44 80.3067C134.439 79.8829 134.51 79.3527 134.913 79.2209C135.218 79.1212 135.554 79.3401 135.697 79.6272C135.839 79.9144 135.837 80.249 135.833 80.5695C135.788 83.5557 135.744 86.5419 135.699 89.5281C135.693 89.9575 135.621 90.486 135.218 90.6366C134.546 90.2568 134.464 89.3407 134.462 88.5699H134.462Z" fill="#404040"/>
<path fill-rule="evenodd" clip-rule="evenodd" d="M130.184 86.5894C129.874 86.7253 129.714 86.2149 129.762 85.8801C129.933 84.6818 130.105 83.4811 130.397 82.3062C130.579 81.5748 130.841 80.8051 131.446 80.3547C132.051 79.9042 133.089 79.983 133.385 80.6762C133.529 81.012 133.469 81.3956 133.403 81.7547C132.996 83.9777 132.447 86.1749 131.762 88.3287C131.733 88.4201 131.701 88.5154 131.632 88.5818C131.463 88.7432 131.159 88.6347 131.042 88.4326C130.925 88.2305 130.94 87.9814 130.959 87.7488C131.237 87.7285 131.367 87.4013 131.434 87.1305C131.707 86.0247 131.981 84.9188 132.254 83.8129C132.466 82.9524 132.66 81.9725 132.166 81.2366C131.657 81.5491 131.466 82.1811 131.315 82.7576C131.011 83.9173 130.707 85.0771 130.402 86.2369C130.366 86.3755 130.315 86.5319 130.184 86.5894L130.184 86.5894Z" fill="#404040"/>
</svg>
