<svg width="90" height="56" viewBox="0 0 90 56" fill="none" xmlns="http://www.w3.org/2000/svg">
<rect width="90" height="56" fill="white"/>
<path d="M19.5118 44V35.48H25.1398V36.44H20.5918V39.284H24.4198V40.184H20.5918V44H19.5118ZM27.6682 44.12C27.3722 44.12 27.0962 44.072 26.8402 43.976C26.5842 43.872 26.3602 43.732 26.1682 43.556C25.9842 43.38 25.8362 43.176 25.7242 42.944C25.6202 42.704 25.5682 42.444 25.5682 42.164C25.5682 41.876 25.6322 41.616 25.7602 41.384C25.8882 41.144 26.0682 40.94 26.3002 40.772C26.5402 40.604 26.8202 40.472 27.1402 40.376C27.4682 40.28 27.8242 40.232 28.2082 40.232C28.5122 40.232 28.8202 40.26 29.1322 40.316C29.4442 40.372 29.7202 40.448 29.9602 40.544V40.04C29.9602 39.528 29.8162 39.128 29.5282 38.84C29.2402 38.544 28.8322 38.396 28.3042 38.396C27.6722 38.396 27.0082 38.64 26.3122 39.128L25.9642 38.444C26.7722 37.9 27.5842 37.628 28.4002 37.628C29.2242 37.628 29.8642 37.848 30.3202 38.288C30.7842 38.728 31.0162 39.348 31.0162 40.148V42.704C31.0162 42.952 31.1282 43.08 31.3522 43.088V44C31.2402 44.016 31.1482 44.028 31.0762 44.036C31.0042 44.044 30.9282 44.048 30.8482 44.048C30.6402 44.048 30.4722 43.988 30.3442 43.868C30.2242 43.74 30.1522 43.588 30.1282 43.412L30.1042 42.968C29.8242 43.344 29.4682 43.632 29.0362 43.832C28.6122 44.024 28.1562 44.12 27.6682 44.12ZM27.9442 43.328C28.3202 43.328 28.6682 43.26 28.9882 43.124C29.3162 42.98 29.5642 42.792 29.7322 42.56C29.8842 42.408 29.9602 42.252 29.9602 42.092V41.168C29.4482 40.968 28.9162 40.868 28.3642 40.868C27.8362 40.868 27.4042 40.98 27.0682 41.204C26.7402 41.428 26.5762 41.72 26.5762 42.08C26.5762 42.256 26.6082 42.42 26.6722 42.572C26.7442 42.724 26.8402 42.856 26.9602 42.968C27.0882 43.08 27.2362 43.168 27.4042 43.232C27.5722 43.296 27.7522 43.328 27.9442 43.328ZM34.7175 44L32.2455 37.736H33.3375L35.3175 43.076L37.3095 37.736H38.3175L35.8455 44H34.7175ZM42.2876 44.12C41.8156 44.12 41.3836 44.032 40.9916 43.856C40.6076 43.68 40.2756 43.444 39.9956 43.148C39.7236 42.852 39.5116 42.508 39.3596 42.116C39.2076 41.724 39.1316 41.312 39.1316 40.88C39.1316 40.44 39.2076 40.024 39.3596 39.632C39.5196 39.24 39.7356 38.896 40.0076 38.6C40.2876 38.304 40.6196 38.068 41.0036 37.892C41.3956 37.716 41.8236 37.628 42.2876 37.628C42.7516 37.628 43.1796 37.716 43.5716 37.892C43.9636 38.068 44.2956 38.304 44.5676 38.6C44.8476 38.896 45.0636 39.24 45.2156 39.632C45.3756 40.024 45.4556 40.44 45.4556 40.88C45.4556 41.312 45.3796 41.724 45.2276 42.116C45.0756 42.508 44.8596 42.852 44.5796 43.148C44.2996 43.444 43.9636 43.68 43.5716 43.856C43.1876 44.032 42.7596 44.12 42.2876 44.12ZM40.2116 40.892C40.2116 41.22 40.2636 41.524 40.3676 41.804C40.4796 42.084 40.6276 42.328 40.8116 42.536C41.0036 42.744 41.2236 42.908 41.4716 43.028C41.7276 43.148 41.9996 43.208 42.2876 43.208C42.5756 43.208 42.8436 43.148 43.0916 43.028C43.3476 42.908 43.5716 42.744 43.7636 42.536C43.9556 42.32 44.1036 42.072 44.2076 41.792C44.3196 41.504 44.3756 41.196 44.3756 40.868C44.3756 40.548 44.3196 40.248 44.2076 39.968C44.1036 39.68 43.9556 39.432 43.7636 39.224C43.5716 39.008 43.3476 38.84 43.0916 38.72C42.8436 38.6 42.5756 38.54 42.2876 38.54C41.9996 38.54 41.7276 38.604 41.4716 38.732C41.2236 38.852 41.0036 39.02 40.8116 39.236C40.6276 39.444 40.4796 39.692 40.3676 39.98C40.2636 40.26 40.2116 40.564 40.2116 40.892ZM50.4472 38.66C49.9192 38.676 49.4512 38.812 49.0432 39.068C48.6432 39.324 48.3592 39.68 48.1912 40.136V44H47.1352V37.736H48.1192V39.188C48.3352 38.756 48.6192 38.408 48.9712 38.144C49.3232 37.872 49.6992 37.72 50.0992 37.688C50.1792 37.688 50.2472 37.688 50.3032 37.688C50.3592 37.688 50.4072 37.692 50.4472 37.7V38.66ZM51.8946 44V37.736H52.9506V44H51.8946ZM51.8946 36.56V35.24H52.9506V36.56H51.8946ZM58.3002 43.688C58.2362 43.72 58.1522 43.76 58.0482 43.808C57.9442 43.848 57.8242 43.892 57.6882 43.94C57.5602 43.98 57.4162 44.012 57.2562 44.036C57.1042 44.068 56.9442 44.084 56.7762 44.084C56.3922 44.084 56.0602 43.98 55.7802 43.772C55.5002 43.556 55.3602 43.224 55.3602 42.776V38.564H54.5082V37.736H55.3602V35.648H56.4162V37.736H57.8202V38.564H56.4162V42.452C56.4322 42.684 56.5082 42.852 56.6442 42.956C56.7802 43.06 56.9402 43.112 57.1242 43.112C57.3322 43.112 57.5202 43.08 57.6882 43.016C57.8642 42.944 57.9842 42.888 58.0482 42.848L58.3002 43.688ZM62.3329 44.12C61.8609 44.12 61.4289 44.032 61.0369 43.856C60.6529 43.68 60.3209 43.444 60.0409 43.148C59.7689 42.852 59.5569 42.508 59.4049 42.116C59.2529 41.724 59.1769 41.312 59.1769 40.88C59.1769 40.44 59.2529 40.024 59.4049 39.632C59.5649 39.24 59.7809 38.896 60.0529 38.6C60.3329 38.304 60.6649 38.068 61.0489 37.892C61.4409 37.716 61.8689 37.628 62.3329 37.628C62.7969 37.628 63.2249 37.716 63.6169 37.892C64.0089 38.068 64.3409 38.304 64.6129 38.6C64.8929 38.896 65.1089 39.24 65.2609 39.632C65.4209 40.024 65.5009 40.44 65.5009 40.88C65.5009 41.312 65.4249 41.724 65.2729 42.116C65.1209 42.508 64.9049 42.852 64.6249 43.148C64.3449 43.444 64.0089 43.68 63.6169 43.856C63.2329 44.032 62.8049 44.12 62.3329 44.12ZM60.2569 40.892C60.2569 41.22 60.3089 41.524 60.4129 41.804C60.5249 42.084 60.6729 42.328 60.8569 42.536C61.0489 42.744 61.2689 42.908 61.5169 43.028C61.7729 43.148 62.0449 43.208 62.3329 43.208C62.6209 43.208 62.8889 43.148 63.1369 43.028C63.3929 42.908 63.6169 42.744 63.8089 42.536C64.0009 42.32 64.1489 42.072 64.2529 41.792C64.3649 41.504 64.4209 41.196 64.4209 40.868C64.4209 40.548 64.3649 40.248 64.2529 39.968C64.1489 39.68 64.0009 39.432 63.8089 39.224C63.6169 39.008 63.3929 38.84 63.1369 38.72C62.8889 38.6 62.6209 38.54 62.3329 38.54C62.0449 38.54 61.7729 38.604 61.5169 38.732C61.2689 38.852 61.0489 39.02 60.8569 39.236C60.6729 39.444 60.5249 39.692 60.4129 39.98C60.3089 40.26 60.2569 40.564 60.2569 40.892ZM69.3765 44.12C68.8725 44.12 68.3765 44.044 67.8885 43.892C67.4005 43.732 66.9805 43.504 66.6285 43.208L67.0845 42.5C67.4525 42.78 67.8205 42.992 68.1885 43.136C68.5565 43.272 68.9445 43.34 69.3525 43.34C69.8085 43.34 70.1685 43.252 70.4325 43.076C70.7045 42.892 70.8405 42.636 70.8405 42.308C70.8405 42.156 70.8045 42.028 70.7325 41.924C70.6605 41.812 70.5525 41.716 70.4085 41.636C70.2645 41.556 70.0805 41.484 69.8565 41.42C69.6325 41.356 69.3725 41.288 69.0765 41.216C68.7005 41.12 68.3765 41.028 68.1045 40.94C67.8325 40.852 67.6085 40.748 67.4325 40.628C67.2565 40.508 67.1285 40.364 67.0485 40.196C66.9685 40.028 66.9285 39.82 66.9285 39.572C66.9285 39.26 66.9885 38.984 67.1085 38.744C67.2365 38.496 67.4085 38.292 67.6245 38.132C67.8405 37.964 68.0925 37.84 68.3805 37.76C68.6765 37.672 68.9925 37.628 69.3285 37.628C69.8005 37.628 70.2405 37.704 70.6485 37.856C71.0565 38.008 71.4005 38.208 71.6805 38.456L71.2005 39.092C70.9365 38.86 70.6405 38.688 70.3125 38.576C69.9845 38.456 69.6485 38.396 69.3045 38.396C68.9205 38.396 68.5925 38.48 68.3205 38.648C68.0565 38.808 67.9245 39.068 67.9245 39.428C67.9245 39.572 67.9485 39.692 67.9965 39.788C68.0525 39.884 68.1405 39.968 68.2605 40.04C68.3805 40.112 68.5325 40.176 68.7165 40.232C68.9085 40.288 69.1365 40.348 69.4005 40.412C69.8165 40.508 70.1765 40.608 70.4805 40.712C70.7925 40.808 71.0485 40.924 71.2485 41.06C71.4565 41.196 71.6085 41.356 71.7045 41.54C71.8085 41.724 71.8605 41.948 71.8605 42.212C71.8605 42.796 71.6365 43.26 71.1885 43.604C70.7405 43.948 70.1365 44.12 69.3765 44.12Z" fill="#F8E3D3"/>
<path d="M49.5 11C47.76 11 46.09 11.81 45 13.09C43.91 11.81 42.24 11 40.5 11C37.42 11 35 13.42 35 16.5C35 20.28 38.4 23.36 43.55 28.04L45 29.35L46.45 28.03C51.6 23.36 55 20.28 55 16.5C55 13.42 52.58 11 49.5 11ZM45.1 26.55L45 26.65L44.9 26.55C40.14 22.24 37 19.39 37 16.5C37 14.5 38.5 13 40.5 13C42.04 13 43.54 13.99 44.07 15.36H45.94C46.46 13.99 47.96 13 49.5 13C51.5 13 53 14.5 53 16.5C53 19.39 49.86 22.24 45.1 26.55Z" fill="#F8E3D3"/>
</svg>
