<svg width="220" height="222" viewBox="0 0 220 222" fill="none" xmlns="http://www.w3.org/2000/svg">
<path fill-rule="evenodd" clip-rule="evenodd" d="M194.066 116.232C194.549 175.897 168.558 219.484 118.867 221.958C82.65 223.762 104.315 166.703 58.9247 128.818C29.8702 104.568 10.6935 41.5614 82.3016 25.2702C153.91 8.97917 193.584 56.567 194.066 116.232Z" fill="#F8E3D3"/>
<path d="M47.4322 202.87C42.9244 194.525 43.6606 184.428 44.5912 174.981C46.7318 153.252 50.0276 129.852 65.1854 114.195C69.1944 110.054 74.0879 106.543 79.7038 105.296C84.0556 104.33 88.248 102.644 92.0611 100.327C92.9801 94.9228 87.9158 90.667 84.3776 86.4909C80.4153 81.8144 77.9435 75.8838 77.4075 69.7674C77.0902 66.1469 76.3332 61.214 72.717 61.0596C69.7445 60.9328 67.5066 57.3311 68.6999 54.5944C69.8931 51.8577 74.0466 51.0659 76.1557 53.1731C73.1472 41.8474 79.5027 28.7802 90.2477 24.1994C88.4957 21.6834 92.3199 18.6682 95.3561 19.0286C98.3923 19.3889 101.331 21.2305 104.312 20.5501C103.291 18.7436 104.928 16.3435 106.945 15.8808C108.962 15.418 111.031 16.2973 112.841 17.3051C124.454 23.7747 132.128 36.8219 132.165 50.1575C132.465 47.7234 136.103 46.8898 137.882 48.5703C139.661 50.2508 139.577 53.2587 138.313 55.3579C137.05 57.4571 134.897 58.8353 132.765 60.0334C132.819 68.8769 129.47 77.6981 123.566 84.2608C119.27 89.0362 113.184 94.1018 114.594 100.379C116.879 99.8716 119.191 102.519 118.391 104.728C128.189 103.908 137.333 109.846 144.274 116.838C154.45 127.087 161.764 140.172 165.176 154.233C165.772 156.689 169.252 157.359 171.405 156.048C173.558 154.738 174.665 152.26 175.646 149.931L195.027 103.94C193.778 97.7446 194.789 91.3409 195.801 85.1016L199.161 64.3946C199.466 62.515 200.775 60.0347 202.504 60.8183C203.101 61.089 203.434 61.6743 203.645 62.3193C203.743 62.6183 203.814 62.9302 203.873 63.2294C204.921 68.539 205.256 73.9901 204.866 79.3887L211.575 67.8642C212.661 65.9992 214.911 63.9361 216.59 64.7077C217.221 64.8321 217.649 65.4645 217.739 66.1095C217.979 66.9864 217.776 68.0406 217.503 68.9502C216.279 73.024 214.284 76.8627 211.656 80.2005C215.199 81.4141 219.303 83.2569 219.924 86.9641C219.555 93.685 214.622 101.401 210.985 105.407C211.819 104.901 212.365 106.406 212.199 107.37C208.209 130.548 198.487 152.709 184.149 171.31C179.918 176.799 175.004 181.047 167.295 181.813C156.79 182.857 149.901 167.297 144.197 167.713C144.197 167.713 138.859 195.388 134.994 199.084C131.129 202.78 105.73 210.542 98.0766 207.955C90.423 205.367 82.7674 212.286 72.717 211.593C62.3007 210.874 47.4322 202.87 47.4322 202.87Z" fill="white"/>
<path d="M207.054 110.416C206.963 110.294 206.901 110.15 206.874 110C206.774 109.433 207.28 108.839 207.853 108.851C208.427 108.863 208.908 109.476 208.785 110.039C208.662 110.601 207.97 110.956 207.444 110.726C207.29 110.659 207.154 110.551 207.054 110.416Z" fill="#404040"/>
<path d="M113.433 51.2365C113.043 51.1482 112.853 50.6574 112.961 50.2709C113.069 49.8845 113.385 49.5948 113.712 49.3636C115.937 47.7888 119.322 48.1964 121.113 50.2547C121.256 50.4187 121.396 50.6111 121.389 50.8288C121.382 51.0465 121.145 51.2574 120.952 51.1567C119.944 50.6286 118.916 50.0937 117.797 49.8898C116.678 49.686 115.433 49.8603 114.582 50.6171C114.242 50.919 113.876 51.3368 113.433 51.2365Z" fill="#404040"/>
<path d="M94.3324 51.1602C94.2104 51.5377 93.7208 51.6757 93.3402 51.5689C92.9595 51.4621 92.6537 51.1864 92.3311 50.9572C91.2704 50.2036 89.9254 49.9158 88.6288 50.0003C87.3322 50.0848 86.0782 50.5208 84.9168 51.1057C84.6506 51.2398 84.3338 50.9286 84.3502 50.6301C84.3666 50.3316 84.5901 50.0892 84.8157 49.8941C86.0238 48.8494 87.6658 48.3723 89.2581 48.4546C90.8503 48.537 92.3894 49.1509 93.7008 50.0614C94.0734 50.3201 94.4723 50.7276 94.3324 51.1602Z" fill="#404040"/>
<path d="M207.601 114.63C207.466 114.812 207.273 114.939 207.077 115.051C206.873 115.166 206.649 115.272 206.416 115.254C206.106 115.23 205.847 114.985 205.72 114.701C205.405 114 205.939 113.042 206.704 113.014C207.47 112.987 208.06 114.015 207.601 114.63Z" fill="#404040"/>
<path d="M139.514 143.854C139.886 144.025 139.621 144.628 139.242 144.782C138.863 144.936 138.385 144.94 138.138 145.268C137.963 145.5 137.97 145.82 137.987 146.111C138.023 146.707 138.061 147.34 137.778 147.865C137.495 148.39 136.758 148.714 136.286 148.35C135.853 148.017 135.892 147.369 135.877 146.821C135.862 146.273 135.588 145.587 135.042 145.612C132.373 145.734 129.704 145.857 127.034 145.98C126.696 145.995 126.311 145.993 126.08 145.743C125.764 145.402 125.979 144.8 126.377 144.562C126.776 144.323 127.271 144.343 127.735 144.37C129.696 144.484 131.657 144.597 133.619 144.711C133.924 144.729 134.243 144.744 134.519 144.612C134.794 144.481 135.002 144.151 134.89 143.866C134.59 143.102 134.989 142.134 135.738 141.806C135.998 141.692 136.116 141.39 136.181 141.112C136.245 140.835 136.292 140.532 136.488 140.327C136.685 140.122 137.099 140.108 137.202 140.374C137.441 140.987 138.025 141.382 138.435 141.895C138.846 142.408 139.036 143.26 138.516 143.661C138.545 144.037 139.173 143.697 139.514 143.854Z" fill="#404040"/>
<path d="M87.3073 74.669C86.9349 74.6463 86.7802 74.0469 87.0949 73.8454C87.4905 73.8172 87.6645 74.4974 87.3044 74.6642L87.3073 74.669Z" fill="#E9995E"/>
<path d="M117.083 65.2857C116.976 65.092 117.088 64.8128 117.299 64.7474C117.509 64.6819 117.759 64.8491 117.779 65.0695C117.721 65.3562 117.304 65.4863 117.094 65.2834L117.083 65.2857Z" fill="#E9995E"/>
<path d="M115.834 61.5921C115.677 61.9047 115.108 61.8175 115.05 61.472C115.165 61.3146 115.331 61.1947 115.516 61.1344C115.672 61.2501 115.793 61.4146 115.857 61.5993L115.834 61.5921Z" fill="#E9995E"/>
<path d="M108.214 75.5248C108.448 75.5092 108.684 75.6498 108.782 75.8629C108.703 76.104 108.405 76.2711 108.181 76.1528C107.958 76.0345 107.979 75.6202 108.227 75.5722L108.214 75.5248Z" fill="#E9995E"/>
<path d="M115.206 75.8739C115.321 75.5859 115.855 75.6958 115.848 76.0061C115.687 76.1667 115.478 76.2781 115.255 76.322C115.075 76.2603 115.031 75.9759 115.183 75.8617L115.206 75.8739Z" fill="#E9995E"/>
<path d="M103.171 62.8662C102.935 62.8672 102.762 63.1715 102.881 63.3759C102.999 63.5803 103.348 63.5787 103.465 63.3733C103.582 63.1678 103.406 62.8651 103.171 62.8662Z" fill="#E9995E"/>
<path d="M88.961 66.472C88.7711 66.3292 88.4481 66.468 88.4199 66.7046C88.3917 66.9411 88.673 67.1526 88.8911 67.0588C89.1092 66.9651 89.151 66.6147 88.961 66.472Z" fill="#E9995E"/>
<path d="M120.718 67.0402C120.491 67.115 120.233 66.8599 120.302 66.63C120.37 66.4001 120.719 66.3252 120.877 66.5047C121.036 66.6842 120.925 67.0197 120.692 67.072L120.718 67.0402Z" fill="#E9995E"/>
<path d="M101.817 74.0778C101.729 73.8563 101.382 73.8053 101.234 73.9924C101.087 74.1795 101.217 74.5075 101.452 74.542C101.687 74.5764 101.905 74.2993 101.817 74.0778Z" fill="#E9995E"/>
<path d="M101.446 79.9312C101.281 79.9796 101.154 79.7779 101.125 79.6075C101.288 79.2977 101.852 79.3842 101.915 79.7286C101.816 79.8798 101.623 79.9633 101.446 79.9326L101.446 79.9312Z" fill="#E9995E"/>
<path d="M103.699 79.6541C103.443 79.7175 103.083 79.5918 103.109 79.3284C103.261 79.1703 103.5 79.0564 103.698 79.1496C103.897 79.2427 103.908 79.6098 103.692 79.646L103.699 79.6541Z" fill="#E9995E"/>
<path d="M115.254 79.5332C115.149 79.4551 115.076 79.333 115.058 79.2025C115.169 79.0431 115.333 78.9224 115.518 78.8656C115.628 78.9763 115.737 79.087 115.846 79.1977C115.726 79.4056 115.493 79.5435 115.254 79.549L115.254 79.5332Z" fill="#E9995E"/>
<path d="M105.159 63.5304C104.972 63.7853 104.485 63.661 104.442 63.3474C104.601 63.0081 105.234 63.1594 105.224 63.5343L105.159 63.5304Z" fill="#E9995E"/>
<path d="M110.343 76.0621C110.132 76.2667 109.703 76.0531 109.738 75.7603C109.773 75.4674 110.239 75.3604 110.397 75.6091C110.28 75.6949 110.233 75.8639 110.288 75.9982L110.343 76.0621Z" fill="#E9995E"/>
<path d="M97.4407 62.9627C97.6677 62.8879 97.9251 63.143 97.857 63.3729C97.7888 63.6028 97.4399 63.6777 97.2814 63.4982C97.1229 63.3188 97.2337 62.9832 97.4668 62.9309L97.4407 62.9627Z" fill="#E9995E"/>
<path d="M102.981 70.4098C103.203 70.2231 103.609 70.3855 103.642 70.6748C103.489 70.814 103.281 70.9285 103.084 70.8689C102.887 70.8092 102.793 70.4951 102.972 70.3932L102.981 70.4098Z" fill="#E9995E"/>
<path d="M108.035 72.2781C108.188 71.9664 108.754 72.0484 108.812 72.3908C108.643 72.7022 108.077 72.6187 108.003 72.2715L108.035 72.2781Z" fill="#E9995E"/>
<path d="M108.347 74.0666C108.504 73.8354 108.949 73.9853 108.935 74.2645C108.833 74.4258 108.67 74.547 108.487 74.5972C108.304 74.4988 108.229 74.2394 108.332 74.0582L108.347 74.0666Z" fill="#E9995E"/>
<path d="M115.719 63.201C115.573 63.0103 115.222 63.0566 115.13 63.2785C115.038 63.5005 115.254 63.783 115.491 63.7517C115.729 63.7205 115.864 63.3917 115.719 63.201Z" fill="#E9995E"/>
<path d="M111.941 80.8774C111.986 80.6695 112.35 80.7702 112.373 80.9817C112.395 81.1933 112.225 81.3704 112.068 81.5136C111.949 81.4371 111.823 81.352 111.773 81.2196C111.723 81.0873 111.798 80.901 111.939 80.8972L111.941 80.8774Z" fill="#E9995E"/>
<path d="M94.3818 61.4121C94.2941 61.1906 93.9462 61.1396 93.799 61.3267C93.6518 61.5137 93.7818 61.8418 94.0167 61.8762C94.2517 61.9106 94.4696 61.6336 94.3818 61.4121Z" fill="#E9995E"/>
<path d="M103.419 80.8778C103.299 80.686 102.965 80.6988 102.86 80.8992C102.755 81.0996 102.933 81.3837 103.158 81.375C103.384 81.3664 103.54 81.0696 103.419 80.8778Z" fill="#E9995E"/>
<path d="M88.6256 73.7397C88.7525 73.5956 89.012 73.7707 89.0064 73.963C89.0008 74.1552 88.8465 74.3055 88.7032 74.4332C88.3949 74.3838 88.3425 73.8534 88.6352 73.7442L88.6256 73.7397Z" fill="#E9995E"/>
<path d="M105.165 77.8035C105.035 77.8847 104.904 77.9659 104.773 78.0471C104.535 77.959 104.507 77.5607 104.731 77.4397C104.955 77.3187 105.27 77.5619 105.212 77.8105L105.165 77.8035Z" fill="#E9995E"/>
<path d="M120.389 73.928C120.316 73.7012 120.757 73.628 120.844 73.8498C120.931 74.0716 120.756 74.3112 120.56 74.446C120.367 74.3598 120.241 74.1407 120.264 73.9296L120.389 73.928Z" fill="#E9995E"/>
<path d="M115.056 74.1351C115.199 73.9276 115.513 73.8636 115.725 73.9983C115.781 74.309 115.389 74.5945 115.112 74.4451C115.085 74.3431 115.058 74.2411 115.03 74.1391L115.056 74.1351Z" fill="#E9995E"/>
<path d="M93.9886 72.0288C94.2155 71.9539 94.473 72.209 94.4049 72.4389C94.3367 72.6688 93.9877 72.7437 93.8293 72.5643C93.6708 72.3848 93.7816 72.0493 94.0147 71.9969L93.9886 72.0288Z" fill="#E9995E"/>
<path d="M118.628 59.8689C118.631 59.669 118.838 59.4983 119.034 59.5353C119.23 59.5722 119.361 59.8068 119.292 59.994C119.086 60.1506 118.755 60.1021 118.603 59.8928L118.628 59.8689Z" fill="#E9995E"/>
<path d="M113.593 70.4002C113.784 70.2459 114.126 70.4206 114.114 70.6667C113.946 70.9293 113.497 70.9295 113.329 70.667C113.417 70.5784 113.505 70.4898 113.594 70.4011L113.593 70.4002Z" fill="#E9995E"/>
<path d="M91.8779 75.6626C92.071 75.4576 92.4545 75.4926 92.6076 75.7292C92.4914 75.8905 92.3389 76.0554 92.141 76.065C91.943 76.0745 91.7559 75.816 91.8929 75.6722L91.8779 75.6626Z" fill="#E9995E"/>
<path d="M120.763 77.7328C120.684 77.8385 120.563 77.9114 120.434 77.9315C120.197 77.796 120.198 77.3735 120.452 77.2755C120.706 77.1775 120.98 77.573 120.776 77.7544L120.763 77.7328Z" fill="#E9995E"/>
<path d="M88.8591 77.8408C89.0446 77.7112 89.0166 77.3763 88.8121 77.2797C88.6076 77.1831 88.3327 77.375 88.3517 77.6011C88.3706 77.8273 88.6735 77.9703 88.8591 77.8408Z" fill="#E9995E"/>
<path d="M120.659 70.954C120.474 71.1443 120.161 70.749 120.34 70.5531C120.52 70.3571 120.868 70.4573 121.028 70.6694C120.918 70.78 120.807 70.8905 120.697 71.0011L120.659 70.954Z" fill="#E9995E"/>
<path d="M86.7965 61.8645C86.7457 61.5413 87.2669 61.3302 87.4536 61.5983C87.2985 61.803 87.1433 62.0078 86.9881 62.2125C86.8751 62.1334 86.7966 62.0064 86.7762 61.8696L86.7965 61.8645Z" fill="#E9995E"/>
<path d="M88.7936 70.954C88.608 71.1443 88.295 70.749 88.4746 70.5531C88.6541 70.3571 89.0017 70.4573 89.162 70.6694C89.0518 70.78 88.9415 70.8905 88.8312 71.0011L88.7936 70.954Z" fill="#E9995E"/>
<path d="M117.074 61.7133C116.916 61.5616 116.947 61.2605 117.133 61.1443C117.318 61.0282 117.601 61.1336 117.667 61.3434C117.574 61.5551 117.34 61.695 117.11 61.6751L117.074 61.7133Z" fill="#E9995E"/>
<path d="M93.6871 63.3435C93.8334 63.0806 94.2723 63.0652 94.4365 63.3173C94.3847 63.6861 93.7277 63.706 93.6538 63.341L93.6871 63.3435Z" fill="#E9995E"/>
<path d="M107.059 64.8659C107.063 65.0538 106.998 65.2425 106.879 65.3878C106.673 65.5042 106.397 65.2436 106.469 65.0172C106.54 64.7908 106.859 64.7097 107.055 64.8425L107.059 64.8659Z" fill="#E9995E"/>
<path d="M101.644 77.5547C101.578 77.341 101.255 77.2683 101.104 77.433C100.953 77.5976 101.052 77.9142 101.269 77.9632C101.487 78.0123 101.71 77.7685 101.644 77.5547Z" fill="#E9995E"/>
<path d="M108.585 79.3166C108.681 79.5695 108.491 79.8877 108.224 79.9218C108.047 79.8466 107.965 79.6056 108.058 79.4373C108.151 79.269 108.398 79.2122 108.555 79.323L108.585 79.3166Z" fill="#E9995E"/>
<path d="M97.2478 81.1996C97.248 80.9568 97.3908 80.7196 97.6048 80.6066C97.7597 80.7622 97.8707 81.0022 97.776 81.2006C97.6813 81.399 97.3151 81.405 97.2833 81.1873L97.2478 81.1996Z" fill="#E9995E"/>
<path d="M117.15 79.1809C117.335 78.9907 117.648 79.3859 117.469 79.5819C117.289 79.7778 116.942 79.6776 116.781 79.4656C116.892 79.355 117.002 79.2444 117.112 79.1339L117.15 79.1809Z" fill="#E9995E"/>
<path d="M101.35 63.182C101.535 62.9917 101.848 63.387 101.669 63.5829C101.489 63.7789 101.142 63.6787 100.981 63.4666C101.091 63.356 101.202 63.2455 101.312 63.1349L101.35 63.182Z" fill="#E9995E"/>
<path d="M90.4293 74.3343C90.2939 74.1869 90.4785 73.9274 90.6781 73.9338C90.8777 73.9403 91.0342 74.1058 91.1451 74.2725C90.9875 74.5036 90.6121 74.5385 90.4149 74.3404L90.4293 74.3343Z" fill="#E9995E"/>
<path d="M94.2709 68.1879C94.4598 68.1728 94.5358 68.4704 94.4061 68.6091C94.2764 68.7479 94.061 68.7544 93.8727 68.7325C93.701 68.4976 94.0002 68.1102 94.2695 68.2186L94.2709 68.1879Z" fill="#E9995E"/>
<path d="M103.568 84.8649C103.371 85.1175 102.884 84.9876 102.838 84.6701C103.006 84.3705 103.57 84.5221 103.567 84.866L103.568 84.8649Z" fill="#E9995E"/>
<path d="M93.7898 74.4354C93.6845 74.2288 93.8231 73.9341 94.0518 73.8997C94.2804 73.8654 94.5015 74.1284 94.4159 74.3441C94.3304 74.5598 93.9695 74.585 93.8667 74.3771L93.7898 74.4354Z" fill="#E9995E"/>
<path d="M101.313 81.3976C101.147 81.4512 101.028 81.2387 100.984 81.0696C101.154 80.8072 101.601 80.8046 101.774 81.0649C101.661 81.2229 101.498 81.344 101.314 81.4061L101.313 81.3976Z" fill="#E9995E"/>
<path d="M102.813 66.933C102.877 66.5899 103.43 66.4923 103.606 66.7929C103.523 67.114 103.022 67.2114 102.826 66.9447L102.813 66.933Z" fill="#E9995E"/>
<path d="M120.764 72.3551C120.697 72.1414 120.375 72.0687 120.224 72.2333C120.073 72.398 120.171 72.7145 120.389 72.7636C120.606 72.8127 120.83 72.5688 120.764 72.3551Z" fill="#E9995E"/>
<path d="M105.362 74.4017C105.171 74.556 104.829 74.3813 104.841 74.1352C105.009 73.8727 105.458 73.8725 105.626 74.1349C105.538 74.2235 105.45 74.3122 105.362 74.4008L105.362 74.4017Z" fill="#E9995E"/>
<path d="M101.576 84.336C101.742 84.2829 101.862 84.495 101.906 84.6642C101.736 84.9266 101.289 84.9292 101.116 84.6689C101.229 84.5109 101.392 84.3898 101.576 84.3277L101.576 84.336Z" fill="#E9995E"/>
<path d="M122.755 59.6018C122.842 59.6892 122.929 59.7765 123.016 59.8639C122.862 60.1006 122.463 60.183 122.308 59.9471C122.152 59.7112 122.589 59.3764 122.717 59.6283L122.755 59.6018Z" fill="#E9995E"/>
<path d="M115.263 65.39C115.434 65.5408 115.754 65.4321 115.798 65.2079C115.843 64.9837 115.589 64.7604 115.374 64.8338C115.158 64.9071 115.092 65.2392 115.263 65.39Z" fill="#E9995E"/>
<path d="M104.641 79.5415C104.709 79.3815 104.96 79.345 105.071 79.4787C105.195 79.6803 105.082 80.0055 104.847 80.0326C104.612 80.0598 104.452 79.6775 104.657 79.561L104.641 79.5415Z" fill="#E9995E"/>
<path d="M94.0082 75.67C94.1743 75.6169 94.2934 75.8292 94.3377 75.9985C94.2264 76.1574 94.0622 76.2782 93.8778 76.3369C93.7732 76.2546 93.7005 76.1323 93.678 76.0007C93.7885 75.8896 93.8989 75.7785 94.0094 75.6674L94.0082 75.67Z" fill="#E9995E"/>
<path d="M117.691 70.7254C117.737 71.0362 117.284 71.2749 117.056 71.0602C116.958 70.7491 117.47 70.4608 117.643 70.7367L117.691 70.7254Z" fill="#E9995E"/>
<path d="M99.7153 70.4732C99.8672 70.5663 99.9513 70.759 99.9167 70.9342C99.7279 71.0078 99.5199 71.0313 99.3196 71.0016C99.2576 70.9037 99.2339 70.7821 99.2547 70.668C99.4094 70.6012 99.5641 70.5345 99.7187 70.4678L99.7153 70.4732Z" fill="#E9995E"/>
<path d="M108.491 77.529C108.56 77.6713 108.576 77.8385 108.536 77.9915C108.356 78.149 108.017 78.0031 108.007 77.7633C107.996 77.5235 108.321 77.3484 108.514 77.4895L108.491 77.529Z" fill="#E9995E"/>
<path d="M119.426 74.3876C119.216 74.5795 118.811 74.4267 118.779 74.1433C118.849 73.9794 119.058 73.8914 119.223 73.9562C119.389 74.0209 119.483 74.2276 119.424 74.3958L119.426 74.3876Z" fill="#E9995E"/>
<path d="M101.642 61.5993C101.763 61.6812 101.817 61.8508 101.766 61.9884C101.583 62.1619 101.217 62.1035 101.154 61.859C101.091 61.6145 101.495 61.4071 101.618 61.6274L101.642 61.5993Z" fill="#E9995E"/>
<path d="M88.914 72.4651C88.9255 72.2408 88.6477 72.06 88.4485 72.1621C88.2494 72.2642 88.2324 72.5962 88.42 72.7183C88.6076 72.8405 88.9025 72.6893 88.914 72.4651Z" fill="#E9995E"/>
<path d="M106.617 71.1797C106.397 71.1095 106.381 70.7437 106.584 70.6342C106.787 70.5246 107.069 70.7017 107.085 70.9327C106.99 71.0837 106.798 71.1664 106.624 71.1317L106.617 71.1797Z" fill="#E9995E"/>
<path d="M88.5553 63.1768C88.4079 62.9782 88.8666 62.8081 88.9707 63.0326C89.0748 63.2571 88.8901 63.5107 88.6894 63.6546C88.5436 63.5606 88.4658 63.3712 88.5033 63.2013L88.5553 63.1768Z" fill="#E9995E"/>
<path d="M103.369 77.7333C103.29 77.8392 103.169 77.9121 103.038 77.932C102.933 77.8547 102.861 77.7331 102.844 77.6032C102.949 77.4438 103.114 77.3247 103.297 77.2746C103.478 77.3366 103.527 77.6207 103.377 77.7395L103.369 77.7333Z" fill="#E9995E"/>
<path d="M119.037 77.8673C118.882 77.9339 118.728 78.0006 118.573 78.0672C118.467 77.983 118.393 77.8598 118.368 77.7268C118.506 77.6136 118.664 77.4976 118.841 77.5119C119.018 77.5262 119.171 77.7531 119.054 77.8873L119.037 77.8673Z" fill="#E9995E"/>
<path d="M106.653 79.0768C106.804 79.1556 106.955 79.2344 107.107 79.3132C106.942 79.488 106.724 79.6114 106.49 79.6624C106.384 79.5852 106.311 79.4637 106.293 79.3337C106.371 79.2276 106.493 79.1549 106.623 79.1366L106.653 79.0768Z" fill="#E9995E"/>
<path d="M88.8955 79.1981C89.017 79.2799 89.0712 79.4495 89.0198 79.5871C88.8371 79.7606 88.4702 79.7022 88.4073 79.4577C88.3444 79.2132 88.7491 79.0058 88.8719 79.2261L88.8955 79.1981Z" fill="#E9995E"/>
<path d="M101.266 72.6642C101.32 72.9824 101.925 72.8805 101.872 72.5622C101.819 72.244 101.213 72.3459 101.266 72.6642Z" fill="#E9995E"/>
<path d="M108.145 64.6164C108.43 64.5857 108.67 64.9511 108.53 65.2026C108.391 65.3098 108.165 65.275 108.065 65.1309C107.964 64.9867 108.009 64.762 108.157 64.6676L108.145 64.6164Z" fill="#E9995E"/>
<path d="M87.0115 72.3795C87.1673 72.2233 87.4647 72.4594 87.3954 72.6693C87.3261 72.8792 87.0374 72.9459 86.8407 72.8465C86.7086 72.6946 86.7884 72.4151 86.9807 72.3566L87.0115 72.3795Z" fill="#E9995E"/>
<path d="M101.31 68.5987C101.47 68.3685 101.915 68.5226 101.9 68.8033C101.771 68.981 101.523 69.0602 101.315 68.9898C101.218 68.8834 101.214 68.704 101.307 68.5935L101.31 68.5987Z" fill="#E9995E"/>
<path d="M117.243 63.0035C117.351 63.0747 117.422 63.1994 117.429 63.3292C117.316 63.6154 116.786 63.5119 116.788 63.2039C116.878 63.051 117.071 62.9672 117.244 63.0057L117.243 63.0035Z" fill="#E9995E"/>
<path d="M92.5029 81.1657C92.6083 81.3723 92.4696 81.667 92.241 81.7014C92.0123 81.7358 91.7913 81.4727 91.8768 81.257C91.9623 81.0413 92.3232 81.0162 92.4261 81.2241L92.5029 81.1657Z" fill="#E9995E"/>
<path d="M97.3284 77.5405C97.5493 77.5166 97.8319 77.5271 97.9162 77.7334C97.8166 77.8923 97.6536 78.0099 97.4718 78.054C97.367 77.9964 97.2552 77.9314 97.2069 77.8216C97.1585 77.7119 97.2185 77.5501 97.3379 77.5467L97.3284 77.5405Z" fill="#E9995E"/>
<path d="M120.697 63.535C120.909 63.4611 120.972 63.1333 120.802 62.986C120.632 62.8386 120.318 62.9481 120.276 63.1694C120.234 63.3907 120.485 63.609 120.697 63.535Z" fill="#E9995E"/>
<path d="M112.13 64.936C112.366 65.0805 112.216 65.5354 111.941 65.5104C111.784 65.4568 111.689 65.2649 111.742 65.1068C111.794 64.9487 111.985 64.8526 112.143 64.9047L112.13 64.936Z" fill="#E9995E"/>
<path d="M105.19 80.9414C105.129 80.6328 104.542 80.7499 104.603 81.0585C104.664 81.3671 105.251 81.2499 105.19 80.9414Z" fill="#E9995E"/>
<path d="M90.1312 63.4606C90.1923 63.7691 90.7791 63.652 90.7181 63.3434C90.657 63.0349 90.0701 63.152 90.1312 63.4606Z" fill="#E9995E"/>
<path d="M119.235 79.6636C119.092 79.9009 118.639 79.7509 118.663 79.4741C118.717 79.3163 118.908 79.2211 119.065 79.274C119.223 79.3268 119.318 79.5182 119.267 79.6766L119.235 79.6636Z" fill="#E9995E"/>
<path d="M88.7557 61.1778C88.9848 61.0904 89.2521 61.3729 89.1536 61.5982C88.9512 61.707 88.6948 61.7076 88.4919 61.5996C88.5185 61.4367 88.6249 61.2888 88.7705 61.212L88.7557 61.1778Z" fill="#E9995E"/>
<path d="M101.447 65.3996C101.339 65.3283 101.268 65.2036 101.261 65.0739C101.374 64.7876 101.904 64.8912 101.902 65.1992C101.811 65.3521 101.618 65.4359 101.445 65.3974L101.447 65.3996Z" fill="#E9995E"/>
<path d="M111.741 76.2667C111.639 76.0805 111.813 75.8127 112.024 75.8287C112.235 75.8448 112.368 76.1313 112.246 76.3054C112.125 76.4795 111.814 76.4547 111.719 76.2648L111.741 76.2667Z" fill="#E9995E"/>
<path d="M106.293 66.937C106.364 66.8284 106.488 66.7568 106.617 66.75C106.902 66.8637 106.799 67.3957 106.492 67.3937C106.34 67.3028 106.257 67.1089 106.295 66.9352L106.293 66.937Z" fill="#E9995E"/>
<path d="M120.99 61.2641C121.005 61.3762 121.021 61.4883 121.036 61.6003C120.83 61.7053 120.575 61.706 120.369 61.6023C120.362 61.3087 120.731 61.082 120.988 61.2224L120.99 61.2641Z" fill="#E9995E"/>
<path d="M99.9157 82.8013C99.7764 82.5207 99.2427 82.7879 99.3821 83.0685C99.5214 83.3491 100.055 83.0819 99.9157 82.8013Z" fill="#E9995E"/>
<path d="M112.274 68.5267C112.053 68.3063 111.633 68.7301 111.854 68.9505C112.075 69.1709 112.495 68.7471 112.274 68.5267Z" fill="#E9995E"/>
<path d="M106.82 61.3361C106.681 61.0555 106.147 61.3227 106.286 61.6033C106.426 61.8839 106.959 61.6167 106.82 61.3361Z" fill="#E9995E"/>
<path d="M119.053 76.1267C118.918 75.8347 118.363 76.0935 118.498 76.3855C118.633 76.6775 119.188 76.4187 119.053 76.1267Z" fill="#E9995E"/>
<path d="M88.3072 76.0638C88.4439 76.3422 88.9735 76.08 88.8367 75.8016C88.7 75.5232 88.1705 75.7854 88.3072 76.0638Z" fill="#E9995E"/>
<path d="M110.272 81.3314C110.201 81.44 110.077 81.5116 109.948 81.5184C109.663 81.4047 109.766 80.8727 110.073 80.8747C110.225 80.9656 110.309 81.1595 110.27 81.3332L110.272 81.3314Z" fill="#E9995E"/>
<path d="M99.9771 72.3378C99.8404 72.0594 99.3109 72.3216 99.4476 72.6C99.5843 72.8785 100.114 72.6162 99.9771 72.3378Z" fill="#E9995E"/>
<path d="M117.238 66.7367C117.406 66.9128 117.228 67.2678 116.987 67.237C116.812 67.1862 116.716 66.9572 116.801 66.7957C116.887 66.6341 117.13 66.5862 117.27 66.7033L117.238 66.7367Z" fill="#E9995E"/>
<path d="M104.698 84.9334C104.61 84.8449 104.522 84.7564 104.434 84.6679C104.598 84.4044 105.045 84.3992 105.214 84.6588C105.13 84.8579 104.909 84.9896 104.694 84.9692L104.698 84.9334Z" fill="#E9995E"/>
<path d="M121.095 65.2681C121.007 65.3565 120.919 65.4449 120.831 65.5332C120.568 65.3688 120.563 64.9199 120.822 64.7494C121.02 64.8345 121.151 65.0559 121.131 65.2714L121.095 65.2681Z" fill="#E9995E"/>
<path d="M95.6709 64.9372C95.7419 64.8286 95.8661 64.757 95.9953 64.7502C96.2804 64.8639 96.1773 65.3958 95.8705 65.3939C95.7182 65.3029 95.6348 65.1091 95.6731 64.9354L95.6709 64.9372Z" fill="#E9995E"/>
<path d="M89.21 65.4045C89.0454 65.4935 88.8122 65.408 88.7435 65.2334C88.6748 65.0588 88.7868 64.8363 88.9676 64.7884C89.2095 64.8283 89.3418 65.1646 89.1924 65.3598L89.21 65.4045Z" fill="#E9995E"/>
<path d="M110.293 67.0679C110.291 66.7575 109.701 66.76 109.702 67.0704C109.703 67.3809 110.294 67.3784 110.293 67.0679Z" fill="#E9995E"/>
<path d="M106.953 77.735C106.813 77.4544 106.28 77.7216 106.419 78.0022C106.558 78.2827 107.092 78.0156 106.953 77.735Z" fill="#E9995E"/>
<path d="M121.997 63.4606C122.058 63.7691 122.645 63.652 122.584 63.3434C122.523 63.0349 121.936 63.152 121.997 63.4606Z" fill="#E9995E"/>
<path d="M104.492 72.3288C104.686 72.1237 105.072 72.1608 105.224 72.3993C105.115 72.5579 104.951 72.6778 104.768 72.7337C104.629 72.6427 104.524 72.5007 104.477 72.3408L104.492 72.3288Z" fill="#E9995E"/>
<path d="M116.82 72.2928C117.037 72.163 117.361 72.3005 117.419 72.5469C117.294 72.7194 117.05 72.7942 116.85 72.7219C116.753 72.6164 116.749 72.4375 116.841 72.3276L116.82 72.2928Z" fill="#E9995E"/>
<path d="M104.724 70.526C104.646 70.3829 104.822 70.2064 104.983 70.2287C105.144 70.251 105.261 70.3931 105.339 70.5359C105.218 70.787 104.795 70.796 104.663 70.5503L104.724 70.526Z" fill="#E9995E"/>
<path d="M122.291 74.071C122.435 73.8337 122.888 73.9837 122.863 74.2605C122.81 74.4183 122.619 74.5135 122.462 74.4606C122.304 74.4078 122.208 74.2164 122.26 74.058L122.291 74.071Z" fill="#E9995E"/>
<path d="M103.039 72.2074C103.224 72.1047 103.491 72.2792 103.475 72.4913C103.459 72.7034 103.174 72.8366 103 72.7145C102.827 72.5923 102.851 72.281 103.041 72.1854L103.039 72.2074Z" fill="#E9995E"/>
<path d="M104.568 75.8692C104.68 75.7736 104.86 75.7711 104.974 75.8637C104.984 76.103 104.843 76.3419 104.629 76.4477C104.416 76.3479 104.377 76.0056 104.562 75.8599L104.568 75.8692Z" fill="#E9995E"/>
<path d="M120.225 76.1418C120.446 76.3622 120.865 75.9385 120.644 75.718C120.423 75.4976 120.004 75.9214 120.225 76.1418Z" fill="#E9995E"/>
<path d="M99.7755 65.4766C99.5232 65.2658 99.8184 64.7605 100.125 64.8788C100.263 65.1161 100.058 65.4697 99.7839 65.4658L99.7755 65.4766Z" fill="#E9995E"/>
<path d="M99.8443 63.2718C99.7076 62.9934 99.1781 63.2556 99.3148 63.534C99.4516 63.8124 99.9811 63.5502 99.8443 63.2718Z" fill="#E9995E"/>
<path d="M86.7078 63.6676C86.6022 63.5895 86.5299 63.4676 86.5117 63.3373C86.6202 63.1798 86.7822 63.0602 86.9643 63.0033C87.1489 63.2267 86.9949 63.6305 86.709 63.6731L86.7078 63.6676Z" fill="#E9995E"/>
<path d="M116.987 78.103C116.778 78.1024 116.619 77.8392 116.718 77.6545C116.817 77.4699 117.128 77.4608 117.234 77.641C117.341 77.8212 117.181 78.0929 116.972 78.082L116.987 78.103Z" fill="#E9995E"/>
<path d="M120.57 59.648C120.757 59.7094 120.921 59.8374 121.027 60.0038C120.878 60.2219 120.541 60.2795 120.329 60.1234C120.389 59.965 120.45 59.8066 120.511 59.6482L120.57 59.648Z" fill="#E9995E"/>
<path d="M103.038 75.8682C103.041 75.684 103.237 75.5294 103.416 75.5701C103.595 75.6107 103.706 75.835 103.63 76.0026C103.423 76.144 103.104 76.0757 102.973 75.8619L103.038 75.8682Z" fill="#E9995E"/>
<path d="M106.258 68.8186C106.16 68.6323 106.314 68.3683 106.523 68.362C106.733 68.3558 106.902 68.6102 106.816 68.8019C106.661 68.9058 106.444 68.9063 106.288 68.8033L106.258 68.8186Z" fill="#E9995E"/>
<path d="M92.4499 61.5417C92.3856 61.7922 92.0254 61.9023 91.8329 61.7304C91.7604 61.5761 91.8388 61.3653 91.9985 61.3069C92.1582 61.2484 92.3597 61.371 92.3717 61.5412L92.4499 61.5417Z" fill="#E9995E"/>
<path d="M90.002 72.6137C89.9422 72.4596 90.0293 72.2645 90.1837 72.2069C90.3381 72.1492 90.531 72.2396 90.5861 72.3956C90.536 72.6398 90.209 72.7755 90.0019 72.638L90.002 72.6137Z" fill="#E9995E"/>
<path d="M95.7359 76.2001C95.6308 76.1199 95.558 75.9982 95.5368 75.8674C95.6463 75.7588 95.7558 75.6503 95.8652 75.5417C96.1486 75.6634 96.0447 76.1916 95.7365 76.1959L95.7359 76.2001Z" fill="#E9995E"/>
<path d="M90.4213 78.0479C90.2113 78.1251 90.0329 77.7813 90.1879 77.6193C90.3428 77.4573 90.6451 77.5394 90.753 77.7361C90.6435 77.8465 90.534 77.9568 90.4245 78.0672L90.4213 78.0479Z" fill="#E9995E"/>
<path d="M90.1585 61.9356C90.0038 61.7446 90.1783 61.4006 90.4232 61.414C90.5759 61.5051 90.6602 61.6987 90.6232 61.8732C90.4807 61.943 90.3148 61.9634 90.1597 61.93L90.1585 61.9356Z" fill="#E9995E"/>
<path d="M115.646 70.602C115.833 70.653 115.756 70.979 115.566 71.0211C115.376 71.0632 115.195 70.9333 115.046 70.8079C115.179 70.6262 115.433 70.5446 115.646 70.6152L115.646 70.602Z" fill="#E9995E"/>
<path d="M118.81 70.7751C118.707 70.6991 118.604 70.6231 118.5 70.5471C118.663 70.2734 119.125 70.265 119.297 70.5325C119.205 70.6847 119.012 70.7679 118.839 70.7308L118.81 70.7751Z" fill="#E9995E"/>
<path d="M121.992 61.8488C121.875 61.6853 122.029 61.4182 122.229 61.4256C122.429 61.4329 122.567 61.689 122.475 61.8677C122.325 61.9733 122.109 61.9743 121.957 61.8701L121.992 61.8488Z" fill="#E9995E"/>
<path d="M110.275 72.6682C110.084 72.8231 109.742 72.6483 109.755 72.4024C109.818 72.2917 109.942 72.219 110.07 72.2183C110.248 72.2823 110.36 72.4933 110.313 72.6777L110.275 72.6682Z" fill="#E9995E"/>
<path d="M94.1735 78.9597C94.2774 79.039 94.3814 79.1182 94.4854 79.1975C94.3166 79.3601 94.1037 79.4761 93.8759 79.5298C93.7199 79.3413 93.8989 78.997 94.1421 79.0178L94.1735 78.9597Z" fill="#E9995E"/>
<path d="M92.4804 64.9359C92.3411 64.6553 91.8074 64.9225 91.9467 65.2031C92.086 65.4837 92.6197 65.2165 92.4804 64.9359Z" fill="#E9995E"/>
<path d="M90.0931 79.3344C90.1726 79.2286 90.294 79.1556 90.4244 79.1353C90.5295 79.215 90.6023 79.3366 90.6232 79.4672C90.513 79.5778 90.4028 79.6883 90.2927 79.7989C90.143 79.7021 90.0612 79.5098 90.095 79.3343L90.0931 79.3344Z" fill="#E9995E"/>
<path d="M102.849 61.7267C103.034 61.9549 103.468 61.5995 103.283 61.3713C103.098 61.1431 102.664 61.4985 102.849 61.7267Z" fill="#E9995E"/>
<path d="M118.636 68.8052C118.62 68.499 119.146 68.3768 119.265 68.6589C119.227 68.94 118.786 69.046 118.624 68.8131L118.636 68.8052Z" fill="#E9995E"/>
<path d="M122.292 72.6019C122.184 72.8089 121.789 72.6239 121.877 72.4074C121.899 72.2395 122.109 72.1284 122.259 72.2051C122.41 72.2818 122.444 72.5178 122.322 72.6348L122.292 72.6019Z" fill="#E9995E"/>
<path d="M105.027 66.982C104.816 67.0592 104.638 66.7154 104.793 66.5534C104.948 66.3914 105.25 66.4735 105.358 66.6702C105.249 66.7806 105.139 66.891 105.03 67.0013L105.027 66.982Z" fill="#E9995E"/>
<path d="M92.2886 79.1604C92.4308 79.0785 92.6103 79.2574 92.5877 79.4204C92.5652 79.5834 92.422 79.7009 92.279 79.7815C92.0394 79.6645 92.0492 79.2478 92.2942 79.1424L92.2886 79.1604Z" fill="#E9995E"/>
<path d="M97.4011 62.0047C97.3337 61.7233 97.6946 61.3988 97.9034 61.5983C97.8904 61.757 97.8714 61.9295 97.7604 62.0432C97.6495 62.1569 97.4141 62.1487 97.3692 61.996L97.4011 62.0047Z" fill="#E9995E"/>
<path d="M110.543 82.6631C110.559 82.9692 110.033 83.0914 109.914 82.8094C109.952 82.5282 110.393 82.4222 110.555 82.6551L110.543 82.6631Z" fill="#E9995E"/>
<path d="M95.934 79.1954C95.631 79.237 95.71 79.8181 96.013 79.7765C96.316 79.7349 96.2369 79.1539 95.934 79.1954Z" fill="#E9995E"/>
<path d="M109.938 79.1382C110.201 79.3068 110.204 79.7574 109.945 79.9303C109.683 79.7583 109.682 79.3074 109.943 79.1343L109.938 79.1382Z" fill="#E9995E"/>
<path d="M97.7903 66.9332C97.5807 67.0758 97.259 67.0083 97.1238 66.7933C97.2619 66.6812 97.4205 66.5651 97.5976 66.5795C97.7748 66.5938 97.9272 66.8219 97.8092 66.9552L97.7903 66.9332Z" fill="#E9995E"/>
<path d="M103.306 83.1344C103.197 83.3415 102.802 83.1565 102.89 82.9399C102.912 82.772 103.122 82.6609 103.273 82.7376C103.423 82.8143 103.458 83.0504 103.336 83.1674L103.306 83.1344Z" fill="#E9995E"/>
<path d="M87.102 68.9818C86.8919 69.059 86.7135 68.7152 86.8685 68.5532C87.0234 68.3912 87.3257 68.4733 87.4336 68.67C87.3241 68.7804 87.2146 68.8908 87.1051 69.0012L87.102 68.9818Z" fill="#E9995E"/>
<path d="M115.786 60.0695C115.678 60.2765 115.283 60.0916 115.371 59.875C115.393 59.7071 115.603 59.596 115.754 59.6727C115.904 59.7494 115.939 59.9855 115.817 60.1024L115.786 60.0695Z" fill="#E9995E"/>
<path d="M108.264 63.2092C108.345 63.4196 108.263 63.6808 108.077 63.8069C107.955 63.6558 107.825 63.475 107.866 63.2849C107.908 63.0948 108.235 63.0191 108.28 63.2082L108.264 63.2092Z" fill="#E9995E"/>
<path d="M103.304 74.0668C103.458 74.2583 103.284 74.6017 103.04 74.5892C102.929 74.5255 102.857 74.4007 102.856 74.273C102.92 74.0937 103.13 73.9815 103.314 74.0285L103.304 74.0668Z" fill="#E9995E"/>
<path d="M104.656 61.8033C104.638 62.0937 105.19 62.1285 105.209 61.8381C105.227 61.5477 104.674 61.5129 104.656 61.8033Z" fill="#E9995E"/>
<path d="M113.792 66.602C113.898 66.68 113.97 66.8023 113.987 66.9329C113.893 67.0842 113.702 67.1675 113.528 67.1328C113.37 66.9447 113.548 66.5984 113.792 66.6185L113.792 66.602Z" fill="#E9995E"/>
<path d="M106.689 84.6662C106.609 84.772 106.488 84.8449 106.357 84.8651C106.252 84.7858 106.18 84.6641 106.16 84.5335C106.26 84.4131 106.404 84.3043 106.559 84.3281C106.714 84.3519 106.816 84.5806 106.69 84.6735L106.689 84.6662Z" fill="#E9995E"/>
<path d="M119.168 66.7973C119.034 67.0063 118.721 67.0725 118.514 66.9359C118.42 66.7937 118.569 66.5893 118.739 66.5765C118.908 66.5636 119.062 66.6771 119.177 66.8022L119.168 66.7973Z" fill="#E9995E"/>
<path d="M93.8462 65.3084C93.7173 65.1518 93.866 64.871 94.0681 64.8794C94.2702 64.8878 94.4004 65.1595 94.2909 65.3303C94.1814 65.5011 93.8971 65.5057 93.7715 65.3465L93.8462 65.3084Z" fill="#E9995E"/>
<path d="M99.7768 81.2011C99.8157 81.3069 99.7931 81.4331 99.7198 81.5187C99.5162 81.6144 99.2286 81.4208 99.2793 81.2009C99.3301 80.9809 99.7343 80.9882 99.7457 81.2137L99.7768 81.2011Z" fill="#E9995E"/>
<path d="M117.117 76.0478C116.969 76.0348 116.958 75.7909 117.08 75.706C117.203 75.6212 117.367 75.6492 117.513 75.6808C117.582 75.7734 117.607 75.8983 117.578 76.0104C117.434 76.0781 117.268 76.0969 117.113 76.063L117.117 76.0478Z" fill="#E9995E"/>
<path d="M103.038 64.8682C103.171 64.868 103.304 64.8679 103.437 64.8678C103.5 64.9664 103.523 65.0892 103.502 65.204C103.352 65.2639 103.179 65.3232 103.036 65.2495C102.893 65.1759 102.883 64.905 103.043 64.8867L103.038 64.8682Z" fill="#E9995E"/>
<path d="M110.564 65.0176C110.461 64.7458 109.944 64.9443 110.047 65.2161C110.151 65.4879 110.668 65.2894 110.564 65.0176Z" fill="#E9995E"/>
<path d="M118.647 65.4704C118.613 65.3199 118.645 65.1403 118.772 65.0535C118.899 64.9668 119.118 65.0452 119.118 65.1995C119.095 65.3337 119.063 65.481 118.955 65.5627C118.846 65.6445 118.643 65.5877 118.648 65.4515L118.647 65.4704Z" fill="#E9995E"/>
<path d="M87.1318 65.5977C86.9229 65.6685 86.6874 65.4187 86.7692 65.2132C86.851 65.0077 87.1931 64.9897 87.2958 65.1856C87.2316 65.3015 87.1675 65.4173 87.1034 65.5332L87.1318 65.5977Z" fill="#E9995E"/>
<path d="M95.4037 83.0695C95.3815 82.8241 95.728 82.6435 95.9151 82.8029C95.9958 82.938 95.9403 83.1361 95.8012 83.209C95.6622 83.2819 95.4686 83.2146 95.4043 83.071L95.4037 83.0695Z" fill="#E9995E"/>
<path d="M112.161 74.4316C112.373 74.2361 112.002 73.8293 111.789 74.0247C111.577 74.2201 111.949 74.627 112.161 74.4316Z" fill="#E9995E"/>
<path d="M101.577 76.4525C101.394 76.511 101.209 76.2744 101.286 76.0983C101.364 75.9222 101.625 75.8792 101.775 75.9993C101.819 76.174 101.732 76.3738 101.574 76.4589L101.577 76.4525Z" fill="#E9995E"/>
<path d="M113.439 60.424C113.24 60.2282 113.538 59.8226 113.783 59.9561C113.974 60.1459 113.69 60.5365 113.452 60.4105L113.439 60.424Z" fill="#E9995E"/>
<path d="M101.71 66.8616C101.487 66.8869 101.202 66.8717 101.118 66.663C101.252 66.4887 101.499 66.4115 101.707 66.4787C101.804 66.5856 101.808 66.7647 101.716 66.8758L101.71 66.8616Z" fill="#E9995E"/>
<path d="M111.726 63.1805C111.951 63.0867 112.222 63.3714 112.118 63.5933C112.012 63.7058 111.811 63.7071 111.704 63.5959C111.596 63.4848 111.603 63.2832 111.718 63.1799L111.726 63.1805Z" fill="#E9995E"/>
<path d="M109.877 61.469C109.956 61.3632 110.077 61.2902 110.208 61.27C110.313 61.3493 110.386 61.4711 110.405 61.6017C110.326 61.7074 110.205 61.7803 110.075 61.8C109.969 61.7211 109.897 61.5987 109.879 61.4677L109.877 61.469Z" fill="#E9995E"/>
<path d="M101.69 70.6916C101.548 70.9355 101.125 70.9221 100.999 70.6698C101.12 70.4169 101.544 70.405 101.679 70.6508L101.69 70.6916Z" fill="#E9995E"/>
<path d="M92.2794 77.5241C92.422 77.5051 92.5297 77.6865 92.4832 77.8232C92.4367 77.96 92.2918 78.0401 92.1501 78.0656C92.0451 77.9862 91.9729 77.8645 91.9532 77.734C92.0316 77.6279 92.1535 77.5551 92.2838 77.5367L92.2794 77.5241Z" fill="#E9995E"/>
<path d="M106.923 81.2597C106.929 81.3639 106.935 81.468 106.941 81.5722C106.813 81.7566 106.46 81.6572 106.446 81.4327C106.432 81.2082 106.77 81.0656 106.92 81.2326L106.923 81.2597Z" fill="#E9995E"/>
<path d="M113.792 75.668C113.898 75.7477 113.97 75.8697 113.99 76.0006C113.911 76.1064 113.79 76.1792 113.66 76.1991C113.555 76.1198 113.482 75.998 113.463 75.8674C113.541 75.7612 113.663 75.6885 113.793 75.6701L113.792 75.668Z" fill="#E9995E"/>
<path d="M97.4084 83.1998C97.3599 83.0522 97.4008 82.8678 97.5322 82.7856C97.6636 82.7034 97.8743 82.7764 97.8965 82.9303C97.8403 83.0454 97.7841 83.1605 97.7279 83.2756C97.6157 83.2626 97.5034 83.2497 97.3912 83.2368L97.4084 83.1998Z" fill="#E9995E"/>
<path d="M106.967 63.4689C106.982 63.6474 106.792 63.8114 106.619 63.7693C106.445 63.7273 106.351 63.4944 106.445 63.3425C106.591 63.2022 106.878 63.2818 106.931 63.4774L106.967 63.4689Z" fill="#E9995E"/>
<path d="M92.0062 74.193C92.1387 73.9997 92.5146 74.167 92.4609 74.3954C92.4052 74.5104 92.2808 74.5885 92.1534 74.5884C92.0068 74.5319 91.9345 74.3346 92.0098 74.1962L92.0062 74.193Z" fill="#E9995E"/>
<path d="M118.85 62.9989C119.012 63.2526 118.693 63.6373 118.415 63.5223C118.377 63.2719 118.587 63.0121 118.839 62.9986L118.85 62.9989Z" fill="#E9995E"/>
<path d="M90.0872 68.6693C90.0794 68.4201 90.4213 68.2442 90.6182 68.3962C90.7205 68.6724 90.2494 68.9189 90.0825 68.6764L90.0872 68.6693Z" fill="#E9995E"/>
<path d="M122.023 68.466C122.113 68.3471 122.281 68.2943 122.422 68.3405C122.488 68.4324 122.511 68.5533 122.485 68.6632C122.376 68.7273 122.266 68.7915 122.157 68.8556C122.012 68.7965 121.942 68.6005 122.017 68.4625L122.023 68.466Z" fill="#E9995E"/>
<path d="M108.423 61.4568C108.616 61.5898 108.449 61.9672 108.222 61.9133C108.107 61.8574 108.029 61.7325 108.029 61.6046C108.086 61.4574 108.282 61.3848 108.42 61.4604L108.423 61.4568Z" fill="#E9995E"/>
<path d="M92.3575 63.3234C92.55 63.4564 92.3834 63.8338 92.156 63.7799C92.0414 63.724 91.9637 63.5991 91.9638 63.4712C92.0199 63.3239 92.2164 63.2514 92.3543 63.327L92.3575 63.3234Z" fill="#E9995E"/>
<path d="M108.679 68.4007C108.536 68.6079 108.223 68.6717 108.01 68.5369C108.007 68.2222 108.549 68.1152 108.664 68.4079L108.679 68.4007Z" fill="#E9995E"/>
<path d="M97.263 76.1347C97.3423 76.0288 97.4638 75.9559 97.5942 75.9357C97.6995 76.0149 97.7721 76.1367 97.7919 76.2674C97.7129 76.3731 97.5916 76.4459 97.4615 76.4657C97.3558 76.3868 97.2834 76.2644 97.265 76.1334L97.263 76.1347Z" fill="#E9995E"/>
<path d="M99.9172 67.0674C99.8379 67.1732 99.7164 67.2462 99.586 67.2664C99.4807 67.1871 99.4081 67.0653 99.3884 66.9347C99.4673 66.829 99.5886 66.7561 99.7187 66.7364C99.8244 66.8153 99.8968 66.9377 99.9152 67.0687L99.9172 67.0674Z" fill="#E9995E"/>
<path d="M118.654 72.5431C118.758 72.2993 119.169 72.2897 119.285 72.5283C119.167 72.7836 118.74 72.7984 118.605 72.5518L118.654 72.5431Z" fill="#E9995E"/>
<path d="M108.411 84.6591C108.301 84.7265 108.191 84.7939 108.081 84.8612C107.976 84.7846 107.905 84.6636 107.889 84.5346C107.984 84.3836 108.175 84.3006 108.35 84.3346C108.413 84.4309 108.436 84.5534 108.411 84.6661L108.411 84.6591Z" fill="#E9995E"/>
<path d="M108.15 81.068C108.089 80.9194 108.33 80.8461 108.489 80.8694C108.558 81.0125 108.577 81.1788 108.544 81.3341C108.448 81.3979 108.327 81.4217 108.215 81.3986C108.152 81.3026 108.129 81.1802 108.154 81.0678L108.15 81.068Z" fill="#E9995E"/>
<path d="M97.263 65.3354C97.3423 65.2296 97.4638 65.1566 97.5942 65.1364C97.6995 65.2157 97.7721 65.3375 97.7919 65.4681C97.7129 65.5738 97.5916 65.6467 97.4615 65.6664C97.3558 65.5875 97.2834 65.4651 97.265 65.3341L97.263 65.3354Z" fill="#E9995E"/>
<path d="M115.384 68.4685C115.531 68.4033 115.606 68.6469 115.582 68.806C115.44 68.8754 115.275 68.8965 115.12 68.8652C115.057 68.7686 115.033 68.6468 115.056 68.5336C115.151 68.4698 115.273 68.4472 115.385 68.4723L115.384 68.4685Z" fill="#E9995E"/>
<path d="M92.4755 66.9363C92.5089 67.0473 92.4879 67.1735 92.4204 67.2675C92.3056 67.2948 92.1797 67.2711 92.0825 67.2039C92.0835 67.0701 92.0845 66.9363 92.0855 66.8025C92.1975 66.658 92.4797 66.7517 92.4837 66.9348L92.4755 66.9363Z" fill="#E9995E"/>
<path d="M97.8714 72.7421C97.739 72.9354 97.3631 72.7681 97.4168 72.5398C97.4725 72.4247 97.5968 72.3467 97.7242 72.3468C97.8708 72.4032 97.9431 72.6005 97.8678 72.7389L97.8714 72.7421Z" fill="#E9995E"/>
<path d="M94.3354 66.5527C94.4646 66.5813 94.5124 66.7797 94.4104 66.8643C94.1898 66.8869 93.9082 66.8752 93.8238 66.6693C93.9164 66.4854 94.1762 66.4119 94.3508 66.52L94.3354 66.5527Z" fill="#E9995E"/>
<path d="M101.577 82.8675C101.682 82.9472 101.755 83.0692 101.775 83.2001C101.696 83.3058 101.575 83.3787 101.445 83.3986C101.339 83.3193 101.267 83.1975 101.247 83.0669C101.326 82.9607 101.448 82.888 101.578 82.8695L101.577 82.8675Z" fill="#E9995E"/>
<path d="M106.289 72.2645C106.458 72.1414 106.732 72.2157 106.816 72.4073C106.681 72.5812 106.435 72.6579 106.226 72.5906C106.137 72.5002 106.178 72.3204 106.298 72.2785L106.289 72.2645Z" fill="#E9995E"/>
<path d="M96.0125 71.0089C95.8801 71.2022 95.5042 71.0349 95.5579 70.8066C95.6136 70.6915 95.738 70.6135 95.8654 70.6136C96.012 70.67 96.0843 70.8673 96.009 71.0057L96.0125 71.0089Z" fill="#E9995E"/>
<path d="M106.63 75.7964C106.485 75.5738 106.062 75.8507 106.206 76.0733C106.35 76.2959 106.774 76.019 106.63 75.7964Z" fill="#E9995E"/>
<path d="M92.4416 72.4691C92.4126 72.748 91.9291 72.7988 91.8432 72.532C91.9385 72.3173 92.281 72.2778 92.4222 72.4652L92.4416 72.4691Z" fill="#E9995E"/>
<path d="M104.772 83.2464C104.486 83.1374 104.589 82.6014 104.896 82.6079C105.037 82.8137 104.972 83.1322 104.762 83.266L104.772 83.2464Z" fill="#E9995E"/>
<path d="M90.5298 66.9088C90.4285 66.8344 90.3272 66.7599 90.2259 66.6855C90.3312 66.4294 90.7644 66.4198 90.8807 66.6711C90.8057 66.777 90.6849 66.8491 90.5564 66.8647L90.5298 66.9088Z" fill="#E9995E"/>
<path d="M110.008 77.464C110.202 77.5975 110.165 77.9518 109.946 78.0411C109.683 77.9532 109.73 77.473 110.006 77.4392L110.008 77.464Z" fill="#E9995E"/>
<path d="M118.699 61.9394C118.843 62.162 119.267 61.8851 119.122 61.6625C118.978 61.44 118.555 61.7168 118.699 61.9394Z" fill="#E9995E"/>
<path d="M106.305 82.6752C106.411 82.4309 106.825 82.4234 106.94 82.6638C106.828 82.9078 106.411 82.9055 106.301 82.6602L106.305 82.6752Z" fill="#E9995E"/>
<path d="M99.4789 61.5742C99.553 61.4724 99.6272 61.3707 99.7013 61.269C99.9564 61.3747 99.9659 61.8097 99.7157 61.9265C99.6101 61.8512 99.5384 61.7299 99.5229 61.6008L99.4789 61.5742Z" fill="#E9995E"/>
<path d="M115.394 66.8511C115.225 66.8235 115.246 66.5299 115.408 66.4717C115.569 66.4135 115.746 66.527 115.845 66.6676C115.752 66.8186 115.56 66.901 115.387 66.8647L115.394 66.8511Z" fill="#E9995E"/>
<path d="M113.475 72.4081C113.559 72.2196 113.825 72.1428 113.996 72.2577C114.048 72.4033 113.954 72.5833 113.806 72.6235C113.657 72.6636 113.486 72.5552 113.458 72.4032L113.475 72.4081Z" fill="#E9995E"/>
<path d="M97.719 70.3513C97.8885 70.3789 97.8672 70.6725 97.7056 70.7307C97.544 70.7889 97.3674 70.6754 97.2679 70.5348C97.3614 70.3838 97.5532 70.3014 97.7266 70.3377L97.719 70.3513Z" fill="#E9995E"/>
<path d="M111.795 72.7385C111.939 72.9611 112.362 72.6843 112.218 72.4617C112.074 72.2391 111.65 72.5159 111.795 72.7385Z" fill="#E9995E"/>
<path d="M100.055 79.6071C100.277 79.4621 100.001 79.0371 99.7791 79.182C99.5575 79.327 99.8333 79.7521 100.055 79.6071Z" fill="#E9995E"/>
<path d="M117.085 68.9086C116.983 68.8342 116.882 68.7597 116.781 68.6853C116.886 68.4292 117.319 68.4197 117.436 68.6709C117.361 68.7768 117.24 68.8489 117.111 68.8645L117.085 68.9086Z" fill="#E9995E"/>
<path d="M115.704 72.3926C115.598 72.637 115.184 72.6444 115.069 72.4041C115.181 72.16 115.599 72.1623 115.708 72.4076L115.704 72.3926Z" fill="#E9995E"/>
<path d="M120.882 68.6596C120.776 68.9039 120.362 68.9114 120.247 68.671C120.359 68.4269 120.777 68.4293 120.886 68.6746L120.882 68.6596Z" fill="#E9995E"/>
<path d="M95.3507 77.8421C95.4232 77.6896 95.4957 77.5372 95.5683 77.3847C95.7129 77.4843 95.8438 77.6503 95.8025 77.8215C95.7612 77.9927 95.4608 78.0414 95.4259 77.8688L95.3507 77.8421Z" fill="#E9995E"/>
<path d="M122.531 66.9211C122.379 66.8482 122.227 66.7754 122.075 66.7026C122.175 66.5573 122.34 66.4259 122.51 66.4673C122.681 66.5088 122.729 66.8105 122.557 66.8455L122.531 66.9211Z" fill="#E9995E"/>
<path d="M113.53 79.1401C113.647 79.1083 113.777 79.1312 113.876 79.2008C113.824 79.3901 113.696 79.5572 113.528 79.6574C113.322 79.5805 113.325 79.2215 113.533 79.1484L113.53 79.1401Z" fill="#E9995E"/>
<path d="M86.8323 70.6916C86.7492 70.3886 87.3305 70.2358 87.4059 70.5409C87.3219 70.7233 87.0609 70.7937 86.8971 70.6781L86.8323 70.6916Z" fill="#E9995E"/>
<path d="M86.8477 66.9844C86.6782 66.9568 86.6995 66.6633 86.8611 66.6051C87.0227 66.5469 87.1993 66.6604 87.2988 66.8009C87.2053 66.9519 87.0134 67.0344 86.8401 66.998L86.8477 66.9844Z" fill="#E9995E"/>
<path d="M112.144 77.4665C112.137 77.6004 112.054 77.7274 111.934 77.7875C111.69 77.6748 111.692 77.253 111.938 77.1432C112.043 77.2188 112.114 77.3398 112.13 77.4686L112.144 77.4665Z" fill="#E9995E"/>
<path d="M90.4273 76.4885C90.2266 76.4909 90.1959 76.1991 90.2362 76.0017C90.3371 75.9007 90.5197 75.8997 90.6218 75.9995C90.6663 76.1743 90.5788 76.3739 90.4205 76.4591L90.4273 76.4885Z" fill="#E9995E"/>
<path d="M113.974 77.7384C113.909 77.4777 113.413 77.6022 113.478 77.8629C113.543 78.1237 114.039 77.9991 113.974 77.7384Z" fill="#E9995E"/>
<path d="M113.717 63.7186C113.574 63.7996 113.419 63.5661 113.503 63.4243C113.587 63.2826 113.778 63.2512 113.942 63.2658C114.009 63.4395 113.897 63.6592 113.717 63.7068L113.717 63.7186Z" fill="#E9995E"/>
<path d="M108.341 66.6183C108.51 66.6459 108.489 66.9394 108.328 66.9977C108.166 67.0559 107.989 66.9424 107.89 66.8018C107.983 66.6508 108.175 66.5684 108.349 66.6047L108.341 66.6183Z" fill="#E9995E"/>
<path d="M88.9713 68.5107C89.0544 68.8137 88.473 68.9665 88.3977 68.6614C88.4817 68.479 88.7427 68.4086 88.9064 68.5242L88.9713 68.5107Z" fill="#E9995E"/>
<path d="M97.8553 74.0679C97.9894 74.2174 97.9219 74.4955 97.7343 74.5662C97.4382 74.4984 97.5826 73.9282 97.875 74.0107L97.8553 74.0679Z" fill="#E9995E"/>
<path d="M103.196 68.3309C103.214 68.4443 103.232 68.5576 103.251 68.671C103.082 68.7974 102.805 68.7253 102.718 68.5328C102.808 68.3814 103 68.2993 103.171 68.3394L103.196 68.3309Z" fill="#E9995E"/>
<path d="M93.9476 81.467C93.6742 81.5324 93.6355 81.0305 93.8733 80.8802C94.0887 80.9801 94.1322 81.3234 93.9486 81.4743L93.9476 81.467Z" fill="#E9995E"/>
<path d="M99.9761 84.617C100.146 84.6446 100.124 84.9382 99.9628 84.9964C99.8012 85.0546 99.6245 84.9411 99.5251 84.8005C99.6186 84.6495 99.8104 84.5671 99.9838 84.6034L99.9761 84.617Z" fill="#E9995E"/>
<path d="M113.72 68.4032C113.752 68.5138 113.732 68.6389 113.666 68.7334C113.492 68.7737 113.29 68.6953 113.208 68.5363C113.301 68.3524 113.561 68.2786 113.736 68.3862L113.72 68.4032Z" fill="#E9995E"/>
<path d="M113.196 61.6036C113.27 61.4958 113.394 61.4237 113.524 61.4125C113.727 61.4965 113.729 61.8463 113.526 61.9319C113.416 61.8218 113.306 61.7118 113.195 61.6017L113.196 61.6036Z" fill="#E9995E"/>
<path d="M92.2164 68.6633C92.0676 68.7981 91.7907 68.7303 91.7203 68.5419C91.7878 68.2445 92.3556 68.3896 92.2735 68.6831L92.2164 68.6633Z" fill="#E9995E"/>
<path d="M106.896 74.2436C106.979 74.5467 106.398 74.6994 106.322 74.3944C106.406 74.2119 106.667 74.1415 106.831 74.2572L106.896 74.2436Z" fill="#E9995E"/>
<path d="M109.736 63.1869C109.88 63.1181 110.073 63.1902 110.138 63.3366C110.029 63.4453 109.92 63.554 109.812 63.6627C109.633 63.5955 109.588 63.3146 109.737 63.1947L109.736 63.1869Z" fill="#E9995E"/>
<path d="M111.593 61.8837C111.461 61.7912 111.459 61.5637 111.589 61.469C111.72 61.3744 111.934 61.4474 111.981 61.6023C111.904 61.747 111.761 61.8545 111.601 61.8875L111.593 61.8837Z" fill="#E9995E"/>
<path d="M112.021 79.4675C112.007 79.6525 111.725 79.7413 111.609 79.5974C111.549 79.4221 111.66 79.2246 111.818 79.1276C111.885 79.2366 111.953 79.3456 112.021 79.4546L112.021 79.4675Z" fill="#E9995E"/>
<path d="M124.147 65.2613C124.037 65.294 123.912 65.2735 123.818 65.2072C123.778 65.0323 123.856 64.8304 124.015 64.7473C124.198 64.8409 124.271 65.1017 124.164 65.2777L124.147 65.2613Z" fill="#E9995E"/>
<path d="M104.63 65.2698C104.505 65.1045 104.577 64.8293 104.767 64.7468C104.916 64.839 104.998 65.0305 104.961 65.203C104.866 65.2663 104.744 65.2887 104.632 65.2638L104.63 65.2698Z" fill="#E9995E"/>
<path d="M113.42 65.0406C113.495 64.9377 113.57 64.8348 113.645 64.7319C113.808 64.8158 113.899 65.0193 113.854 65.1975C113.746 65.345 113.461 65.2503 113.461 65.0673L113.42 65.0406Z" fill="#E9995E"/>
<path d="M115.517 81.402C115.393 81.2366 115.465 80.9615 115.654 80.879C115.804 80.9712 115.886 81.1627 115.849 81.3352C115.753 81.3984 115.631 81.4209 115.519 81.396L115.517 81.402Z" fill="#E9995E"/>
<path d="M95.6017 68.7399C95.5168 68.6226 95.5646 68.4328 95.6949 68.3702C95.8251 68.3077 96.0023 68.3894 96.04 68.5294C95.9863 68.7113 95.7706 68.8265 95.5904 68.7695L95.6017 68.7399Z" fill="#E9995E"/>
<path d="M94.0344 82.4139C94.1853 82.4863 94.3363 82.5587 94.4873 82.6311C94.4024 82.8011 94.1979 82.9016 94.0121 82.8646C93.9174 82.7536 93.9127 82.5755 94.0014 82.4596L94.0344 82.4139Z" fill="#E9995E"/>
<path d="M108.508 82.8627C108.525 82.9747 108.542 83.0868 108.559 83.1989C108.464 83.266 108.338 83.2866 108.227 83.2533C108.033 83.1007 108.281 82.7188 108.498 82.8358L108.508 82.8627Z" fill="#E9995E"/>
<path d="M113.871 81.3333C113.862 81.4675 113.779 81.5944 113.66 81.6561C113.503 81.5729 113.419 81.3737 113.467 81.2029C113.576 81.0566 113.86 81.1525 113.859 81.3349L113.871 81.3333Z" fill="#E9995E"/>
<path d="M110.208 68.7344C110.121 68.8168 110.033 68.8993 109.946 68.9817C109.764 68.9442 109.693 68.6652 109.836 68.5451C109.979 68.4251 110.24 68.5434 110.245 68.7301L110.208 68.7344Z" fill="#E9995E"/>
<path d="M122.479 65.0713C122.556 65.2745 122.378 65.5284 122.161 65.5235C121.976 65.3259 122.254 64.9393 122.499 65.0541L122.479 65.0713Z" fill="#E9995E"/>
<path d="M122.425 70.868C122.276 70.9306 122.203 70.6865 122.226 70.5266C122.394 70.4062 122.664 70.4821 122.745 70.6723C122.67 70.7776 122.55 70.8491 122.422 70.8644L122.425 70.868Z" fill="#E9995E"/>
<path d="M90.6201 65.2008C90.6531 65.3987 90.3979 65.5751 90.2256 65.4735C90.2191 65.3286 90.2209 65.1626 90.3291 65.0663C90.4372 64.9701 90.6671 65.0663 90.6142 65.2014L90.6201 65.2008Z" fill="#E9995E"/>
<path d="M111.67 83.1325C111.563 83.0581 111.491 82.934 111.48 82.8035C111.564 82.5995 111.912 82.5981 111.997 82.8014C111.888 82.9121 111.778 83.0228 111.668 83.1336L111.67 83.1325Z" fill="#E9995E"/>
<path d="M99.5865 77.9334C99.4811 77.8536 99.4084 77.7317 99.3882 77.6007C99.4677 77.495 99.589 77.422 99.7193 77.4015C99.8476 77.5644 99.7715 77.8437 99.5786 77.9185L99.5865 77.9334Z" fill="#E9995E"/>
<path d="M111.661 71.0082C111.557 70.8392 111.726 70.5818 111.922 70.6109C112.118 70.7629 111.873 71.1481 111.653 71.0336L111.661 71.0082Z" fill="#E9995E"/>
<path d="M90.8011 70.5056C90.9273 70.729 90.5328 70.9927 90.3762 70.7896C90.2402 70.6014 90.603 70.3635 90.7564 70.5377L90.8011 70.5056Z" fill="#E9995E"/>
<path d="M117.114 59.9437C117.219 59.9027 117.347 59.9274 117.431 60.0048C117.52 60.1706 117.335 60.4036 117.154 60.3533C116.973 60.3029 116.934 60.0076 117.096 59.9117L117.114 59.9437Z" fill="#E9995E"/>
<path d="M115.659 77.3935C115.763 77.5625 115.594 77.8199 115.398 77.7908C115.202 77.6388 115.447 77.2536 115.667 77.3682L115.659 77.3935Z" fill="#E9995E"/>
<path d="M110.006 71.0594C109.832 71.1408 109.723 70.8588 109.746 70.6672C109.839 70.5554 110.041 70.5662 110.122 70.6872C110.203 70.8083 110.138 70.9998 110 71.0454L110.006 71.0594Z" fill="#E9995E"/>
<path d="M97.8654 68.5966C97.9468 68.7182 97.8926 68.9078 97.7594 68.9675C97.6262 69.0271 97.4494 68.941 97.4137 68.799C97.4984 68.6458 97.6923 68.5629 97.8609 68.6078L97.8654 68.5966Z" fill="#E9995E"/>
<path d="M99.7892 68.8267C99.6775 68.8446 99.5658 68.8624 99.454 68.8802C99.3427 68.7148 99.5181 68.4506 99.713 68.4901C99.8437 68.5192 99.8912 68.7206 99.7873 68.8055L99.7892 68.8267Z" fill="#E9995E"/>
<path d="M95.7404 63.6725C95.5019 63.7326 95.5338 63.296 95.731 63.1485C95.9396 63.2188 95.9388 63.5825 95.73 63.6518L95.7404 63.6725Z" fill="#E9995E"/>
<path d="M94.017 77.5267C94.1208 77.6958 93.9518 77.9532 93.7562 77.9241C93.5603 77.7721 93.8052 77.3869 94.0249 77.5014L94.017 77.5267Z" fill="#E9995E"/>
<path d="M91.9066 70.9064C91.979 70.8146 92.0514 70.7227 92.1238 70.6309C92.2902 70.6376 92.4024 70.8603 92.3093 70.9989C92.2162 71.1375 91.9685 71.1164 91.9001 70.964L91.9066 70.9064Z" fill="#E9995E"/>
<path d="M111.789 66.7417C111.715 66.6005 111.789 66.4029 111.937 66.3454C112.043 66.4165 112.114 66.5384 112.124 66.6662C112.08 66.7936 111.889 66.837 111.795 66.7415L111.789 66.7417Z" fill="#E9995E"/>
<path d="M93.7313 70.8747C93.6578 70.7335 93.7319 70.5358 93.8799 70.4784C93.9862 70.5495 94.0571 70.6713 94.0666 70.7992C94.0223 70.9265 93.8321 70.97 93.7373 70.8745L93.7313 70.8747Z" fill="#E9995E"/>
<path d="M124.176 63.2659C124.193 63.3828 124.211 63.4997 124.228 63.6166C124.113 63.6395 123.997 63.6625 123.881 63.6854C123.772 63.5115 123.943 63.2432 124.146 63.2705L124.176 63.2659Z" fill="#E9995E"/>
<path d="M95.8804 72.3281C95.9756 72.5068 95.8013 72.7602 95.6011 72.7341C95.5395 72.6359 95.5163 72.5141 95.5375 72.4C95.6334 72.3362 95.7555 72.3136 95.8678 72.3387L95.8804 72.3281Z" fill="#E9995E"/>
<path d="M95.6103 67.116C95.4016 67.0536 95.3956 66.691 95.6021 66.6216C95.8092 66.6903 95.8044 67.0537 95.5955 67.1167L95.6103 67.116Z" fill="#E9995E"/>
<path d="M95.9391 81.3307C95.9515 81.4597 95.8631 81.5911 95.7394 81.6278C95.5769 81.6077 95.4842 81.3812 95.5856 81.2522C95.6871 81.1231 95.928 81.1611 95.9852 81.3151L95.9391 81.3307Z" fill="#E9995E"/>
<path d="M97.449 79.674C97.3755 79.5328 97.4496 79.3352 97.5976 79.2777C97.7038 79.3488 97.7747 79.4707 97.7842 79.5985C97.74 79.7259 97.5497 79.7694 97.4549 79.6738L97.449 79.674Z" fill="#E9995E"/>
<path d="M95.66 61.4704C95.6735 61.2704 95.9089 61.0703 96.0616 61.1995C96.0822 61.33 96.0827 61.4819 95.9867 61.5722C95.8907 61.6625 95.6823 61.5949 95.709 61.4655L95.66 61.4704Z" fill="#E9995E"/>
<path d="M113.725 74.5214C113.599 74.5842 113.444 74.4314 113.472 74.2928C113.5 74.1541 113.65 74.0674 113.79 74.066C113.906 74.2006 113.875 74.4353 113.727 74.5337L113.725 74.5214Z" fill="#E9995E"/>
<path d="M99.4734 75.8382C99.5467 75.7484 99.6199 75.6586 99.6932 75.5688C99.8504 75.5621 99.9711 75.767 99.8896 75.9022C99.8081 76.0373 99.5714 76.0249 99.5044 75.8819L99.4734 75.8382Z" fill="#E9995E"/>
<path d="M110.207 74.5949C110.093 74.6236 109.969 74.6047 109.869 74.5436C109.871 74.3644 110.026 74.1749 110.201 74.2123C110.375 74.2496 110.375 74.5808 110.196 74.5711L110.207 74.5949Z" fill="#E9995E"/>
<path d="M108.475 70.3554C108.625 70.3969 108.702 70.6015 108.616 70.7323C108.491 70.7626 108.352 70.733 108.249 70.6539C108.319 70.5429 108.389 70.4319 108.459 70.3209L108.475 70.3554Z" fill="#E9995E"/>
<path d="M95.6622 73.9767C95.8787 73.9686 95.7727 74.3265 95.6012 74.4595C95.488 74.3263 95.523 74.0948 95.6705 74.0014L95.6622 73.9767Z" fill="#E9995E"/>
<path d="M117.043 74.0005C117.216 74.0845 117.17 74.4012 116.981 74.4328C116.755 74.3884 116.822 73.9602 117.05 73.987L117.043 74.0005Z" fill="#E9995E"/>
<path d="M104.545 68.7126C104.437 68.6533 104.505 68.4649 104.625 68.436C104.745 68.4072 104.864 68.4766 104.968 68.5432C104.963 68.7257 104.674 68.8104 104.572 68.6595L104.545 68.7126Z" fill="#E9995E"/>
<path d="M99.8519 74.4647C99.7682 74.6384 99.4528 74.5927 99.4214 74.4023C99.4655 74.176 99.892 74.243 99.8653 74.472L99.8519 74.4647Z" fill="#E9995E"/>
<path d="M90.3705 80.9393C90.4193 80.7827 90.6888 80.7784 90.7425 80.9334C90.6895 81.089 90.4191 81.0851 90.3706 80.928L90.3705 80.9393Z" fill="#E9995E"/>
<path d="M97.5403 84.539C97.5891 84.3824 97.8585 84.3781 97.9123 84.5331C97.8593 84.6887 97.5889 84.6847 97.5404 84.5277L97.5403 84.539Z" fill="#E9995E"/>
<path d="M124.062 61.5931C124.025 61.7422 123.824 61.8215 123.696 61.7379C123.632 61.618 123.682 61.4439 123.808 61.3954C123.934 61.3469 124.097 61.4705 124.067 61.603L124.062 61.5931Z" fill="#E9995E"/>
<path d="M120.535 79.7134C120.446 79.6398 120.356 79.5663 120.267 79.4927C120.26 79.3349 120.464 79.2136 120.599 79.2955C120.734 79.3773 120.721 79.615 120.579 79.6823L120.535 79.7134Z" fill="#E9995E"/>
<path d="M117.046 81.4714C116.916 81.4136 116.964 81.1704 117.107 81.1672C117.297 81.1732 117.196 81.5691 117.051 81.4457L117.046 81.4714Z" fill="#E9995E"/>
<path d="M98.0766 206.846C89.7191 199.179 82.6448 190.106 77.2388 180.119C74.9585 175.907 72.9207 171.174 73.7742 166.457C75.3707 157.633 72.0711 148.767 69.4718 140.187C66.8726 131.607 65.0312 121.918 69.2123 113.994C62.6168 120.101 59.9717 129.355 58.5577 138.251C55.2797 158.876 57.1246 180.302 63.8794 200.055C55.948 185.476 55.6362 168.033 56.3884 151.438C56.9736 138.524 58.4118 124.773 66.4902 114.708C54.0534 124.893 50.2692 142.085 47.5249 157.963C44.9481 172.871 42.6545 188.519 47.4322 202.87C42.9244 194.525 43.6606 184.428 44.5912 174.981C46.7318 153.252 50.0276 129.852 65.1854 114.195C69.1944 110.054 74.0879 106.543 79.7038 105.296C84.0556 104.33 88.248 102.644 92.0611 100.327C92.9801 94.9228 87.9158 90.667 84.3776 86.491C80.4153 81.8145 77.9435 75.8838 77.4075 69.7674C77.0902 66.1469 76.3332 61.214 72.717 61.0596C69.7445 60.9328 67.5066 57.3311 68.6999 54.5944C69.8931 51.8577 74.0466 51.0659 76.1557 53.1731C73.1472 41.8474 79.5027 28.7802 90.2477 24.1994C88.4958 21.6834 92.3199 18.6682 95.3561 19.0286C98.3923 19.3889 101.331 21.2305 104.313 20.5501C103.291 18.7436 104.928 16.3435 106.945 15.8808C108.962 15.418 111.031 16.2973 112.841 17.3051C124.454 23.7747 132.128 36.8219 132.165 50.1575C132.465 47.7234 136.103 46.8898 137.882 48.5703C139.662 50.2508 139.577 53.2587 138.313 55.3579C137.05 57.4571 134.897 58.8353 132.765 60.0334C132.819 68.8769 129.47 77.6981 123.566 84.2608C119.27 89.0362 113.184 94.1018 114.594 100.379C116.879 99.8716 119.191 102.519 118.391 104.728C128.189 103.908 137.333 109.846 144.274 116.838C154.45 127.087 161.764 140.172 165.176 154.233C165.772 156.689 169.252 157.359 171.405 156.048C173.558 154.738 174.665 152.26 175.646 149.932C182.106 134.601 188.567 119.271 195.027 103.94C192.865 90.5975 194.789 91.3409 195.801 85.1016C198.57 77.8496 198.041 71.2969 199.161 64.3946C199.466 62.515 200.775 60.0347 202.504 60.8183C203.378 61.2146 203.687 62.2846 203.873 63.2295C204.921 68.5391 205.256 73.9901 204.866 79.3887C207.102 75.5472 209.339 71.7057 211.575 67.8642C212.799 65.7617 215.503 63.4074 217.2 65.1467C218.133 66.1021 217.887 67.6696 217.503 68.9502C216.279 73.024 214.284 76.8627 211.656 80.2005C215.199 81.4141 219.303 83.2569 219.924 86.9641C220.181 88.5018 219.747 90.067 219.233 91.5384C217.445 96.6535 214.622 101.401 210.985 105.407C211.819 104.901 212.365 106.406 212.199 107.37C208.209 130.548 198.487 152.709 184.149 171.31C179.918 176.799 174.178 182.46 167.295 181.813C162.987 181.408 159.346 178.569 155.976 175.845C152.346 172.911 148.717 169.978 145.087 167.044C153.536 168.939 158.241 179.522 166.835 180.567C173.823 181.416 179.688 175.54 183.911 169.886C197.692 151.436 207.103 129.719 211.156 107.019C205.646 107.948 199.91 107.494 194.612 105.712C189.355 122.078 182.734 138.002 174.842 153.264C173.478 155.902 171.052 158.968 168.25 158.009C166.996 157.579 166.148 156.423 165.442 155.298C158.38 144.051 156.739 129.053 146.439 120.697C150.59 146.55 144.045 172.839 136.636 197.946C142.308 178.382 145.763 158.171 146.913 137.827C147.177 133.157 147.309 128.383 145.992 123.896C144.676 119.408 141.671 115.186 137.309 113.543C134.468 132.097 117.827 145.898 113.617 164.188C110.212 178.977 104.979 193.341 98.0766 206.846ZM115.182 156.055C121.513 143.97 129.812 132.906 134.966 120.269C136.137 117.396 137.104 113.981 135.511 111.32C134.936 110.36 134.079 109.608 133.236 108.873C131.903 107.711 130.442 106.492 128.683 106.348C126.348 106.158 124.324 107.911 122.822 109.716C119.18 114.092 116.828 119.381 114.592 124.623C109.243 137.162 104.27 149.924 101.142 163.199C98.0146 176.474 96.7676 190.33 98.9185 203.799C101.642 191.447 110.8 180.981 112.055 168.392C112.262 166.319 112.248 164.214 112.697 162.18C113.174 160.021 114.156 158.012 115.182 156.055ZM127.715 41.9956C126.857 40.3359 125.787 38.7485 124.325 37.5918C121.067 35.0153 116.479 35.0085 112.402 35.7742C109.796 36.2636 107.24 37.0183 104.785 38.023C104.144 38.2853 103.463 38.5704 102.782 38.4462C102.101 38.3219 101.489 37.5846 101.768 36.9487C101.821 36.8263 101.905 36.7128 101.919 36.5799C101.959 36.2076 101.487 36.0212 101.118 35.9678C95.508 35.1555 89.5338 36.1055 84.8173 39.2627C80.1008 42.4199 76.8356 47.9251 77.0104 53.6143C77.0496 54.8909 78.0056 55.9354 78.9651 56.7739C80.4326 58.0564 82.0499 59.166 83.7731 60.0727C84.5467 60.4798 85.6077 60.8027 86.199 60.1573C87.3717 58.8772 89.3199 58.7777 91.0517 58.8149C97.0709 58.9443 103.123 59.6417 109.09 58.8363C112.725 58.3457 116.265 57.3041 119.886 56.7179C120.995 56.5384 122.141 56.403 123.234 56.663C124.327 56.9231 125.371 57.6532 125.719 58.7259C127.129 57.1261 128.397 55.4002 129.503 53.5752C129.835 53.0278 130.157 52.4583 130.28 51.8294C130.389 51.2711 130.335 50.6945 130.261 50.1304C129.89 47.298 129.024 44.5316 127.715 41.9956ZM118.687 81.7368C120.811 80.8013 122.005 78.5329 122.808 76.3478C124.724 71.1402 125.339 65.4563 124.584 59.957C124.508 59.4042 124.406 58.825 124.055 58.3925C123.499 57.7072 122.505 57.601 121.625 57.637C119.556 57.7216 117.543 58.294 115.529 58.7768C111.289 59.7931 106.945 60.4249 102.586 60.4395C98.278 60.4541 93.977 59.8673 89.6721 60.0352C88.8152 60.0686 87.9093 60.1493 87.2138 60.6531C86.1112 61.4518 85.9174 62.9992 85.8733 64.3636C85.7057 69.551 86.3154 74.763 87.6755 79.7702C87.7572 80.071 87.8493 80.3848 88.0672 80.6069C88.3022 80.8465 88.6431 80.9394 88.9644 81.0339C94.1654 82.5633 98.6644 86.9435 104.071 86.5657C108.081 86.2854 111.453 83.397 115.379 82.5268C116.488 82.2809 117.646 82.1949 118.687 81.7368ZM74.225 167.428C73.9023 172.135 76.5545 176.469 79.1051 180.431C81.687 184.442 84.2689 188.452 86.8508 192.463C83.0429 179.738 81.2465 166.493 80.0248 153.262C78.7492 139.447 78.1158 125.275 81.8779 111.925C82.4749 109.807 83.1902 107.698 84.345 105.826C80.8821 105.736 77.1978 106.002 74.3729 108.015C72.5364 109.324 71.2329 111.267 70.2673 113.31C67.2836 119.622 67.2762 126.99 68.5953 133.851C69.9144 140.712 72.4734 147.26 74.4786 153.951C75.0612 155.896 75.6024 157.892 75.5315 159.922C75.4427 162.464 74.399 164.89 74.225 167.428ZM91.0454 83.0813C89.2606 82.3929 87.0956 81.831 86.3858 80.0484C86.0525 79.2113 86.1336 78.2749 86.0376 77.3786C85.9415 76.4823 85.5672 75.4992 84.7323 75.168C82.7205 74.3697 80.7906 73.3633 78.9832 72.1698C79.8799 77.4646 82.2676 82.4965 85.798 86.5313C87.5661 88.552 89.6159 90.3315 91.1826 92.5133C92.7494 94.6952 93.8149 97.4403 93.2379 100.067C93.054 100.904 94.2516 101.269 95.1051 101.248C100.774 101.114 106.442 100.955 112.11 100.771C113.07 100.74 113.637 99.6137 113.614 98.6491C113.592 97.6845 113.205 96.7522 113.217 95.7875C113.236 94.3697 114.102 93.1176 114.983 92.0095C117.593 88.7269 120.641 85.822 123.354 82.6248C126.068 79.4276 128.485 75.8456 129.517 71.7748C127.721 74.8159 123.933 76.3837 122.529 79.6256C121.731 81.4657 119.803 82.5483 117.894 83.1398C115.984 83.7314 113.96 83.9717 112.138 84.7948C111.204 85.2167 110.342 85.7838 109.427 86.2465C106.212 87.8721 102.338 88.1301 98.9379 86.9449C96.1699 85.9801 93.7807 84.1362 91.0454 83.0813ZM204.565 91.1234C206.534 91.0059 208.913 91.7753 210.218 90.2891C210.517 89.9488 210.714 89.4805 210.605 89.0401C210.458 88.4407 209.83 88.111 209.258 87.8841C205.605 86.4355 201.517 86.1168 197.685 86.9821C196.351 87.2834 195.571 88.5204 195.279 89.8621C194.986 91.2038 195.057 92.6562 195.279 94.0116C195.841 97.4539 196.403 100.896 196.966 104.339C196.991 104.494 197.018 104.654 197.105 104.785C197.236 104.981 197.473 105.072 197.695 105.148C200.463 106.095 203.408 106.518 206.33 106.386C207.491 106.334 208.747 106.15 209.563 105.317C213.553 101.243 216.471 96.118 217.942 90.5975C217.141 91.3171 216.112 91.8772 215.041 91.794C213.969 91.7109 212.928 90.7953 212.998 89.7184C210.944 91.308 208.524 92.9901 205.984 92.4622C204.042 92.0586 201.899 92.9226 200.774 94.5623C200.088 94.3812 200.352 93.3154 200.851 92.8096C201.829 91.8186 203.178 91.2061 204.565 91.1234ZM86.6154 121.765C85.2707 121.975 83.9322 122.226 82.6046 122.527C81.6709 122.739 80.5596 123.17 80.4387 124.123C80.1979 126.024 80.0671 127.939 80.0474 129.855C90.2003 127.45 100.981 127.773 110.973 130.782C112.034 128.284 113.096 125.787 114.158 123.289C105.218 120.858 95.7676 120.335 86.6154 121.765ZM124.126 106.782C122.519 105.929 120.648 105.586 118.845 105.814C118.489 105.86 118.089 105.959 117.918 106.275C117.233 107.538 115.736 108.084 114.352 108.453C107.385 110.306 100.028 110.264 92.8866 109.287C91.5589 109.105 90.2132 108.884 89.007 108.299C87.8008 107.713 86.7345 106.705 86.3765 105.408C85.4259 105.394 84.8549 106.437 84.5171 107.329C83.4955 110.028 82.6127 112.78 81.8732 115.57C93.4513 112.936 105.688 113.277 117.103 116.55C118.192 115.215 119.001 113.649 119.46 111.986C119.675 111.209 120.269 110.606 120.84 110.04C121.935 108.954 123.031 107.868 124.126 106.782ZM105.215 146.12C106.334 143.636 107.284 141.075 108.057 138.461C99.1427 136.978 90.0136 136.804 81.0499 137.946C80.6697 137.995 80.2479 138.069 80.0182 138.377C79.8162 138.648 79.8266 139.018 79.8458 139.356C79.9414 141.032 80.0369 142.708 80.1325 144.385C80.1581 144.835 80.3721 145.444 80.8122 145.353C88.8564 143.687 97.2904 143.952 105.215 146.12ZM216.409 69.1871C216.664 68.551 216.909 67.8823 216.853 67.1988C216.798 66.5153 216.354 65.8149 215.683 65.6881C215.265 65.6091 214.833 65.7614 214.471 65.9858C213.583 66.5362 213.026 67.4809 212.504 68.3887C210.142 72.4985 207.78 76.6083 205.417 80.7181C205.111 81.2509 204.226 81.0858 203.89 80.5714C203.554 80.0569 203.599 79.3912 203.646 78.7779C204.043 73.6376 203.746 68.4436 202.763 63.3831C202.702 63.0688 202.634 62.7441 202.446 62.4856C201.9 61.7367 200.627 61.997 200.078 62.7432C199.528 63.4893 199.496 64.4859 199.489 65.4137C199.435 72.482 199.501 79.8011 196.658 86.2672C199.546 85.1415 202.797 84.979 205.782 85.8112C206.209 85.9301 206.651 86.0701 207.086 85.9874C207.521 85.9048 207.935 85.5068 207.859 85.0688C207.574 83.4275 208.747 81.9352 209.779 80.6304C212.521 77.162 214.761 73.2947 216.409 69.1871ZM117.367 103.03C117.17 102.22 116.447 101.476 115.62 101.551C107.18 102.309 98.6926 102.525 90.2258 102.196C89.7246 102.177 89.1968 102.161 88.7522 102.394C88.4382 102.558 88.1929 102.837 88.0264 103.151C87.3508 104.425 88.0368 106.085 89.1886 106.948C90.3405 107.811 91.8241 108.063 93.2499 108.244C99.4741 109.033 105.818 108.95 111.996 107.86C113.331 107.624 114.699 107.324 115.804 106.537C116.908 105.749 117.688 104.352 117.367 103.03ZM102.321 154.923C102.37 154.754 102.417 154.562 102.328 154.409C102.234 154.247 102.026 154.199 101.841 154.167C95.1321 153.025 88.2652 153.586 81.4836 154.151C81.2918 154.167 81.0737 154.197 80.9659 154.357C80.8818 154.482 80.8938 154.646 80.909 154.796C81.1055 156.729 81.3021 158.663 81.4986 160.596C81.5363 160.967 81.6929 161.448 82.0639 161.429C87.9609 161.127 93.8865 161.389 99.7341 162.212C100.106 162.264 100.329 161.819 100.434 161.457C101.063 159.279 101.692 157.101 102.321 154.923ZM98.476 172.318C98.505 172.04 98.5217 171.723 98.3299 171.52C98.1831 171.365 97.9557 171.325 97.7446 171.296C93.154 170.654 88.4895 171.109 83.877 171.566C83.6464 171.589 83.3797 171.634 83.2685 171.838C83.1922 171.978 83.2164 172.15 83.2427 172.307C83.5521 174.159 83.8615 176.012 84.1709 177.864C84.2154 178.13 84.3559 178.473 84.622 178.433C89.0218 177.774 93.704 177.581 97.7281 179.485C97.9774 177.096 98.2267 174.707 98.476 172.318ZM80.0212 71.4532C81.6832 72.5994 83.5078 73.5076 85.4226 74.1418C84.589 70.2808 84.4257 66.2747 84.9423 62.3582C85.0076 61.8631 84.4522 61.5431 83.9938 61.3491C81.3127 60.2143 78.8794 58.4933 76.9122 56.3406C77.1155 60.4265 77.5553 64.5005 78.2289 68.5352C78.3299 69.1404 78.4427 69.7621 78.769 70.2809C79.0759 70.7689 79.5474 71.1264 80.0212 71.4532ZM124.326 75.6015C126.111 74.1447 127.675 72.4265 129.059 70.5812C129.805 69.5856 130.509 68.5367 130.923 67.3616C131.338 66.1802 131.446 64.9136 131.496 63.6615C131.625 60.3844 131.376 57.0923 130.755 53.8723C129.321 55.828 127.888 57.7836 126.454 59.7392C126.234 60.0393 126.009 60.3504 125.924 60.7132C125.857 61.0041 125.884 61.3077 125.908 61.6054C126.291 66.3148 125.75 71.0981 124.326 75.6015ZM96.63 195.199C96.9438 195.262 97.0876 194.822 97.0952 194.501C97.1407 192.579 97.1862 190.657 97.2317 188.735C97.2358 188.562 97.2383 188.382 97.1639 188.226C97.0262 187.937 96.6809 187.827 96.3726 187.747C94.6305 187.292 92.863 186.834 91.0631 186.856C89.5681 186.874 88.0876 187.224 86.5929 187.187C86.4236 187.183 86.2027 187.211 86.1671 187.377C86.1547 187.435 86.171 187.495 86.1873 187.551C86.8468 189.85 87.7151 192.089 88.7778 194.23C88.9171 194.511 89.0835 194.812 89.3745 194.926C89.5798 195.006 89.8091 194.976 90.0277 194.949C92.2226 194.673 94.462 194.758 96.63 195.199ZM132.489 50.8938C132.147 51.4245 131.845 52.0046 131.789 52.6341C131.754 53.0203 131.814 53.4079 131.874 53.7909C132.105 55.2669 132.335 56.7429 132.566 58.2189C132.579 58.3047 132.595 58.3954 132.652 58.4607C132.785 58.6141 133.033 58.5327 133.214 58.4404C133.944 58.0682 134.682 57.6904 135.299 57.1493C135.793 56.7153 136.196 56.1872 136.575 55.6491C137.368 54.5244 138.095 53.27 138.147 51.8931C138.198 50.5163 137.357 49.0196 136.007 48.771C134.578 48.5077 133.278 49.6688 132.489 50.8938ZM70.3889 53.8166C69.8412 54.2985 69.6428 55.0638 69.5518 55.7893C69.4685 56.4536 69.4541 57.1455 69.6836 57.7742C70.0001 58.6415 70.7524 59.2916 71.5849 59.6846C72.4174 60.0775 73.3344 60.2461 74.2395 60.4109C74.6863 60.4922 75.133 60.5736 75.5798 60.6549C75.6905 60.6751 75.8214 60.6892 75.8997 60.6081C75.9647 60.5408 75.9646 60.4356 75.9604 60.3419C75.8866 58.6804 75.8128 57.019 75.7389 55.3575C75.7076 54.6517 75.205 54.0299 74.5856 53.6948C73.9662 53.3597 73.2451 53.2695 72.5417 53.2515C71.7822 53.2321 70.9603 53.3138 70.3889 53.8166ZM213.993 82.2471C213.664 81.8867 213.179 81.7214 212.713 81.5812C212.219 81.4326 211.685 81.2968 211.195 81.4587C210.639 81.6425 210.271 82.165 209.977 82.6738C209.533 83.4434 209.165 84.257 208.879 85.099C208.778 85.3971 208.687 85.7106 208.729 86.0227C208.771 86.3347 208.983 86.6448 209.291 86.7029C210.549 86.9398 211.649 87.8921 212.067 89.1072C212.651 87.8773 213.236 86.6474 213.82 85.4175C214.062 84.9088 214.307 84.3906 214.39 83.8332C214.473 83.2757 214.372 82.6628 213.993 82.2471ZM218.373 84.8228C217.775 84.2578 216.779 84.2973 216.087 84.7421C215.395 85.1869 214.964 85.9473 214.685 86.7235C214.368 87.6076 214.214 88.5503 214.232 89.4898C214.237 89.7141 214.253 89.946 214.356 90.1451C214.605 90.6255 215.261 90.7329 215.783 90.6004C216.925 90.3109 217.686 89.2452 218.251 88.2072C218.542 87.6723 218.812 87.1111 218.888 86.5064C218.964 85.9018 218.816 85.2402 218.373 84.8228ZM97.9226 204.781C97.6417 203.15 97.3608 201.519 97.0799 199.888C97.0472 199.698 97.0034 199.49 96.8494 199.375C96.7484 199.299 96.6179 199.279 96.4931 199.263C95.0454 199.074 93.5745 199.065 92.1244 199.235C93.8359 201.299 95.7859 203.164 97.9226 204.781Z" fill="#404040"/>
<path d="M14.7851 45.7711C13.3397 48.5536 12.5896 51.6406 12.6075 54.7634C11.4077 52.3894 9.97102 49.9344 7.2004 49.2152C4.87983 48.5922 2.1921 49.8731 1.87755 52.3911C1.50129 55.4159 4.2131 58.0566 6.24722 59.9206C8.63028 62.1226 11.3846 63.8909 14.208 65.4849C15.6536 66.2975 17.1146 67.0485 18.5816 67.8159C18.257 68.8474 17.9467 70.0226 18.5661 70.951C19.0521 71.6674 20.0333 71.9792 20.7473 71.3455C21.4614 70.7119 21.4431 69.6195 20.9738 68.897C20.5628 68.2836 19.921 67.8664 19.2411 67.5003C19.2779 67.3937 19.3041 67.3096 19.341 67.203C19.6073 66.3232 19.8963 65.4538 20.2079 64.5948C20.8085 62.8664 21.4709 61.1526 22.0655 59.4077C23.124 56.3383 24.0121 53.1636 24.1537 49.9079C24.2564 47.4302 24.1419 43.728 21.7579 42.2527C18.8738 40.4387 16.0212 43.4005 14.7851 45.7711ZM20.6204 69.3802C20.8432 69.8389 20.8732 70.4426 20.49 70.8436C19.8438 71.5083 19.034 70.8358 18.8456 70.1596C18.6573 69.4834 18.8427 68.745 19.0627 68.0498C19.6914 68.3787 20.3214 68.7631 20.6204 69.3802ZM23.6067 48.1893C23.6811 49.8013 23.565 51.4085 23.2691 52.9882C22.7013 56.2135 21.5702 59.2908 20.4392 62.3681C19.8529 63.9795 19.2558 65.6135 18.7541 67.25C18.3635 67.0575 17.9848 66.8979 17.6336 66.7097C16.2463 66.0062 14.8865 65.2741 13.5314 64.5029C10.764 62.9071 8.08702 61.0919 5.79798 58.8368C4.47601 57.532 3.00991 56.0377 2.44969 54.2308C1.85968 52.3417 2.59468 50.3592 4.57308 49.673C8.31323 48.3799 11.0338 52.1908 12.5969 55.0467C12.6077 55.2849 12.6185 55.5231 12.6293 55.7613C12.6532 56.0879 13.1329 56.0056 13.1209 55.7119C13.0245 52.5805 13.5674 49.4948 14.9271 46.6319C15.6016 45.2117 16.4749 43.663 17.8961 42.8453C19.472 41.9337 21.3579 42.1382 22.4156 43.6514C23.3173 44.9422 23.5394 46.6492 23.6067 48.1893Z" fill="#FAB529"/>
<path d="M206.971 7.26982C204.084 8.46761 201.535 10.3479 199.551 12.7517C200.151 10.1581 200.62 7.34939 198.958 5.00875C197.579 3.03253 194.701 2.27757 192.849 4.00325C190.626 6.07734 191.014 9.85194 191.38 12.5938C191.797 15.82 192.776 18.9538 193.919 21.9987C194.507 23.5549 195.146 25.074 195.779 26.6095C194.87 27.19 193.881 27.8898 193.762 29.0011C193.676 29.8638 194.228 30.7365 195.18 30.7123C196.133 30.6882 196.817 29.8396 196.92 28.983C196.997 28.2476 196.773 27.5133 196.486 26.7937C196.582 26.7358 196.656 26.6883 196.753 26.6305C197.519 26.1286 198.297 25.6493 199.085 25.1925C200.651 24.2564 202.254 23.3715 203.826 22.4189C206.6 20.7513 209.311 18.893 211.502 16.4905C213.165 14.6588 215.446 11.7488 214.563 9.0787C213.514 5.82611 209.434 6.25227 206.971 7.26982ZM196.34 29.1248C196.217 29.6201 195.854 30.102 195.304 30.1615C194.384 30.2533 194.194 29.2151 194.482 28.5754C194.77 27.9357 195.385 27.4899 195.998 27.0994C196.269 27.7575 196.506 28.4589 196.34 29.1248ZM212.182 14.8206C211.208 16.1036 210.091 17.2597 208.854 18.2788C206.356 20.3827 203.521 22.0094 200.686 23.6361C199.207 24.4918 197.704 25.3579 196.273 26.2873C196.097 25.8876 195.909 25.5208 195.76 25.1497C195.148 23.7147 194.574 22.2754 194.029 20.8094C192.93 17.7993 192.04 14.6795 191.729 11.4734C191.551 9.61992 191.384 7.52822 192.111 5.78218C192.867 3.9539 194.698 2.91001 196.652 3.66231C200.345 5.08767 199.991 9.76444 199.362 12.9618C199.218 13.1513 199.074 13.3407 198.93 13.5302C198.739 13.7958 199.159 14.0426 199.338 13.8099C201.267 11.3489 203.657 9.33574 206.529 8.02096C207.954 7.36875 209.614 6.74644 211.226 7.03805C213.016 7.35773 214.33 8.73257 214.172 10.575C214.037 12.1463 213.116 13.5974 212.182 14.8206Z" fill="#FAB529"/>
</svg>
