<svg width="272" height="52" viewBox="0 0 272 52" fill="none" xmlns="http://www.w3.org/2000/svg">
<path d="M24.8856 23.33H18.3448V38.2041H13.4393V23.33H6.89848V19.0851H24.8856V23.33Z" fill="#2C5337"/>
<path d="M27.4624 38.2041V19.0851H37.1033C38.4432 19.0851 39.6355 19.4134 40.6802 20.0699C41.7477 20.7038 42.5766 21.5188 43.1671 22.515C43.7803 23.5111 44.0869 24.5525 44.0869 25.6392C44.0869 26.7712 43.7689 27.8352 43.133 28.8314C42.4971 29.8049 41.6455 30.5746 40.578 31.1406L45.5177 38.2041H39.9648L35.6725 32.2273H32.368V38.2041H27.4624ZM32.368 27.9484H36.9329C37.5461 27.9484 38.0571 27.7447 38.4659 27.3372C38.8974 26.907 39.1132 26.341 39.1132 25.6392C39.1132 24.9147 38.8634 24.3488 38.3637 23.9412C37.8868 23.5337 37.3531 23.33 36.7626 23.33H32.368V27.9484Z" fill="#2C5337"/>
<path d="M56.8169 34.0271C57.9297 34.0271 58.8041 33.7894 59.44 33.314C60.0986 32.8159 60.5642 32.182 60.8367 31.4123C61.1092 30.6199 61.2455 29.7822 61.2455 28.8993V19.0851H66.117V28.8993C66.117 30.6652 65.7877 32.2612 65.1291 33.6875C64.4932 35.1138 63.4826 36.2571 62.0972 37.1174C60.7345 37.9551 58.9744 38.3739 56.8169 38.3739C54.5912 38.3739 52.797 37.9324 51.4344 37.0495C50.0717 36.1666 49.0724 35.0119 48.4365 33.5857C47.8233 32.1367 47.5167 30.5746 47.5167 28.8993V19.0851H52.4223V28.8993C52.4223 29.8049 52.5586 30.6425 52.8311 31.4123C53.1263 32.182 53.5919 32.8159 54.2278 33.314C54.8637 33.7894 55.7267 34.0271 56.8169 34.0271Z" fill="#2C5337"/>
<path d="M82.4133 25.0619C82.2544 24.9034 81.891 24.6883 81.3232 24.4167C80.7554 24.1224 80.0855 23.862 79.3133 23.6356C78.5411 23.3866 77.7462 23.2621 76.9286 23.2621C75.2934 23.2621 74.4758 23.6696 74.4758 24.4846C74.4758 25.0506 74.8392 25.4581 75.566 25.7071C76.3154 25.9335 77.3715 26.2391 78.7342 26.624C80.0514 26.9636 81.1869 27.3598 82.1408 27.8126C83.1174 28.2654 83.8668 28.854 84.3892 29.5785C84.9343 30.3029 85.2068 31.2651 85.2068 32.465C85.2068 33.9592 84.8321 35.1478 84.0826 36.0307C83.3331 36.891 82.3566 37.5136 81.1529 37.8985C79.9719 38.2607 78.7228 38.4418 77.4056 38.4418C75.8612 38.4418 74.2942 38.2381 72.7044 37.8306C71.1373 37.4004 69.7519 36.8344 68.5483 36.1326L70.6945 31.8877C70.9216 32.1141 71.3644 32.3971 72.023 32.7367C72.7044 33.0763 73.522 33.3819 74.4758 33.6536C75.4297 33.9252 76.429 34.0611 77.4737 34.0611C79.0862 34.0611 79.8924 33.6762 79.8924 32.9065C79.8924 32.499 79.6767 32.182 79.2452 31.9556C78.8364 31.7066 78.2572 31.4915 77.5078 31.3104C76.7583 31.1066 75.9066 30.8689 74.9528 30.5972C73.0677 30.0539 71.671 29.3747 70.7626 28.5597C69.8769 27.7447 69.434 26.6014 69.434 25.1298C69.434 23.7941 69.7747 22.6621 70.456 21.7339C71.16 20.8057 72.0912 20.1039 73.2494 19.6284C74.4077 19.153 75.6795 18.9153 77.0649 18.9153C78.5411 18.9153 79.9265 19.1417 81.221 19.5945C82.5155 20.0473 83.617 20.5227 84.5255 21.0208L82.4133 25.0619Z" fill="#2C5337"/>
<path d="M104.629 23.33H98.0885V38.2041H93.1829V23.33H86.6421V19.0851H104.629V23.33Z" fill="#2C5337"/>
<path d="M171.67 21.4961H164.482V38.2041H162.37V21.4961H155.113V19.5944H171.67V21.4961Z" fill="#2C5337"/>
<path d="M175.323 38.2041V19.5944H183.942C185.123 19.5944 186.168 19.8887 187.076 20.4774C188.008 21.066 188.734 21.8131 189.257 22.7187C189.779 23.6242 190.04 24.5525 190.04 25.5033C190.04 26.8164 189.62 28.005 188.78 29.069C187.962 30.1104 186.883 30.767 185.543 31.0387L190.517 38.2041H188.064L183.363 31.4462H177.436V38.2041H175.323ZM177.436 29.5445H184.01C184.783 29.5445 185.453 29.3633 186.02 29.0011C186.611 28.6162 187.065 28.1182 187.383 27.5069C187.701 26.8956 187.86 26.2278 187.86 25.5033C187.86 24.8015 187.678 24.145 187.315 23.5337C186.951 22.9224 186.463 22.4357 185.85 22.0734C185.237 21.6886 184.555 21.4961 183.806 21.4961H177.436V29.5445Z" fill="#2C5337"/>
<path d="M192.37 38.2041L200.886 19.5944H202.658L211.106 38.2041H208.858L206.269 32.6008H197.241L194.686 38.2041H192.37ZM201.772 22.2432L197.752 30.733H205.724L201.772 22.2432Z" fill="#2C5337"/>
<path d="M213.016 19.5944L220.204 35.2496L227.324 19.5944H229.573L221.09 38.2041H219.25L210.768 19.5944H213.016Z" fill="#2C5337"/>
<path d="M246.772 36.3023V38.2041H233.044V19.5944H246.5V21.4961H235.156V27.8465H245.069V29.6124H235.156V36.3023H246.772Z" fill="#2C5337"/>
<path d="M251.141 38.2041V19.5944H253.254V36.3023H264.53V38.2041H251.141Z" fill="#2C5337"/>
<path fill-rule="evenodd" clip-rule="evenodd" d="M147.814 15.8816C148.012 16.1683 148.133 16.5003 148.166 16.8464C148.21 17.2992 148.74 23.4815 145.847 30.7352V24.4082C145.847 21.2245 144.251 20.1633 141.589 20.1633L136.798 20.1633V16.449C138.928 16.449 138.928 11.6735 136.798 11.6735H129.879H122.959C120.83 11.6735 120.83 16.449 122.959 16.449V20.1633L118.168 20.1633C115.507 20.1633 113.91 21.2245 113.91 24.4082V32.2995C110.194 24.1722 111.051 16.901 111.067 16.7806C111.154 16.1021 111.577 15.512 112.19 15.2036L128.746 6.97911C129.033 6.83633 129.349 6.76235 129.67 6.76307C129.99 6.76378 130.306 6.83917 130.592 6.98322L147.038 15.2077C147.35 15.3631 147.617 15.595 147.814 15.8816ZM122.544 43.5102C124.311 44.9792 126.345 46.3708 128.684 47.6389C128.991 47.8059 129.336 47.8918 129.686 47.8886C130.036 47.8854 130.379 47.793 130.683 47.6204C132.937 46.3509 134.904 44.9664 136.619 43.5102H129.879H122.544ZM125.62 19.6326V16.449C126.153 16.449 126.685 15.9942 126.685 15.3877H133.072C133.072 15.9942 133.605 16.449 134.137 16.449V19.6326H125.62Z" fill="#FAB529"/>
<path d="M122.942 40.3265C122.942 38.9512 123.061 37.7881 123.3 36.8372C123.555 35.8694 123.955 35.0459 124.5 34.3667C125.063 33.6705 125.803 33.0423 126.723 32.482C127.319 32.1254 127.933 31.7943 128.563 31.4887C129.21 31.166 129.806 30.8349 130.351 30.4953C130.913 30.1388 131.365 29.7313 131.705 29.2728C132.063 28.7974 132.242 28.2286 132.242 27.5664C132.242 26.8193 132.004 26.225 131.527 25.7835C131.067 25.3251 130.411 25.0958 129.559 25.0958C128.912 25.0958 128.307 25.2147 127.745 25.4524C127.2 25.6731 126.706 25.9533 126.263 26.2929C125.838 26.6155 125.471 26.9381 125.165 27.2607L123.019 25.0194C123.325 24.6629 123.794 24.2553 124.424 23.7969C125.071 23.3215 125.863 22.9055 126.8 22.5489C127.737 22.1923 128.801 22.014 129.994 22.014C131.322 22.014 132.438 22.2518 133.341 22.7272C134.243 23.1856 134.925 23.8224 135.385 24.6374C135.862 25.4354 136.1 26.3608 136.1 27.4135C136.1 28.4323 135.879 29.2983 135.436 30.0114C135.01 30.7076 134.456 31.3019 133.775 31.7943C133.094 32.2867 132.387 32.7451 131.654 33.1696C130.479 33.7979 129.585 34.3327 128.972 34.7742C128.375 35.2157 127.95 35.6317 127.694 36.0222C127.439 36.3958 127.234 36.8033 127.081 37.2447H136.126V40.3265H122.942Z" fill="#FAB529"/>
</svg>
